SplineFontDB: 3.0
FontName: MateSC-Regular
FullName: Mate SC Regular
FamilyName: Mate SC
Weight: Regular
Copyright: Copyright (c) 2011, Eduardo Tunni (http://www.tipo.net.ar), with Reserved Font Name "Mate"
Version: 001.001
ItalicAngle: 0
UnderlinePosition: -50
UnderlineWidth: 50
Ascent: 800
Descent: 200
sfntRevision: 0x00010083
LayerCount: 2
Layer: 0 1 "Back"  1
Layer: 1 1 "Fore"  0
NeedsXUIDChange: 1
XUID: [1021 288 713564382 3023183]
FSType: 0
OS2Version: 2
OS2_WeightWidthSlopeOnly: 0
OS2_UseTypoMetrics: 1
CreationTime: 1319810184
ModificationTime: 1319835432
PfmFamily: 17
TTFWeight: 400
TTFWidth: 5
LineGap: 0
VLineGap: 0
Panose: 2 0 0 0 0 0 0 0 0 0
OS2TypoAscent: 958
OS2TypoAOffset: 0
OS2TypoDescent: -62
OS2TypoDOffset: 1
OS2TypoLinegap: 0
OS2WinAscent: 958
OS2WinAOffset: 0
OS2WinDescent: 262
OS2WinDOffset: 0
HheadAscent: 23
HheadAOffset: 1
HheadDescent: -21
HheadDOffset: 1
OS2SubXSize: 700
OS2SubYSize: 650
OS2SubXOff: 0
OS2SubYOff: 140
OS2SupXSize: 700
OS2SupYSize: 650
OS2SupXOff: 0
OS2SupYOff: 477
OS2StrikeYSize: 50
OS2StrikeYPos: 250
OS2Vendor: 'TIPO'
OS2CodePages: 20000001.00000000
OS2UnicodeRanges: 800000a7.40000000.00000000.00000000
Lookup: 257 0 0 "'cpsp' Capital Spacing in Latin lookup 0"  {"'cpsp' Capital Spacing in Latin lookup 0 subtable"  } ['cpsp' ('latn' <'dflt' > ) ]
Lookup: 257 0 0 "'case' Case-Sensitive Forms in Latin lookup 1"  {"'case' Case-Sensitive Forms in Latin lookup 1 per glyph data 0"  "'case' Case-Sensitive Forms in Latin lookup 1 per glyph data 1"  } ['case' ('latn' <'dflt' > ) ]
Lookup: 258 0 0 "'kern' Horizontal Kerning in Latin lookup 2"  {"'kern' Horizontal Kerning in Latin lookup 2 per glyph data 0"  "'kern' Horizontal Kerning in Latin lookup 2 per glyph data 1"  "'kern' Horizontal Kerning in Latin lookup 2 kerning class 2"  } ['kern' ('latn' <'dflt' > ) ]
MarkAttachClasses: 1
DEI: 91125
KernClass2: 13+ 9 "'kern' Horizontal Kerning in Latin lookup 2 kerning class 2" 
 50 A Aacute Agrave Atilde Adieresis Aring Acircumflex

StartChar: acute
Encoding: 180 180 1
Width: 317
Flags: HMW
HStem: 518 21G<61 61> 660 20G
LayerCount: 2
Fore
SplineSet
61 518 m 1,0,-1
 50 537 l 1,1,2
 147 603 147 603 242 680 c 1,3,4
 247 674 247 674 257 650 c 128,-1,5
 267 626 267 626 267 615 c 0,6,7
 267 604 267 604 262 601 c 0,8,9
 187 553 187 553 61 518 c 1,0,-1
EndSplineSet
EndChar

StartChar: period
Encoding: 46 46 2
Width: 197
Flags: HMW
HStem: -12 21G<70 96> 101 20G<102.5 126.5>
VStem: 48 101<44.5 64.5>
LayerCount: 2
Fore
SplineSet
113 121 m 0,0,1
 149 121 149 121 149 59 c 1,2,-1
 142 -3 l 1,3,4
 107 -12 107 -12 85 -12 c 0,5,6
 48 -12 48 -12 48 49 c 0,7,8
 48 76 48 76 56 114 c 1,9,10
 92 121 92 121 113 121 c 0,0,1
EndSplineSet
EndChar

StartChar: hyphen
Encoding: 45 45 3
Width: 390
Flags: HMW
HStem: 220 59<145.5 199.5>
LayerCount: 2
Fore
SplineSet
333 279 m 1,0,-1
 340 246 l 1,1,2
 287 220 287 220 167 220 c 0,3,4
 105 220 105 220 55 229 c 1,5,-1
 50 279 l 1,6,-1
 333 279 l 1,0,-1
EndSplineSet
Position2: "'case' Case-Sensitive Forms in Latin lookup 1 per glyph data 0" dx=0 dy=70 dh=0 dv=0
EndChar

StartChar: colon
Encoding: 58 58 4
Width: 197
Flags: HMW
HStem: -12 21G<70 96> 101 20G<102.5 126.5> 284 21G<70 96> 397 20G<102.5 126.5>
VStem: 48 101<44.5 64.5 340.5 360.5>
LayerCount: 2
Fore
SplineSet
113 417 m 0,0,1
 149 417 149 417 149 355 c 1,2,-1
 142 293 l 1,3,4
 107 284 107 284 85 284 c 0,5,6
 48 284 48 284 48 345 c 0,7,8
 48 372 48 372 56 410 c 1,9,10
 92 417 92 417 113 417 c 0,0,1
113 121 m 0,11,12
 149 121 149 121 149 59 c 1,13,-1
 142 -3 l 1,14,15
 107 -12 107 -12 85 -12 c 0,16,17
 48 -12 48 -12 48 49 c 0,18,19
 48 76 48 76 56 114 c 1,20,21
 92 121 92 121 113 121 c 0,11,12
EndSplineSet
EndChar

StartChar: comma
Encoding: 44 44 5
Width: 197
Flags: HMW
HStem: -142 21G<28 28> -12 21G<70 87.5> 101 20G<100.5 129.5>
VStem: 48 113<33.5 42 -23 64.5>
LayerCount: 2
Fore
SplineSet
56 114 m 1,0,1
 86 121 86 121 111 121 c 128,-1,2
 136 121 136 121 148.5 90 c 128,-1,3
 161 59 161 59 161 8.5 c 128,-1,4
 161 -42 161 -42 124 -86 c 128,-1,5
 87 -130 87 -130 28 -142 c 1,6,-1
 19 -113 l 1,7,8
 58 -101 58 -101 79.5 -74.5 c 128,-1,9
 101 -48 101 -48 101 -15 c 2,10,-1
 101 -11 l 1,11,12
 95 -12 95 -12 85 -12 c 0,13,14
 48 -12 48 -12 48 49 c 0,15,16
 48 76 48 76 56 114 c 1,0,1
EndSplineSet
EndChar

StartChar: semicolon
Encoding: 59 59 6
Width: 197
Flags: HMW
HStem: -142 21G<28 28> -12 21G<70 87.5> 101 20G<100.5 129.5> 284 21G<70 96> 397 20G<102.5 126.5>
VStem: 48 101<340.5 360.5> 48 113<33.5 42 -23 64.5>
LayerCount: 2
Fore
SplineSet
113 417 m 0,0,1
 149 417 149 417 149 355 c 1,2,-1
 142 293 l 1,3,4
 107 284 107 284 85 284 c 0,5,6
 48 284 48 284 48 345 c 0,7,8
 48 372 48 372 56 410 c 1,9,10
 92 417 92 417 113 417 c 0,0,1
56 114 m 1,11,12
 86 121 86 121 111 121 c 128,-1,13
 136 121 136 121 148.5 90 c 128,-1,14
 161 59 161 59 161 8.5 c 128,-1,15
 161 -42 161 -42 124 -86 c 128,-1,16
 87 -130 87 -130 28 -142 c 1,17,-1
 19 -113 l 1,18,19
 58 -101 58 -101 79.5 -74.5 c 128,-1,20
 101 -48 101 -48 101 -15 c 2,21,-1
 101 -11 l 1,22,23
 95 -12 95 -12 85 -12 c 0,24,25
 48 -12 48 -12 48 49 c 0,26,27
 48 76 48 76 56 114 c 1,11,12
EndSplineSet
EndChar

StartChar: quotedblleft
Encoding: 8220 8220 7
Width: 380
Flags: HMW
HStem: 476 21G<62.5 91.5 238.5 267.5> 609 21G<104.5 122 280.5 298> 719 20G<164 164 340 340>
VStem: 31 60<608 612 608 620> 31 113<555 563.5 532.5 620> 207 60<608 612 608 620> 207 113<555 563.5 532.5 620>
LayerCount: 2
Fore
SplineSet
136 483 m 1,0,1
 106 476 106 476 81 476 c 128,-1,2
 56 476 56 476 43.5 507 c 128,-1,3
 31 538 31 538 31 588.5 c 128,-1,4
 31 639 31 639 68 683 c 128,-1,5
 105 727 105 727 164 739 c 1,6,-1
 173 710 l 1,7,8
 134 698 134 698 112.5 671.5 c 128,-1,9
 91 645 91 645 91 612 c 2,10,-1
 91 608 l 1,11,12
 97 609 97 609 107 609 c 0,13,14
 144 609 144 609 144 548 c 0,15,16
 144 521 144 521 136 483 c 1,0,1
312 483 m 1,17,18
 282 476 282 476 257 476 c 128,-1,19
 232 476 232 476 219.5 507 c 128,-1,20
 207 538 207 538 207 588.5 c 128,-1,21
 207 639 207 639 244 683 c 128,-1,22
 281 727 281 727 340 739 c 1,23,-1
 349 710 l 1,24,25
 310 698 310 698 288.5 671.5 c 128,-1,26
 267 645 267 645 267 612 c 2,27,-1
 267 608 l 1,28,29
 273 609 273 609 283 609 c 0,30,31
 320 609 320 609 320 548 c 0,32,33
 320 521 320 521 312 483 c 1,17,18
EndSplineSet
EndChar

StartChar: quotedblright
Encoding: 8221 8221 8
Width: 380
Flags: HMW
HStem: 467 21G<40 40 216 216> 597 21G<82 99.5 258 275.5> 710 20G<112.5 141.5 288.5 317.5>
VStem: 60 113<642.5 651 586 673.5> 113 60<594 598 598 598> 236 113<642.5 651 586 673.5> 289 60<594 598 598 598>
LayerCount: 2
Fore
SplineSet
244 723 m 1,0,1
 274 730 274 730 299 730 c 128,-1,2
 324 730 324 730 336.5 699 c 128,-1,3
 349 668 349 668 349 617.5 c 128,-1,4
 349 567 349 567 312 523 c 128,-1,5
 275 479 275 479 216 467 c 1,6,-1
 207 496 l 1,7,8
 246 508 246 508 267.5 534.5 c 128,-1,9
 289 561 289 561 289 594 c 2,10,-1
 289 598 l 1,11,12
 283 597 283 597 273 597 c 0,13,14
 236 597 236 597 236 658 c 0,15,16
 236 685 236 685 244 723 c 1,0,1
68 723 m 1,17,18
 98 730 98 730 123 730 c 128,-1,19
 148 730 148 730 160.5 699 c 128,-1,20
 173 668 173 668 173 617.5 c 128,-1,21
 173 567 173 567 136 523 c 128,-1,22
 99 479 99 479 40 467 c 1,23,-1
 31 496 l 1,24,25
 70 508 70 508 91.5 534.5 c 128,-1,26
 113 561 113 561 113 594 c 2,27,-1
 113 598 l 1,28,29
 107 597 107 597 97 597 c 0,30,31
 60 597 60 597 60 658 c 0,32,33
 60 685 60 685 68 723 c 1,17,18
EndSplineSet
EndChar

StartChar: I
Encoding: 73 73 9
Width: 345
Flags: HMW
HStem: 0 21G<57.5 65 280 287.5> 680 20G<57.5 65 280 287.5>
VStem: 133 78
LayerCount: 2
Fore
SplineSet
136 648 m 1,0,-1
 50 670 l 1,1,2
 50 700 50 700 65 700 c 0,3,4
 83 700 83 700 177 696 c 1,5,-1
 280 700 l 2,6,7
 295 700 295 700 295 670 c 1,8,-1
 209 648 l 1,9,-1
 214 350 l 1,10,-1
 209 52 l 1,11,-1
 295 30 l 1,12,13
 295 0 295 0 280 0 c 0,14,15
 270 0 270 0 177 4 c 1,16,-1
 65 0 l 2,17,18
 50 0 50 0 50 30 c 1,19,-1
 136 52 l 1,20,-1
 131 350 l 1,21,-1
 136 648 l 1,0,-1
EndSplineSet
Position2: "'cpsp' Capital Spacing in Latin lookup 0 subtable" dx=7 dy=0 dh=35 dv=0
EndChar

StartChar: H
Encoding: 72 72 10
Width: 789
Flags: HMW
HStem: 0 21G<57.5 65 273 280.5 508.5 516 724 731.5> 333 51 680 20G<57.5 65 273 280.5 508.5 516 724 731.5>
VStem: 134 78 576 79
LayerCount: 2
Fore
SplineSet
739 670 m 1,0,-1
 655 648 l 1,1,-1
 655 52 l 1,2,-1
 739 30 l 1,3,4
 739 0 739 0 724 0 c 0,5,6
 715 0 715 0 621 4 c 1,7,-1
 516 0 l 2,8,9
 501 0 501 0 501 30 c 1,10,-1
 581 52 l 1,11,-1
 571 340 l 1,12,-1
 217 326 l 1,13,-1
 208 52 l 1,14,-1
 288 30 l 1,15,16
 288 0 288 0 273 0 c 0,17,18
 261 0 261 0 168 4 c 1,19,-1
 65 0 l 2,20,21
 50 0 50 0 50 30 c 1,22,-1
 134 52 l 1,23,-1
 134 648 l 1,24,-1
 50 670 l 1,25,26
 50 700 50 700 65 700 c 0,27,28
 74 700 74 700 168 696 c 1,29,-1
 273 700 l 2,30,31
 288 700 288 700 288 670 c 1,32,-1
 208 648 l 1,33,-1
 217 384 l 1,34,-1
 572 384 l 1,35,-1
 581 648 l 1,36,-1
 501 670 l 1,37,38
 501 700 501 700 516 700 c 0,39,40
 528 700 528 700 621 696 c 1,41,-1
 724 700 l 2,42,43
 739 700 739 700 739 670 c 1,0,-1
EndSplineSet
Position2: "'cpsp' Capital Spacing in Latin lookup 0 subtable" dx=7 dy=0 dh=35 dv=0
EndChar

StartChar: E
Encoding: 69 69 11
Width: 601
Flags: HMW
HStem: 0 21G<57.5 65 514 524> 4 51 332 50 647 51 680 20G<57.5 65 508 517>
VStem: 134 78
LayerCount: 2
Fore
SplineSet
473 555 m 2,0,-1
 473 649 l 1,1,-1
 208 646 l 1,2,-1
 217 382 l 1,3,-1
 473 382 l 1,4,-1
 473 339 l 1,5,-1
 217 326 l 1,6,-1
 208 55 l 1,7,-1
 483 55 l 1,8,-1
 509 149 l 1,9,10
 509 163 509 163 551 163 c 1,11,-1
 543 12 l 2,12,13
 542 0 542 0 514 0 c 2,14,-1
 170 8 l 1,15,-1
 65 0 l 1,16,17
 50 0 50 0 50 30 c 1,18,-1
 134 52 l 1,19,-1
 134 648 l 1,20,-1
 50 670 l 1,21,22
 50 700 50 700 65 700 c 0,23,24
 74 700 74 700 168 696 c 1,25,-1
 508 700 l 2,26,27
 539 700 539 700 540 690 c 1,28,-1
 516 541 l 1,29,30
 473 541 473 541 473 555 c 2,0,-1
EndSplineSet
Position2: "'cpsp' Capital Spacing in Latin lookup 0 subtable" dx=7 dy=0 dh=35 dv=0
EndChar

StartChar: F
Encoding: 70 70 12
Width: 550
Flags: HMW
HStem: 0 21G<57.5 65 304 311.5> 316 50 647 51 680 20G<57.5 65 478 487>
VStem: 134 78
LayerCount: 2
Fore
SplineSet
443 555 m 2,0,-1
 443 649 l 1,1,-1
 208 646 l 1,2,-1
 217 367 l 1,3,-1
 463 366 l 1,4,-1
 463 323 l 1,5,-1
 216 310 l 1,6,-1
 208 52 l 1,7,-1
 319 30 l 1,8,9
 319 0 319 0 304 0 c 0,10,11
 261 0 261 0 168 4 c 1,12,-1
 65 0 l 2,13,14
 50 0 50 0 50 30 c 1,15,-1
 134 52 l 1,16,-1
 134 648 l 1,17,-1
 50 670 l 1,18,19
 50 700 50 700 65 700 c 0,20,21
 74 700 74 700 168 696 c 1,22,-1
 478 700 l 2,23,24
 509 700 509 700 510 690 c 1,25,-1
 486 541 l 1,26,27
 443 541 443 541 443 555 c 2,0,-1
EndSplineSet
Position2: "'cpsp' Capital Spacing in Latin lookup 0 subtable" dx=7 dy=0 dh=35 dv=0
EndChar

StartChar: L
Encoding: 76 76 13
Width: 521
Flags: HMW
HStem: 0 21G<56.5 64 474 484> 4 51 680 20G<56.5 64 279 286.5>
VStem: 132 78
LayerCount: 2
Fore
SplineSet
135 648 m 1,0,-1
 49 670 l 1,1,2
 49 700 49 700 64 700 c 0,3,4
 82 700 82 700 176 696 c 1,5,-1
 279 700 l 2,6,7
 294 700 294 700 294 670 c 1,8,-1
 208 648 l 1,9,-1
 213 350 l 1,10,-1
 208 55 l 1,11,-1
 443 55 l 1,12,-1
 469 149 l 2,13,14
 473 163 473 163 511 163 c 1,15,-1
 503 12 l 2,16,17
 502 0 502 0 474 0 c 2,18,-1
 176 8 l 1,19,-1
 64 0 l 1,20,21
 49 0 49 0 49 30 c 1,22,-1
 135 52 l 1,23,-1
 130 350 l 1,24,-1
 135 648 l 1,0,-1
EndSplineSet
Position2: "'cpsp' Capital Spacing in Latin lookup 0 subtable" dx=7 dy=0 dh=35 dv=0
EndChar

StartChar: T
Encoding: 84 84 14
Width: 563
Flags: HMW
HStem: 0 21G<139.5 147 416 423.5> 648 49 680 20G<28 37 526 535>
VStem: 242 78
LayerCount: 2
Fore
SplineSet
281 695 m 1,0,-1
 526 700 l 2,1,2
 557 700 557 700 558 690 c 1,3,-1
 547 533 l 1,4,5
 505 533 505 533 505 547 c 1,6,-1
 490 650 l 1,7,-1
 318 646 l 1,8,-1
 323 350 l 1,9,-1
 318 52 l 1,10,-1
 431 30 l 1,11,12
 431 0 431 0 416 0 c 0,13,14
 377 0 377 0 284 4 c 1,15,-1
 147 0 l 2,16,17
 132 0 132 0 132 30 c 1,18,-1
 245 52 l 1,19,-1
 240 350 l 1,20,-1
 245 646 l 1,21,-1
 73 650 l 1,22,-1
 58 547 l 1,23,24
 58 533 58 533 16 533 c 1,25,-1
 5 690 l 1,26,27
 6 700 6 700 37 700 c 2,28,-1
 281 695 l 1,0,-1
EndSplineSet
Position2: "'cpsp' Capital Spacing in Latin lookup 0 subtable" dx=7 dy=0 dh=35 dv=0
EndChar

StartChar: N
Encoding: 78 78 15
Width: 790
Flags: HMW
HStem: 0 21G<57.5 65 284 292 616 672 616 616> 680 20G<57.5 65 518 526 735 742.5>
VStem: 132 58 618 55
LayerCount: 2
Fore
SplineSet
615 648 m 1,0,-1
 510 670 l 1,1,2
 510 700 510 700 526 700 c 2,3,-1
 647 696 l 1,4,-1
 735 700 l 2,5,6
 750 700 750 700 750 670 c 1,7,-1
 675 648 l 1,8,-1
 672 0 l 1,9,-1
 616 0 l 1,10,-1
 186 583 l 1,11,-1
 194 52 l 1,12,-1
 300 30 l 1,13,14
 300 0 300 0 284 0 c 2,15,-1
 163 4 l 1,16,-1
 65 0 l 2,17,18
 50 0 50 0 50 30 c 1,19,-1
 132 52 l 1,20,-1
 132 647 l 1,21,-1
 50 669 l 1,22,23
 50 700 50 700 63.5 700 c 0,24,25
 77 700 77 700 200 696 c 1,26,-1
 621 126 l 1,27,-1
 615 648 l 1,0,-1
EndSplineSet
Position2: "'cpsp' Capital Spacing in Latin lookup 0 subtable" dx=7 dy=0 dh=35 dv=0
EndChar

StartChar: O
Encoding: 79 79 16
Width: 747
Flags: HMW
HStem: -12 48<303.5 443 303.5 463> 658 54<348.5 443>
VStem: 40 88<246 416 246 471> 619 88<246 454.5>
LayerCount: 2
Fore
SplineSet
614.5 621.5 m 128,-1,1
 707 531 707 531 707 355 c 128,-1,2
 707 179 707 179 613 83.5 c 128,-1,3
 519 -12 519 -12 368.5 -12 c 128,-1,4
 218 -12 218 -12 129 82 c 128,-1,5
 40 176 40 176 40 349.5 c 128,-1,6
 40 523 40 523 136 617.5 c 128,-1,7
 232 712 232 712 377 712 c 128,-1,0
 522 712 522 712 614.5 621.5 c 128,-1,1
128 352 m 0,8,9
 128 199 128 199 196 117.5 c 128,-1,10
 264 36 264 36 373.5 36 c 128,-1,11
 483 36 483 36 551 117.5 c 128,-1,12
 619 199 619 199 619 349.5 c 128,-1,13
 619 500 619 500 551 579 c 128,-1,14
 483 658 483 658 373 658 c 0,15,16
 301 658 301 658 229 634 c 1,17,18
 182 599 182 599 155 523.5 c 128,-1,19
 128 448 128 448 128 352 c 0,8,9
EndSplineSet
Position2: "'cpsp' Capital Spacing in Latin lookup 0 subtable" dx=7 dy=0 dh=35 dv=0
EndChar

StartChar: P
Encoding: 80 80 17
Width: 563
Flags: HMW
HStem: 0 21G<57.5 65 304 311.5> 658 42<326 361>
VStem: 134 79 461 72<457 538>
LayerCount: 2
Fore
SplineSet
134 648 m 1,0,-1
 50 670 l 1,1,2
 50 700 50 700 65 700 c 0,3,4
 74 700 74 700 168 696 c 1,5,-1
 326 700 l 1,6,7
 421 700 421 700 477 642 c 128,-1,8
 533 584 533 584 533 499.5 c 0,9,10
 533 415 533 415 468 354 c 128,-1,11
 403 293 403 293 282 282 c 2,12,-1
 215 276 l 1,13,-1
 208 52 l 1,14,-1
 319 30 l 1,15,16
 319 0 319 0 304 0 c 0,17,18
 261 0 261 0 168 4 c 1,19,-1
 65 0 l 2,20,21
 50 0 50 0 50 30 c 1,22,-1
 134 52 l 1,23,-1
 134 648 l 1,0,-1
308 658 m 1,24,-1
 208 648 l 1,25,-1
 218 350 l 1,26,-1
 217 331 l 1,27,-1
 290 327 l 1,28,29
 374 327 374 327 417.5 378 c 128,-1,30
 461 429 461 429 461 496.5 c 0,31,32
 461 564 461 564 422 611 c 128,-1,33
 383 658 383 658 308 658 c 1,24,-1
EndSplineSet
Position2: "'cpsp' Capital Spacing in Latin lookup 0 subtable" dx=7 dy=0 dh=35 dv=0
EndChar

StartChar: C
Encoding: 67 67 18
Width: 642
Flags: HMW
HStem: -12 53<303.5 403.5 303.5 406.5> 653 59<348.5 397>
VStem: 40 88<247.5 415 247.5 471>
LayerCount: 2
Fore
SplineSet
592 194 m 1,0,-1
 584 51 l 1,1,2
 500 -12 500 -12 359 -12 c 0,3,4
 218 -12 218 -12 129 82 c 128,-1,5
 40 176 40 176 40 349.5 c 0,6,7
 40 523 40 523 136 617.5 c 128,-1,8
 232 712 232 712 379 712 c 0,9,10
 496 712 496 712 585 652 c 1,11,-1
 559 503 l 1,12,13
 514 503 514 503 514 517 c 2,14,-1
 514 628 l 1,15,16
 451 653 451 653 376 653 c 0,17,18
 301 653 301 653 229 629 c 1,19,20
 182 594 182 594 155 520 c 128,-1,21
 128 446 128 446 128 352 c 0,22,23
 128 201 128 201 196 121 c 128,-1,24
 264 41 264 41 373 41 c 0,25,26
 463 41 463 41 524 78 c 1,27,-1
 547 180 l 2,28,29
 551 194 551 194 592 194 c 1,0,-1
EndSplineSet
Position2: "'cpsp' Capital Spacing in Latin lookup 0 subtable" dx=7 dy=0 dh=35 dv=0
EndChar

StartChar: G
Encoding: 71 71 19
Width: 665
Flags: HMW
HStem: -12 53<296.5 393 296.5 396.5> 311 49 653 59<348.5 399.5>
VStem: 40 88<247.5 415 247.5 471>
LayerCount: 2
Fore
SplineSet
596 111 m 1,0,-1
 605 72 l 1,1,2
 488 -12 488 -12 350.5 -12 c 0,3,4
 213 -12 213 -12 126.5 82 c 128,-1,5
 40 176 40 176 40 349.5 c 0,6,7
 40 523 40 523 136 617.5 c 128,-1,8
 232 712 232 712 379 712 c 0,9,10
 505 712 505 712 600 652 c 1,11,-1
 574 503 l 1,12,13
 529 503 529 503 529 517 c 2,14,-1
 529 628 l 1,15,16
 458 653 458 653 379.5 653 c 0,17,18
 301 653 301 653 229 629 c 1,19,20
 182 594 182 594 155 520 c 128,-1,21
 128 446 128 446 128 352 c 0,22,23
 128 201 128 201 193.5 121 c 128,-1,24
 259 41 259 41 363 41 c 0,25,26
 408 41 408 41 455.5 56.5 c 128,-1,27
 503 72 503 72 536 97 c 1,28,-1
 519 306 l 1,29,-1
 334 317 l 1,30,-1
 334 360 l 1,31,-1
 596 360 l 1,32,-1
 596 111 l 1,0,-1
EndSplineSet
Position2: "'cpsp' Capital Spacing in Latin lookup 0 subtable" dx=7 dy=0 dh=35 dv=0
EndChar

StartChar: A
Encoding: 65 65 20
Width: 660
Flags: HMW
HStem: 0 21G<-5.5 2 204 211.5 434.5 442 660 667.5> 222 51 680 20G<292 368 368 368>
LayerCount: 2
Fore
SplineSet
124 52 m 1,0,-1
 219 30 l 1,1,2
 219 0 219 0 204 0 c 0,3,4
 201 0 201 0 93 4 c 1,5,-1
 2 0 l 2,6,7
 -13 0 -13 0 -13 30 c 1,8,-1
 62 52 l 1,9,-1
 292 700 l 1,10,-1
 368 700 l 1,11,-1
 600 52 l 1,12,-1
 675 30 l 1,13,14
 675 0 675 0 660 0 c 0,15,16
 648 0 648 0 561 4 c 1,17,-1
 442 0 l 2,18,19
 427 0 427 0 427 30 c 1,20,-1
 517 52 l 1,21,-1
 454 229 l 1,22,-1
 179 215 l 1,23,-1
 124 52 l 1,0,-1
317 619 m 1,24,-1
 199 273 l 1,25,-1
 439 273 l 1,26,-1
 317 619 l 1,24,-1
EndSplineSet
Position2: "'cpsp' Capital Spacing in Latin lookup 0 subtable" dx=7 dy=0 dh=35 dv=0
EndChar

StartChar: guillemotleft
Encoding: 171 171 21
Width: 460
Flags: HMW
HStem: 10 21G<218 218 381 381> 424 20G<218 218 381 381>
LayerCount: 2
Fore
SplineSet
30 213 m 1,0,-1
 30 241 l 1,1,-1
 218 444 l 1,2,-1
 247 420 l 1,3,-1
 117 227 l 1,4,-1
 247 34 l 1,5,-1
 218 10 l 1,6,-1
 30 213 l 1,0,-1
193 213 m 1,7,-1
 193 241 l 1,8,-1
 381 444 l 1,9,-1
 410 420 l 1,10,-1
 280 227 l 1,11,-1
 410 34 l 1,12,-1
 381 10 l 1,13,-1
 193 213 l 1,7,-1
EndSplineSet
Position2: "'case' Case-Sensitive Forms in Latin lookup 1 per glyph data 0" dx=0 dy=70 dh=0 dv=0
EndChar

StartChar: guillemotright
Encoding: 187 187 22
Width: 460
Flags: HMW
HStem: 10 21G<79 79 242 242> 424 20G<79 79 242 242>
LayerCount: 2
Fore
SplineSet
430 241 m 1,0,-1
 430 213 l 1,1,-1
 242 10 l 1,2,-1
 213 34 l 1,3,-1
 343 227 l 1,4,-1
 213 420 l 1,5,-1
 242 444 l 1,6,-1
 430 241 l 1,0,-1
267 241 m 1,7,-1
 267 213 l 1,8,-1
 79 10 l 1,9,-1
 50 34 l 1,10,-1
 180 227 l 1,11,-1
 50 420 l 1,12,-1
 79 444 l 1,13,-1
 267 241 l 1,7,-1
EndSplineSet
Position2: "'case' Case-Sensitive Forms in Latin lookup 1 per glyph data 0" dx=0 dy=70 dh=0 dv=0
EndChar

StartChar: V
Encoding: 86 86 23
Width: 643
Flags: HMW
HStem: 0 21G<290 360 290 290> 680 20G<7.5 15 222 229.5 438.5 446 628 628.5>
LayerCount: 2
Fore
SplineSet
237 670 m 1,0,-1
 153 648 l 1,1,-1
 338 95 l 1,2,-1
 516 648 l 1,3,-1
 431 670 l 1,4,5
 431 700 431 700 446 700 c 2,6,-1
 550 696 l 1,7,-1
 628 700 l 1,8,9
 643 699 643 699 643 670 c 1,10,-1
 578 648 l 1,11,-1
 360 0 l 1,12,-1
 290 0 l 1,13,-1
 65 648 l 1,14,-1
 0 670 l 1,15,16
 0 700 0 700 14 700 c 0,17,18
 28 700 28 700 115 696 c 1,19,-1
 222 700 l 2,20,21
 237 700 237 700 237 670 c 1,0,-1
EndSplineSet
Position2: "'cpsp' Capital Spacing in Latin lookup 0 subtable" dx=7 dy=0 dh=35 dv=0
EndChar

StartChar: M
Encoding: 77 77 24
Width: 908
Flags: HMW
HStem: 0 21G<32.5 40 248 256 629 637 868 875.5> 680 20G<66.5 74 834 841.5>
VStem: 125 55 705 77
LayerCount: 2
Fore
SplineSet
138 4 m 1,0,-1
 40 0 l 2,1,2
 25 0 25 0 25 30 c 1,3,-1
 110 52 l 1,4,-1
 141 647 l 1,5,-1
 59 669 l 1,6,7
 59 700 59 700 74 700 c 0,8,9
 113 700 113 700 236 696 c 1,10,-1
 445 184 l 1,11,-1
 676 696 l 1,12,-1
 834 700 l 2,13,14
 849 700 849 700 849 669 c 1,15,-1
 767 647 l 1,16,-1
 798 52 l 1,17,-1
 883 30 l 1,18,19
 883 0 883 0 868 0 c 0,20,21
 837 0 837 0 750 4 c 1,22,-1
 637 0 l 2,23,24
 621 0 621 0 621 30 c 1,25,-1
 716 52 l 1,26,-1
 695 601 l 1,27,-1
 442 50 l 1,28,-1
 423 50 l 1,29,-1
 192 594 l 1,30,-1
 169 52 l 1,31,-1
 264 30 l 1,32,33
 264 0 264 0 248 0 c 2,34,-1
 138 4 l 1,0,-1
EndSplineSet
Position2: "'cpsp' Capital Spacing in Latin lookup 0 subtable" dx=7 dy=0 dh=35 dv=0
EndChar

StartChar: W
Encoding: 87 87 25
Width: 920
Flags: HMW
HStem: 0 21G<247 323 247 247 599 675 599 599> 680 20G<7.5 15 222 229.5 716.5 724 905 905.5>
LayerCount: 2
Fore
SplineSet
237 670 m 1,0,-1
 152 648 l 1,1,-1
 297 113 l 1,2,-1
 463 651 l 1,3,-1
 498 651 l 1,4,-1
 498 584 l 1,5,-1
 645 113 l 1,6,-1
 794 648 l 1,7,-1
 709 670 l 1,8,9
 709 700 709 700 724 700 c 2,10,-1
 827 696 l 1,11,-1
 905 700 l 1,12,13
 920 698 920 698 920 670 c 1,14,-1
 855 648 l 1,15,-1
 675 0 l 1,16,-1
 599 0 l 1,17,-1
 460 447 l 1,18,-1
 323 0 l 1,19,-1
 247 0 l 1,20,-1
 65 648 l 1,21,-1
 0 670 l 1,22,23
 0 700 0 700 14 700 c 0,24,25
 28 700 28 700 115 696 c 1,26,-1
 222 700 l 2,27,28
 237 700 237 700 237 670 c 1,0,-1
EndSplineSet
Position2: "'cpsp' Capital Spacing in Latin lookup 0 subtable" dx=7 dy=0 dh=35 dv=0
EndChar

StartChar: D
Encoding: 68 68 26
Width: 748
Flags: HMW
HStem: -6 21G<364 464> 0 21G<57.5 65> 1 40 658 54<380 444> 680 20G<57.5 65>
VStem: 134 79 620 88<246 454.5>
LayerCount: 2
Fore
SplineSet
134 648 m 1,0,-1
 50 670 l 1,1,2
 50 700 50 700 65 700 c 0,3,4
 82 700 82 700 176 696 c 1,5,-1
 380 712 l 1,6,7
 523 712 523 712 615.5 621.5 c 128,-1,8
 708 531 708 531 708 355.5 c 0,9,10
 708 180 708 180 614.5 87 c 128,-1,11
 521 -6 521 -6 364 -6 c 1,12,-1
 176 8 l 1,13,-1
 65 0 l 1,14,15
 50 0 50 0 50 30 c 1,16,-1
 134 52 l 1,17,-1
 134 648 l 1,0,-1
374 41 m 0,18,19
 484 41 484 41 552 120 c 128,-1,20
 620 199 620 199 620 349.5 c 0,21,22
 620 500 620 500 552 579 c 128,-1,23
 484 658 484 658 374 658 c 0,24,25
 288 658 288 658 208 639 c 1,26,-1
 218 350 l 1,27,-1
 208 61 l 1,28,29
 298 41 298 41 374 41 c 0,18,19
EndSplineSet
Position2: "'cpsp' Capital Spacing in Latin lookup 0 subtable" dx=7 dy=0 dh=35 dv=0
EndChar

StartChar: Y
Encoding: 89 89 27
Width: 580
Flags: HMW
HStem: 0 21G<161.5 169 427 434.5> 680 20G<7.5 15 217 224.5 375.5 383 565 565.5>
VStem: 259 78<52 277 277 277>
LayerCount: 2
Fore
SplineSet
232 670 m 1,0,-1
 147 648 l 1,1,-1
 307 321 l 1,2,-1
 450 648 l 1,3,-1
 368 670 l 1,4,5
 368 700 368 700 383 700 c 2,6,-1
 487 696 l 1,7,-1
 565 700 l 1,8,9
 580 699 580 699 580 670 c 1,10,-1
 515 648 l 1,11,-1
 337 279 l 1,12,-1
 337 52 l 1,13,-1
 442 30 l 1,14,15
 442 0 442 0 427 0 c 0,16,17
 394 0 394 0 301 4 c 1,18,-1
 169 0 l 2,19,20
 154 0 154 0 154 30 c 1,21,-1
 259 52 l 1,22,-1
 259 277 l 1,23,-1
 65 648 l 1,24,-1
 0 670 l 1,25,26
 0 700 0 700 15 700 c 0,27,28
 25 700 25 700 112 696 c 1,29,-1
 217 700 l 2,30,31
 232 700 232 700 232 670 c 1,0,-1
EndSplineSet
Position2: "'cpsp' Capital Spacing in Latin lookup 0 subtable" dx=7 dy=0 dh=35 dv=0
EndChar

StartChar: X
Encoding: 88 88 28
Width: 696
Flags: HMW
HStem: 0 21G<22 29 239 246.5 423.5 431 666 673.5> 680 20G<43.5 51 266 273.5 448.5 456 645 645.5>
LayerCount: 2
Fore
SplineSet
416 30 m 1,0,-1
 508 52 l 1,1,-1
 339 305 l 1,2,-1
 162 52 l 1,3,-1
 254 30 l 1,4,5
 254 0 254 0 239 0 c 2,6,-1
 118 4 l 1,7,-1
 29 0 l 2,8,9
 15 0 15 0 15 30 c 1,10,-1
 90 52 l 1,11,-1
 307 353 l 1,12,-1
 111 648 l 1,13,-1
 36 670 l 1,14,15
 36 700 36 700 51 700 c 0,16,17
 72 700 72 700 159 696 c 1,18,-1
 266 700 l 2,19,20
 281 700 281 700 281 670 c 1,21,-1
 204 648 l 1,22,-1
 359 414 l 1,23,-1
 523 648 l 1,24,-1
 441 670 l 1,25,26
 441 700 441 700 456 700 c 2,27,-1
 567 696 l 1,28,-1
 645 700 l 1,29,30
 660 699 660 699 660 670 c 1,31,-1
 595 648 l 1,32,-1
 392 365 l 1,33,-1
 601 52 l 1,34,-1
 681 30 l 1,35,36
 681 0 681 0 666 0 c 0,37,38
 646 0 646 0 559 4 c 1,39,-1
 431 0 l 2,40,41
 416 0 416 0 416 30 c 1,0,-1
EndSplineSet
Position2: "'cpsp' Capital Spacing in Latin lookup 0 subtable" dx=7 dy=0 dh=35 dv=0
EndChar

StartChar: dotlessi
Encoding: 305 305 29
Width: 309
Flags: HMW
HStem: 0 21G<64 73 237 245.5> 469 20G<64 73 237 245.5>
VStem: 119 71<45 444 45 444>
LayerCount: 2
Fore
SplineSet
119 444 m 1,0,-1
 55 458 l 1,1,2
 55 489 55 489 73 489 c 0,3,4
 88 489 88 489 156 486 c 1,5,-1
 237 489 l 2,6,7
 254 489 254 489 254 459 c 1,8,-1
 190 444 l 1,9,-1
 190 45 l 1,10,-1
 254 31 l 1,11,12
 254 0 254 0 237 0 c 1,13,-1
 156 6 l 1,14,-1
 73 0 l 1,15,16
 55 0 55 0 55 31 c 1,17,-1
 119 45 l 1,18,-1
 119 444 l 1,0,-1
EndSplineSet
EndChar

StartChar: tilde
Encoding: 732 732 30
Width: 416
Flags: HMW
HStem: 554 21G<67 67> 557 64<263.5 281.5> 584 64<134.5 152.5> 631 20G<349 349>
LayerCount: 2
Fore
SplineSet
349 651 m 1,0,-1
 366 632 l 1,1,2
 323 557 323 557 265 557 c 0,3,4
 241 557 241 557 196.5 570.5 c 128,-1,5
 152 584 152 584 125.5 584 c 0,6,7
 99 584 99 584 67 554 c 1,8,-1
 50 573 l 1,9,10
 93 648 93 648 151 648 c 0,11,12
 175 648 175 648 219.5 634.5 c 128,-1,13
 264 621 264 621 290.5 621 c 0,14,15
 317 621 317 621 349 651 c 1,0,-1
EndSplineSet
EndChar

StartChar: dieresis
Encoding: 168 168 31
Width: 374
Flags: HMW
HStem: 544 21G<89 110.5 237 258.5> 639 20G<118 137.5 266 285.5>
VStem: 70 87<593.5 609.5> 218 87<593.5 609.5>
LayerCount: 2
Fore
SplineSet
126 659 m 0,0,1
 157 659 157 659 157 606 c 0,2,3
 157 571 157 571 151 553 c 1,4,5
 119 544 119 544 102 544 c 0,6,7
 70 544 70 544 70 596 c 0,8,9
 70 631 70 631 77 652 c 1,10,11
 110 659 110 659 126 659 c 0,0,1
274 659 m 0,12,13
 305 659 305 659 305 606 c 0,14,15
 305 571 305 571 299 553 c 1,16,17
 267 544 267 544 250 544 c 0,18,19
 218 544 218 544 218 596 c 0,20,21
 218 631 218 631 225 652 c 1,22,23
 258 659 258 659 274 659 c 0,12,13
EndSplineSet
EndChar

StartChar: grave
Encoding: 96 96 32
Width: 317
Flags: HMW
HStem: 518 21G<256 256> 660 20G
LayerCount: 2
Fore
SplineSet
267 537 m 1,0,-1
 256 518 l 1,1,2
 130 553 130 553 55 601 c 0,3,4
 50 604 50 604 50 615 c 128,-1,5
 50 626 50 626 60 650 c 128,-1,6
 70 674 70 674 75 680 c 1,7,8
 167.042553191 605.489361702 167.042553191 605.489361702 240 555.5 c 2,9,-1
 267 537 l 1,0,-1
EndSplineSet
EndChar

StartChar: Eacute
Encoding: 201 201 35
Width: 581
Flags: HMW
HStem: 0 21G<47.5 55 504 514> 4 51 332 50 647 51 680 20G<47.5 55 498 507> 762 21G<193 193> 904 20G
VStem: 124 78
LayerCount: 2
Fore
SplineSet
463 555 m 2,0,-1
 463 649 l 1,1,-1
 198 646 l 1,2,-1
 207 382 l 1,3,-1
 463 382 l 1,4,-1
 463 339 l 1,5,-1
 207 326 l 1,6,-1
 198 55 l 1,7,-1
 473 55 l 1,8,-1
 499 149 l 1,9,10
 499 163 499 163 541 163 c 1,11,-1
 533 12 l 2,12,13
 532 0 532 0 504 0 c 2,14,-1
 160 8 l 1,15,-1
 55 0 l 1,16,17
 40 0 40 0 40 30 c 1,18,-1
 124 52 l 1,19,-1
 124 648 l 1,20,-1
 40 670 l 1,21,22
 40 700 40 700 55 700 c 0,23,24
 64 700 64 700 158 696 c 1,25,-1
 498 700 l 2,26,27
 529 700 529 700 530 690 c 1,28,-1
 506 541 l 1,29,30
 463 541 463 541 463 555 c 2,0,-1
193 762 m 1,31,-1
 182 781 l 1,32,33
 279 847 279 847 374 924 c 1,34,35
 379 918 379 918 389 894 c 128,-1,36
 399 870 399 870 399 859 c 0,37,38
 399 848 399 848 394 845 c 0,39,40
 319 797 319 797 193 762 c 1,31,-1
EndSplineSet
Position2: "'cpsp' Capital Spacing in Latin lookup 0 subtable" dx=7 dy=0 dh=35 dv=0
EndChar

StartChar: Iacute
Encoding: 205 205 36
Width: 326
Flags: HMW
HStem: 0 21G<46.5 54 269 276.5> 680 20G<46.5 54 269 276.5> 762 21G<66 66> 904 20G
VStem: 122 78
LayerCount: 2
Fore
SplineSet
125 648 m 1,0,-1
 39 670 l 1,1,2
 39 700 39 700 54 700 c 0,3,4
 72 700 72 700 166 696 c 1,5,-1
 269 700 l 2,6,7
 284 700 284 700 284 670 c 1,8,-1
 198 648 l 1,9,-1
 203 350 l 1,10,-1
 198 52 l 1,11,-1
 284 30 l 1,12,13
 284 0 284 0 269 0 c 0,14,15
 259 0 259 0 166 4 c 1,16,-1
 54 0 l 2,17,18
 39 0 39 0 39 30 c 1,19,-1
 125 52 l 1,20,-1
 120 350 l 1,21,-1
 125 648 l 1,0,-1
66 762 m 1,22,-1
 55 781 l 1,23,24
 152 847 152 847 247 924 c 1,25,26
 252 918 252 918 262 894 c 128,-1,27
 272 870 272 870 272 859 c 0,28,29
 272 848 272 848 267 845 c 0,30,31
 192 797 192 797 66 762 c 1,22,-1
EndSplineSet
Position2: "'cpsp' Capital Spacing in Latin lookup 0 subtable" dx=7 dy=0 dh=35 dv=0
EndChar

StartChar: Oacute
Encoding: 211 211 37
Width: 727
Flags: HMW
HStem: -12 48<293.5 433 293.5 453> 658 54<338.5 433> 762 21G<266 266> 904 20G
VStem: 30 88<246 416 246 471> 609 88<246 454.5>
LayerCount: 2
Fore
SplineSet
604.5 621.5 m 128,-1,1
 697 531 697 531 697 355 c 128,-1,2
 697 179 697 179 603 83.5 c 128,-1,3
 509 -12 509 -12 358.5 -12 c 128,-1,4
 208 -12 208 -12 119 82 c 128,-1,5
 30 176 30 176 30 349.5 c 128,-1,6
 30 523 30 523 126 617.5 c 128,-1,7
 222 712 222 712 367 712 c 128,-1,0
 512 712 512 712 604.5 621.5 c 128,-1,1
118 352 m 0,8,9
 118 199 118 199 186 117.5 c 128,-1,10
 254 36 254 36 363.5 36 c 128,-1,11
 473 36 473 36 541 117.5 c 128,-1,12
 609 199 609 199 609 349.5 c 128,-1,13
 609 500 609 500 541 579 c 128,-1,14
 473 658 473 658 363 658 c 0,15,16
 291 658 291 658 219 634 c 1,17,18
 172 599 172 599 145 523.5 c 128,-1,19
 118 448 118 448 118 352 c 0,8,9
266 762 m 1,20,-1
 255 781 l 1,21,22
 352 847 352 847 447 924 c 1,23,24
 452 918 452 918 462 894 c 128,-1,25
 472 870 472 870 472 859 c 128,-1,26
 472 848 472 848 467 845 c 0,27,28
 392 797 392 797 266 762 c 1,20,-1
EndSplineSet
Position2: "'cpsp' Capital Spacing in Latin lookup 0 subtable" dx=7 dy=0 dh=35 dv=0
EndChar

StartChar: Yacute
Encoding: 221 221 38
Width: 560
Flags: HMW
HStem: 0 21G<151.5 159 417 424.5> 680 20G<-2.5 5 207 214.5 365.5 373 555 555.5> 762 21G<182 182> 904 20G
VStem: 249 78<52 277 277 277>
LayerCount: 2
Fore
SplineSet
222 670 m 1,0,-1
 137 648 l 1,1,-1
 297 321 l 1,2,-1
 440 648 l 1,3,-1
 358 670 l 1,4,5
 358 700 358 700 373 700 c 2,6,-1
 477 696 l 1,7,-1
 555 700 l 1,8,9
 570 699 570 699 570 670 c 1,10,-1
 505 648 l 1,11,-1
 327 279 l 1,12,-1
 327 52 l 1,13,-1
 432 30 l 1,14,15
 432 0 432 0 417 0 c 0,16,17
 384 0 384 0 291 4 c 1,18,-1
 159 0 l 2,19,20
 144 0 144 0 144 30 c 1,21,-1
 249 52 l 1,22,-1
 249 277 l 1,23,-1
 55 648 l 1,24,-1
 -10 670 l 1,25,26
 -10 700 -10 700 5 700 c 0,27,28
 15 700 15 700 102 696 c 1,29,-1
 207 700 l 2,30,31
 222 700 222 700 222 670 c 1,0,-1
182 762 m 1,32,-1
 171 781 l 1,33,34
 268 847 268 847 363 924 c 1,35,36
 368 918 368 918 378 894 c 128,-1,37
 388 870 388 870 388 859 c 0,38,39
 388 848 388 848 383 845 c 0,40,41
 308 797 308 797 182 762 c 1,32,-1
EndSplineSet
Position2: "'cpsp' Capital Spacing in Latin lookup 0 subtable" dx=7 dy=0 dh=35 dv=0
EndChar

StartChar: Ydieresis
Encoding: 376 376 39
Width: 560
Flags: HMW
HStem: 0 21G<151.5 159 417 424.5> 680 20G<-2.5 5 207 214.5 365.5 373 555 555.5> 788 21G<201 222.5 349 370.5> 883 20G<230 249.5 378 397.5>
VStem: 182 87<837.5 853.5> 249 78<52 277 277 277> 330 87<837.5 853.5>
LayerCount: 2
Fore
SplineSet
222 670 m 1,0,-1
 137 648 l 1,1,-1
 297 321 l 1,2,-1
 440 648 l 1,3,-1
 358 670 l 1,4,5
 358 700 358 700 373 700 c 2,6,-1
 477 696 l 1,7,-1
 555 700 l 1,8,9
 570 699 570 699 570 670 c 1,10,-1
 505 648 l 1,11,-1
 327 279 l 1,12,-1
 327 52 l 1,13,-1
 432 30 l 1,14,15
 432 0 432 0 417 0 c 0,16,17
 384 0 384 0 291 4 c 1,18,-1
 159 0 l 2,19,20
 144 0 144 0 144 30 c 1,21,-1
 249 52 l 1,22,-1
 249 277 l 1,23,-1
 55 648 l 1,24,-1
 -10 670 l 1,25,26
 -10 700 -10 700 5 700 c 0,27,28
 15 700 15 700 102 696 c 1,29,-1
 207 700 l 2,30,31
 222 700 222 700 222 670 c 1,0,-1
238 903 m 0,32,33
 269 903 269 903 269 850 c 0,34,35
 269 815 269 815 263 797 c 1,36,37
 231 788 231 788 214 788 c 0,38,39
 182 788 182 788 182 840 c 0,40,41
 182 875 182 875 189 896 c 1,42,43
 222 903 222 903 238 903 c 0,32,33
386 903 m 0,44,45
 417 903 417 903 417 850 c 0,46,47
 417 815 417 815 411 797 c 1,48,49
 379 788 379 788 362 788 c 0,50,51
 330 788 330 788 330 840 c 0,52,53
 330 875 330 875 337 896 c 1,54,55
 370 903 370 903 386 903 c 0,44,45
EndSplineSet
Position2: "'cpsp' Capital Spacing in Latin lookup 0 subtable" dx=7 dy=0 dh=35 dv=0
EndChar

StartChar: Edieresis
Encoding: 203 203 40
Width: 581
Flags: HMW
HStem: 0 21G<47.5 55 504 514> 4 51 332 50 647 51 680 20G<47.5 55 498 507> 788 21G<192 213.5 340 361.5> 883 20G<221 240.5 369 388.5>
VStem: 124 78 173 87<837.5 853.5> 321 87<837.5 853.5>
LayerCount: 2
Fore
SplineSet
463 555 m 2,0,-1
 463 649 l 1,1,-1
 198 646 l 1,2,-1
 207 382 l 1,3,-1
 463 382 l 1,4,-1
 463 339 l 1,5,-1
 207 326 l 1,6,-1
 198 55 l 1,7,-1
 473 55 l 1,8,-1
 499 149 l 1,9,10
 499 163 499 163 541 163 c 1,11,-1
 533 12 l 2,12,13
 532 0 532 0 504 0 c 2,14,-1
 160 8 l 1,15,-1
 55 0 l 1,16,17
 40 0 40 0 40 30 c 1,18,-1
 124 52 l 1,19,-1
 124 648 l 1,20,-1
 40 670 l 1,21,22
 40 700 40 700 55 700 c 0,23,24
 64 700 64 700 158 696 c 1,25,-1
 498 700 l 2,26,27
 529 700 529 700 530 690 c 1,28,-1
 506 541 l 1,29,30
 463 541 463 541 463 555 c 2,0,-1
229 903 m 0,31,32
 260 903 260 903 260 850 c 0,33,34
 260 815 260 815 254 797 c 1,35,36
 222 788 222 788 205 788 c 0,37,38
 173 788 173 788 173 840 c 0,39,40
 173 875 173 875 180 896 c 1,41,42
 213 903 213 903 229 903 c 0,31,32
377 903 m 0,43,44
 408 903 408 903 408 850 c 0,45,46
 408 815 408 815 402 797 c 1,47,48
 370 788 370 788 353 788 c 0,49,50
 321 788 321 788 321 840 c 0,51,52
 321 875 321 875 328 896 c 1,53,54
 361 903 361 903 377 903 c 0,43,44
EndSplineSet
Position2: "'cpsp' Capital Spacing in Latin lookup 0 subtable" dx=7 dy=0 dh=35 dv=0
EndChar

StartChar: Idieresis
Encoding: 207 207 41
Width: 326
Flags: HMW
HStem: 0 21G<46.5 54 269 276.5> 680 20G<46.5 54 269 276.5> 788 21G<65 86.5 213 234.5> 883 20G<94 113.5 242 261.5>
VStem: 46 87<837.5 853.5> 122 78 194 87<837.5 853.5>
LayerCount: 2
Fore
SplineSet
125 648 m 1,0,-1
 39 670 l 1,1,2
 39 700 39 700 54 700 c 0,3,4
 72 700 72 700 166 696 c 1,5,-1
 269 700 l 2,6,7
 284 700 284 700 284 670 c 1,8,-1
 198 648 l 1,9,-1
 203 350 l 1,10,-1
 198 52 l 1,11,-1
 284 30 l 1,12,13
 284 0 284 0 269 0 c 0,14,15
 259 0 259 0 166 4 c 1,16,-1
 54 0 l 2,17,18
 39 0 39 0 39 30 c 1,19,-1
 125 52 l 1,20,-1
 120 350 l 1,21,-1
 125 648 l 1,0,-1
102 903 m 0,22,23
 133 903 133 903 133 850 c 0,24,25
 133 815 133 815 127 797 c 1,26,27
 95 788 95 788 78 788 c 0,28,29
 46 788 46 788 46 840 c 0,30,31
 46 875 46 875 53 896 c 1,32,33
 86 903 86 903 102 903 c 0,22,23
250 903 m 0,34,35
 281 903 281 903 281 850 c 0,36,37
 281 815 281 815 275 797 c 1,38,39
 243 788 243 788 226 788 c 0,40,41
 194 788 194 788 194 840 c 0,42,43
 194 875 194 875 201 896 c 1,44,45
 234 903 234 903 250 903 c 0,34,35
EndSplineSet
Position2: "'cpsp' Capital Spacing in Latin lookup 0 subtable" dx=7 dy=0 dh=35 dv=0
EndChar

StartChar: Odieresis
Encoding: 214 214 42
Width: 727
Flags: HMW
HStem: -12 48<293.5 433 293.5 453> 658 54<338.5 433> 788 21G<265 286.5 413 434.5> 883 20G<294 313.5 442 461.5>
VStem: 30 88<246 416 246 471> 246 87<837.5 853.5> 394 87<837.5 853.5> 609 88<246 454.5>
LayerCount: 2
Fore
SplineSet
604.5 621.5 m 128,-1,1
 697 531 697 531 697 355 c 128,-1,2
 697 179 697 179 603 83.5 c 128,-1,3
 509 -12 509 -12 358.5 -12 c 128,-1,4
 208 -12 208 -12 119 82 c 128,-1,5
 30 176 30 176 30 349.5 c 128,-1,6
 30 523 30 523 126 617.5 c 128,-1,7
 222 712 222 712 367 712 c 128,-1,0
 512 712 512 712 604.5 621.5 c 128,-1,1
118 352 m 0,8,9
 118 199 118 199 186 117.5 c 128,-1,10
 254 36 254 36 363.5 36 c 128,-1,11
 473 36 473 36 541 117.5 c 128,-1,12
 609 199 609 199 609 349.5 c 128,-1,13
 609 500 609 500 541 579 c 128,-1,14
 473 658 473 658 363 658 c 0,15,16
 291 658 291 658 219 634 c 1,17,18
 172 599 172 599 145 523.5 c 128,-1,19
 118 448 118 448 118 352 c 0,8,9
302 903 m 0,20,21
 333 903 333 903 333 850 c 0,22,23
 333 815 333 815 327 797 c 1,24,25
 295 788 295 788 278 788 c 0,26,27
 246 788 246 788 246 840 c 0,28,29
 246 875 246 875 253 896 c 1,30,31
 286 903 286 903 302 903 c 0,20,21
450 903 m 0,32,33
 481 903 481 903 481 850 c 0,34,35
 481 815 481 815 475 797 c 1,36,37
 443 788 443 788 426 788 c 0,38,39
 394 788 394 788 394 840 c 0,40,41
 394 875 394 875 401 896 c 1,42,43
 434 903 434 903 450 903 c 0,32,33
EndSplineSet
Position2: "'cpsp' Capital Spacing in Latin lookup 0 subtable" dx=7 dy=0 dh=35 dv=0
EndChar

StartChar: Agrave
Encoding: 192 192 43
Width: 660
Flags: HMW
HStem: 0 21G<-5.5 2 204 211.5 434.5 442 660 667.5> 222 51 680 20G<292 368 368 368> 762 21G<447 447> 904 20G
LayerCount: 2
Fore
SplineSet
124 52 m 1,0,-1
 219 30 l 1,1,2
 219 0 219 0 204 0 c 0,3,4
 201 0 201 0 93 4 c 1,5,-1
 2 0 l 2,6,7
 -13 0 -13 0 -13 30 c 1,8,-1
 62 52 l 1,9,-1
 292 700 l 1,10,-1
 368 700 l 1,11,-1
 600 52 l 1,12,-1
 675 30 l 1,13,14
 675 0 675 0 660 0 c 0,15,16
 648 0 648 0 561 4 c 1,17,-1
 442 0 l 2,18,19
 427 0 427 0 427 30 c 1,20,-1
 517 52 l 1,21,-1
 454 229 l 1,22,-1
 179 215 l 1,23,-1
 124 52 l 1,0,-1
317 619 m 1,24,-1
 199 273 l 1,25,-1
 439 273 l 1,26,-1
 317 619 l 1,24,-1
458 781 m 1,27,-1
 447 762 l 1,28,29
 321 797 321 797 246 845 c 0,30,31
 241 848 241 848 241 859 c 128,-1,32
 241 870 241 870 251 894 c 128,-1,33
 261 918 261 918 266 924 c 1,34,35
 358.042553191 849.489361702 358.042553191 849.489361702 431 799.5 c 2,36,-1
 458 781 l 1,27,-1
EndSplineSet
Position2: "'cpsp' Capital Spacing in Latin lookup 0 subtable" dx=7 dy=0 dh=35 dv=0
EndChar

StartChar: Egrave
Encoding: 200 200 44
Width: 581
Flags: HMW
HStem: 0 21G<47.5 55 504 514> 4 51 332 50 647 51 680 20G<47.5 55 498 507> 762 21G<388 388> 904 20G
VStem: 124 78
LayerCount: 2
Fore
SplineSet
463 555 m 2,0,-1
 463 649 l 1,1,-1
 198 646 l 1,2,-1
 207 382 l 1,3,-1
 463 382 l 1,4,-1
 463 339 l 1,5,-1
 207 326 l 1,6,-1
 198 55 l 1,7,-1
 473 55 l 1,8,-1
 499 149 l 1,9,10
 499 163 499 163 541 163 c 1,11,-1
 533 12 l 2,12,13
 532 0 532 0 504 0 c 2,14,-1
 160 8 l 1,15,-1
 55 0 l 1,16,17
 40 0 40 0 40 30 c 1,18,-1
 124 52 l 1,19,-1
 124 648 l 1,20,-1
 40 670 l 1,21,22
 40 700 40 700 55 700 c 0,23,24
 64 700 64 700 158 696 c 1,25,-1
 498 700 l 2,26,27
 529 700 529 700 530 690 c 1,28,-1
 506 541 l 1,29,30
 463 541 463 541 463 555 c 2,0,-1
399 781 m 1,31,-1
 388 762 l 1,32,33
 262 797 262 797 187 845 c 0,34,35
 182 848 182 848 182 859 c 128,-1,36
 182 870 182 870 192 894 c 128,-1,37
 202 918 202 918 207 924 c 1,38,39
 299.042553191 849.489361702 299.042553191 849.489361702 372 799.5 c 2,40,-1
 399 781 l 1,31,-1
EndSplineSet
Position2: "'cpsp' Capital Spacing in Latin lookup 0 subtable" dx=7 dy=0 dh=35 dv=0
EndChar

StartChar: Igrave
Encoding: 204 204 45
Width: 326
Flags: HMW
HStem: 0 21G<46.5 54 269 276.5> 680 20G<46.5 54 269 276.5> 762 21G<261 261> 904 20G
VStem: 122 78
LayerCount: 2
Fore
SplineSet
125 648 m 1,0,-1
 39 670 l 1,1,2
 39 700 39 700 54 700 c 0,3,4
 72 700 72 700 166 696 c 1,5,-1
 269 700 l 2,6,7
 284 700 284 700 284 670 c 1,8,-1
 198 648 l 1,9,-1
 203 350 l 1,10,-1
 198 52 l 1,11,-1
 284 30 l 1,12,13
 284 0 284 0 269 0 c 0,14,15
 259 0 259 0 166 4 c 1,16,-1
 54 0 l 2,17,18
 39 0 39 0 39 30 c 1,19,-1
 125 52 l 1,20,-1
 120 350 l 1,21,-1
 125 648 l 1,0,-1
272 781 m 1,22,-1
 261 762 l 1,23,24
 135 797 135 797 60 845 c 0,25,26
 55 848 55 848 55 859 c 128,-1,27
 55 870 55 870 65 894 c 128,-1,28
 75 918 75 918 80 924 c 1,29,30
 172.042553191 849.489361702 172.042553191 849.489361702 245 799.5 c 2,31,-1
 272 781 l 1,22,-1
EndSplineSet
Position2: "'cpsp' Capital Spacing in Latin lookup 0 subtable" dx=7 dy=0 dh=35 dv=0
EndChar

StartChar: Ograve
Encoding: 210 210 46
Width: 727
Flags: HMW
HStem: -12 48<293.5 433 293.5 453> 658 54<338.5 433> 762 21G<461 461> 904 20G
VStem: 30 88<246 416 246 471> 609 88<246 454.5>
LayerCount: 2
Fore
SplineSet
604.5 621.5 m 128,-1,1
 697 531 697 531 697 355 c 128,-1,2
 697 179 697 179 603 83.5 c 128,-1,3
 509 -12 509 -12 358.5 -12 c 128,-1,4
 208 -12 208 -12 119 82 c 128,-1,5
 30 176 30 176 30 349.5 c 128,-1,6
 30 523 30 523 126 617.5 c 128,-1,7
 222 712 222 712 367 712 c 128,-1,0
 512 712 512 712 604.5 621.5 c 128,-1,1
118 352 m 0,8,9
 118 199 118 199 186 117.5 c 128,-1,10
 254 36 254 36 363.5 36 c 128,-1,11
 473 36 473 36 541 117.5 c 128,-1,12
 609 199 609 199 609 349.5 c 128,-1,13
 609 500 609 500 541 579 c 128,-1,14
 473 658 473 658 363 658 c 0,15,16
 291 658 291 658 219 634 c 1,17,18
 172 599 172 599 145 523.5 c 128,-1,19
 118 448 118 448 118 352 c 0,8,9
472 781 m 1,20,-1
 461 762 l 1,21,22
 335 797 335 797 260 845 c 0,23,24
 255 848 255 848 255 859 c 128,-1,25
 255 870 255 870 265 894 c 128,-1,26
 275 918 275 918 280 924 c 1,27,28
 372.042553191 849.489361702 372.042553191 849.489361702 445 799.5 c 2,29,-1
 472 781 l 1,20,-1
EndSplineSet
Position2: "'cpsp' Capital Spacing in Latin lookup 0 subtable" dx=7 dy=0 dh=35 dv=0
EndChar

StartChar: Eth
Encoding: 208 208 47
Width: 748
Flags: HMW
HStem: -6 21G<364 464> 0 21G<57.5 65> 1 40 324 21G<67 67> 331 51 658 54<380 444> 680 20G<57.5 65>
VStem: 134 79 620 88<246 454.5>
LayerCount: 2
Fore
SplineSet
67 324 m 1,0,-1
 67 382 l 1,1,-1
 403 382 l 1,2,-1
 403 339 l 1,3,-1
 67 324 l 1,0,-1
134 648 m 1,4,-1
 50 670 l 1,5,6
 50 700 50 700 65 700 c 0,7,8
 82 700 82 700 176 696 c 1,9,-1
 380 712 l 1,10,11
 523 712 523 712 615.5 621.5 c 128,-1,12
 708 531 708 531 708 355.5 c 0,13,14
 708 180 708 180 614.5 87 c 128,-1,15
 521 -6 521 -6 364 -6 c 1,16,-1
 176 8 l 1,17,-1
 65 0 l 1,18,19
 50 0 50 0 50 30 c 1,20,-1
 134 52 l 1,21,-1
 134 648 l 1,4,-1
374 41 m 0,22,23
 484 41 484 41 552 120 c 128,-1,24
 620 199 620 199 620 349.5 c 0,25,26
 620 500 620 500 552 579 c 128,-1,27
 484 658 484 658 374 658 c 0,28,29
 288 658 288 658 208 639 c 1,30,-1
 218 350 l 1,31,-1
 208 61 l 1,32,33
 298 41 298 41 374 41 c 0,22,23
EndSplineSet
Position2: "'cpsp' Capital Spacing in Latin lookup 0 subtable" dx=7 dy=0 dh=35 dv=0
EndChar

StartChar: Adieresis
Encoding: 196 196 49
Width: 660
Flags: HMW
HStem: 0 21G<-5.5 2 204 211.5 434.5 442 660 667.5> 222 51 680 20G<292 368 368 368> 788 21G<252 273.5 400 421.5> 883 20G<281 300.5 429 448.5>
VStem: 233 87<837.5 853.5> 381 87<837.5 853.5>
LayerCount: 2
Fore
SplineSet
124 52 m 1,0,-1
 219 30 l 1,1,2
 219 0 219 0 204 0 c 0,3,4
 201 0 201 0 93 4 c 1,5,-1
 2 0 l 2,6,7
 -13 0 -13 0 -13 30 c 1,8,-1
 62 52 l 1,9,-1
 292 700 l 1,10,-1
 368 700 l 1,11,-1
 600 52 l 1,12,-1
 675 30 l 1,13,14
 675 0 675 0 660 0 c 0,15,16
 648 0 648 0 561 4 c 1,17,-1
 442 0 l 2,18,19
 427 0 427 0 427 30 c 1,20,-1
 517 52 l 1,21,-1
 454 229 l 1,22,-1
 179 215 l 1,23,-1
 124 52 l 1,0,-1
317 619 m 1,24,-1
 199 273 l 1,25,-1
 439 273 l 1,26,-1
 317 619 l 1,24,-1
289 903 m 0,27,28
 320 903 320 903 320 850 c 0,29,30
 320 815 320 815 314 797 c 1,31,32
 282 788 282 788 265 788 c 0,33,34
 233 788 233 788 233 840 c 0,35,36
 233 875 233 875 240 896 c 1,37,38
 273 903 273 903 289 903 c 0,27,28
437 903 m 0,39,40
 468 903 468 903 468 850 c 0,41,42
 468 815 468 815 462 797 c 1,43,44
 430 788 430 788 413 788 c 0,45,46
 381 788 381 788 381 840 c 0,47,48
 381 875 381 875 388 896 c 1,49,50
 421 903 421 903 437 903 c 0,39,40
EndSplineSet
Position2: "'cpsp' Capital Spacing in Latin lookup 0 subtable" dx=7 dy=0 dh=35 dv=0
EndChar

StartChar: dotaccent
Encoding: 729 729 50
Width: 217
Flags: HMW
HStem: 541 21G<83 107> 642 20G<111.5 133.5>
VStem: 62 93<592.5 610.5>
LayerCount: 2
Fore
SplineSet
121 662 m 0,0,1
 155 662 155 662 155 606 c 1,2,-1
 148 550 l 1,3,4
 117 541 117 541 97 541 c 0,5,6
 62 541 62 541 62 596 c 0,7,8
 62 621 62 621 70 655 c 1,9,10
 102 662 102 662 121 662 c 0,0,1
EndSplineSet
EndChar

StartChar: Otilde
Encoding: 213 213 51
Width: 727
Flags: HMW
HStem: -12 48<293.5 433 293.5 453> 658 54<338.5 433> 798 21G<222 222> 801 64<418.5 436.5> 828 64<289.5 307.5> 875 20G<504 504>
VStem: 30 88<246 416 246 471> 609 88<246 454.5>
LayerCount: 2
Fore
SplineSet
604.5 621.5 m 128,-1,1
 697 531 697 531 697 355 c 128,-1,2
 697 179 697 179 603 83.5 c 128,-1,3
 509 -12 509 -12 358.5 -12 c 128,-1,4
 208 -12 208 -12 119 82 c 128,-1,5
 30 176 30 176 30 349.5 c 128,-1,6
 30 523 30 523 126 617.5 c 128,-1,7
 222 712 222 712 367 712 c 128,-1,0
 512 712 512 712 604.5 621.5 c 128,-1,1
118 352 m 0,8,9
 118 199 118 199 186 117.5 c 128,-1,10
 254 36 254 36 363.5 36 c 128,-1,11
 473 36 473 36 541 117.5 c 128,-1,12
 609 199 609 199 609 349.5 c 128,-1,13
 609 500 609 500 541 579 c 128,-1,14
 473 658 473 658 363 658 c 0,15,16
 291 658 291 658 219 634 c 1,17,18
 172 599 172 599 145 523.5 c 128,-1,19
 118 448 118 448 118 352 c 0,8,9
504 895 m 1,20,-1
 521 876 l 1,21,22
 478 801 478 801 420 801 c 0,23,24
 396 801 396 801 351.5 814.5 c 128,-1,25
 307 828 307 828 280.5 828 c 128,-1,26
 254 828 254 828 222 798 c 1,27,-1
 205 817 l 1,28,29
 248 892 248 892 306 892 c 0,30,31
 330 892 330 892 374.5 878.5 c 128,-1,32
 419 865 419 865 445.5 865 c 128,-1,33
 472 865 472 865 504 895 c 1,20,-1
EndSplineSet
Position2: "'cpsp' Capital Spacing in Latin lookup 0 subtable" dx=7 dy=0 dh=35 dv=0
EndChar

StartChar: ring
Encoding: 730 730 52
Width: 285
Flags: HMW
HStem: 515 21G<114.5 168> 671 20G<118.5 169>
LayerCount: 2
Fore
SplineSet
209.5 669 m 128,-1,1
 235 647 235 647 235 604 c 128,-1,2
 235 561 235 561 209.5 538 c 128,-1,3
 184 515 184 515 142 515 c 128,-1,4
 100 515 100 515 75 538 c 128,-1,5
 50 561 50 561 50 602.5 c 128,-1,6
 50 644 50 644 77 667.5 c 128,-1,7
 104 691 104 691 144 691 c 128,-1,0
 184 691 184 691 209.5 669 c 128,-1,1
116 653 m 0,8,9
 96 644 96 644 96 610 c 128,-1,10
 96 576 96 576 109.5 562 c 128,-1,11
 123 548 123 548 143 548 c 0,12,13
 189 548 189 548 189 604 c 0,14,15
 189 629 189 629 176 643.5 c 128,-1,16
 163 658 163 658 144.5 658 c 128,-1,17
 126 658 126 658 116 653 c 0,8,9
EndSplineSet
EndChar

StartChar: circumflex
Encoding: 710 710 53
Width: 335
Flags: HMW
HStem: 509 21G<71 71 264 264> 665 20G<145 190 190 190>
LayerCount: 2
Fore
SplineSet
168 611 m 1,0,-1
 71 509 l 1,1,-1
 45 526 l 1,2,3
 109 617 109 617 145 685 c 1,4,-1
 190 685 l 1,5,6
 226 617 226 617 290 526 c 1,7,-1
 264 509 l 1,8,-1
 168 611 l 1,0,-1
EndSplineSet
EndChar

StartChar: Icircumflex
Encoding: 206 206 54
Width: 326
Flags: HMW
HStem: 0 21G<46.5 54 269 276.5> 680 20G<46.5 54 269 276.5> 753 21G<67 67 260 260> 909 20G<141 186 186 186>
VStem: 122 78
LayerCount: 2
Fore
SplineSet
125 648 m 1,0,-1
 39 670 l 1,1,2
 39 700 39 700 54 700 c 0,3,4
 72 700 72 700 166 696 c 1,5,-1
 269 700 l 2,6,7
 284 700 284 700 284 670 c 1,8,-1
 198 648 l 1,9,-1
 203 350 l 1,10,-1
 198 52 l 1,11,-1
 284 30 l 1,12,13
 284 0 284 0 269 0 c 0,14,15
 259 0 259 0 166 4 c 1,16,-1
 54 0 l 2,17,18
 39 0 39 0 39 30 c 1,19,-1
 125 52 l 1,20,-1
 120 350 l 1,21,-1
 125 648 l 1,0,-1
164 855 m 1,22,-1
 67 753 l 1,23,-1
 41 770 l 1,24,25
 105 861 105 861 141 929 c 1,26,-1
 186 929 l 1,27,28
 222 861 222 861 286 770 c 1,29,-1
 260 753 l 1,30,-1
 164 855 l 1,22,-1
EndSplineSet
Position2: "'cpsp' Capital Spacing in Latin lookup 0 subtable" dx=7 dy=0 dh=35 dv=0
EndChar

StartChar: Ocircumflex
Encoding: 212 212 55
Width: 727
Flags: HMW
HStem: -12 48<293.5 433 293.5 453> 658 54<338.5 433> 753 21G<267 267 460 460> 909 20G<341 386 386 386>
VStem: 30 88<246 416 246 471> 609 88<246 454.5>
LayerCount: 2
Fore
SplineSet
604.5 621.5 m 128,-1,1
 697 531 697 531 697 355 c 128,-1,2
 697 179 697 179 603 83.5 c 128,-1,3
 509 -12 509 -12 358.5 -12 c 128,-1,4
 208 -12 208 -12 119 82 c 128,-1,5
 30 176 30 176 30 349.5 c 128,-1,6
 30 523 30 523 126 617.5 c 128,-1,7
 222 712 222 712 367 712 c 128,-1,0
 512 712 512 712 604.5 621.5 c 128,-1,1
118 352 m 0,8,9
 118 199 118 199 186 117.5 c 128,-1,10
 254 36 254 36 363.5 36 c 128,-1,11
 473 36 473 36 541 117.5 c 128,-1,12
 609 199 609 199 609 349.5 c 128,-1,13
 609 500 609 500 541 579 c 128,-1,14
 473 658 473 658 363 658 c 0,15,16
 291 658 291 658 219 634 c 1,17,18
 172 599 172 599 145 523.5 c 128,-1,19
 118 448 118 448 118 352 c 0,8,9
364 855 m 1,20,-1
 267 753 l 1,21,-1
 241 770 l 1,22,23
 305 861 305 861 341 929 c 1,24,-1
 386 929 l 1,25,26
 422 861 422 861 486 770 c 1,27,-1
 460 753 l 1,28,-1
 364 855 l 1,20,-1
EndSplineSet
Position2: "'cpsp' Capital Spacing in Latin lookup 0 subtable" dx=7 dy=0 dh=35 dv=0
EndChar

StartChar: Acircumflex
Encoding: 194 194 57
Width: 660
Flags: HMW
HStem: 0 21G<-5.5 2 204 211.5 434.5 442 660 667.5> 222 51 680 20G<292 368 368 368> 753 21G<253 253 446 446> 909 20G<327 372 372 372>
LayerCount: 2
Fore
SplineSet
124 52 m 1,0,-1
 219 30 l 1,1,2
 219 0 219 0 204 0 c 0,3,4
 201 0 201 0 93 4 c 1,5,-1
 2 0 l 2,6,7
 -13 0 -13 0 -13 30 c 1,8,-1
 62 52 l 1,9,-1
 292 700 l 1,10,-1
 368 700 l 1,11,-1
 600 52 l 1,12,-1
 675 30 l 1,13,14
 675 0 675 0 660 0 c 0,15,16
 648 0 648 0 561 4 c 1,17,-1
 442 0 l 2,18,19
 427 0 427 0 427 30 c 1,20,-1
 517 52 l 1,21,-1
 454 229 l 1,22,-1
 179 215 l 1,23,-1
 124 52 l 1,0,-1
317 619 m 1,24,-1
 199 273 l 1,25,-1
 439 273 l 1,26,-1
 317 619 l 1,24,-1
350 855 m 1,27,-1
 253 753 l 1,28,-1
 227 770 l 1,29,30
 291 861 291 861 327 929 c 1,31,-1
 372 929 l 1,32,33
 408 861 408 861 472 770 c 1,34,-1
 446 753 l 1,35,-1
 350 855 l 1,27,-1
EndSplineSet
Position2: "'cpsp' Capital Spacing in Latin lookup 0 subtable" dx=7 dy=0 dh=35 dv=0
EndChar

StartChar: Ecircumflex
Encoding: 202 202 58
Width: 581
Flags: HMW
HStem: 0 21G<47.5 55 504 514> 4 51 332 50 647 51 680 20G<47.5 55 498 507> 753 21G<194 194 387 387> 909 20G<268 313 313 313>
VStem: 124 78
LayerCount: 2
Fore
SplineSet
463 555 m 2,0,-1
 463 649 l 1,1,-1
 198 646 l 1,2,-1
 207 382 l 1,3,-1
 463 382 l 1,4,-1
 463 339 l 1,5,-1
 207 326 l 1,6,-1
 198 55 l 1,7,-1
 473 55 l 1,8,-1
 499 149 l 1,9,10
 499 163 499 163 541 163 c 1,11,-1
 533 12 l 2,12,13
 532 0 532 0 504 0 c 2,14,-1
 160 8 l 1,15,-1
 55 0 l 1,16,17
 40 0 40 0 40 30 c 1,18,-1
 124 52 l 1,19,-1
 124 648 l 1,20,-1
 40 670 l 1,21,22
 40 700 40 700 55 700 c 0,23,24
 64 700 64 700 158 696 c 1,25,-1
 498 700 l 2,26,27
 529 700 529 700 530 690 c 1,28,-1
 506 541 l 1,29,30
 463 541 463 541 463 555 c 2,0,-1
291 855 m 1,31,-1
 194 753 l 1,32,-1
 168 770 l 1,33,34
 232 861 232 861 268 929 c 1,35,-1
 313 929 l 1,36,37
 349 861 349 861 413 770 c 1,38,-1
 387 753 l 1,39,-1
 291 855 l 1,31,-1
EndSplineSet
Position2: "'cpsp' Capital Spacing in Latin lookup 0 subtable" dx=7 dy=0 dh=35 dv=0
EndChar

StartChar: caron
Encoding: 711 711 59
Width: 335
Flags: HMW
HStem: 509 21G<138 183 138 138> 665 20G<76 76 269 269>
LayerCount: 2
Fore
SplineSet
166 583 m 1,0,-1
 269 685 l 1,1,-1
 294 668 l 1,2,3
 222 573.5 222 573.5 183 509 c 1,4,-1
 138 509 l 1,5,6
 111 571 111 571 49 668 c 1,7,-1
 76 685 l 1,8,-1
 166 583 l 1,0,-1
EndSplineSet
EndChar

StartChar: cedilla
Encoding: 184 184 60
Width: 410
Flags: HMW
HStem: -233 21G<176.5 227.5> -211 20G<174.5 200.5> -20 20G<194 226 226 226>
VStem: 236 63<-154.5 -128>
LayerCount: 2
Fore
SplineSet
160 -83 m 1,0,-1
 194 0 l 1,1,-1
 226 0 l 1,2,-1
 209 -56 l 1,3,4
 254 -62 254 -62 276.5 -85.5 c 128,-1,5
 299 -109 299 -109 299 -143 c 0,6,7
 299 -177 299 -177 270 -205 c 128,-1,8
 241 -233 241 -233 193 -233 c 0,9,10
 145 -233 145 -233 110 -202 c 1,11,-1
 129 -172 l 1,12,13
 153 -191 153 -191 180.5 -191 c 0,14,15
 208 -191 208 -191 222 -176.5 c 128,-1,16
 236 -162 236 -162 236 -140.5 c 0,17,18
 236 -119 236 -119 216.5 -101.5 c 128,-1,19
 197 -84 197 -84 160 -83 c 1,0,-1
EndSplineSet
EndChar

StartChar: Thorn
Encoding: 222 222 61
Width: 562
Flags: HMW
HStem: 0 21G<57.5 65 280 287.5> 154 21G<153 153> 161 42<281 349.5> 534 42<325 360> 680 20G<57.5 65 280 287.5>
VStem: 133 78 460 72<333 414>
LayerCount: 2
Fore
SplineSet
307 534 m 1,0,-1
 207 524 l 1,1,-1
 167 572 l 1,2,-1
 325 576 l 1,3,4
 420 576 420 576 476 518 c 128,-1,5
 532 460 532 460 532 375 c 0,6,7
 532 290 532 290 467 228.5 c 128,-1,8
 402 167 402 167 281 161 c 2,9,-1
 153 154 l 1,10,-1
 212 208 l 1,11,-1
 289 203 l 1,12,13
 373 203 373 203 416.5 254 c 128,-1,14
 460 305 460 305 460 372.5 c 0,15,16
 460 440 460 440 421 487 c 128,-1,17
 382 534 382 534 307 534 c 1,0,-1
136 648 m 1,18,-1
 50 670 l 1,19,20
 50 700 50 700 65 700 c 0,21,22
 83 700 83 700 177 696 c 1,23,-1
 280 700 l 2,24,25
 295 700 295 700 295 670 c 1,26,-1
 209 648 l 1,27,-1
 214 350 l 1,28,-1
 209 52 l 1,29,-1
 295 30 l 1,30,31
 295 0 295 0 280 0 c 0,32,33
 270 0 270 0 177 4 c 1,34,-1
 65 0 l 2,35,36
 50 0 50 0 50 30 c 1,37,-1
 136 52 l 1,38,-1
 131 350 l 1,39,-1
 136 648 l 1,18,-1
EndSplineSet
EndChar

StartChar: endash
Encoding: 8211 8211 62
Width: 591
Flags: HMW
HStem: 225 56<125 486 125 486>
LayerCount: 2
Fore
SplineSet
125 225 m 1,0,-1
 125 281 l 1,1,-1
 486 281 l 1,2,-1
 486 225 l 1,3,-1
 125 225 l 1,0,-1
EndSplineSet
Position2: "'case' Case-Sensitive Forms in Latin lookup 1 per glyph data 0" dx=0 dy=70 dh=0 dv=0
EndChar

StartChar: emdash
Encoding: 8212 8212 63
Width: 839
Flags: HMW
HStem: 225 56<125 734 125 734>
LayerCount: 2
Fore
SplineSet
125 225 m 1,0,-1
 125 281 l 1,1,-1
 734 281 l 1,2,-1
 734 225 l 1,3,-1
 125 225 l 1,0,-1
EndSplineSet
Position2: "'case' Case-Sensitive Forms in Latin lookup 1 per glyph data 0" dx=0 dy=70 dh=0 dv=0
EndChar

StartChar: Ccedilla
Encoding: 199 199 64
Width: 622
Flags: HMW
HStem: -233 21G<282.5 333.5> -211 20G<280.5 306.5> -20 20G<300 332 332 332> -12 53<293.5 393.5 293.5 396.5> 653 59<338.5 387>
VStem: 30 88<247.5 415 247.5 471> 342 63<-154.5 -128>
LayerCount: 2
Fore
SplineSet
582 194 m 1,0,-1
 574 51 l 1,1,2
 490 -12 490 -12 349 -12 c 0,3,4
 208 -12 208 -12 119 82 c 128,-1,5
 30 176 30 176 30 349.5 c 0,6,7
 30 523 30 523 126 617.5 c 128,-1,8
 222 712 222 712 369 712 c 0,9,10
 486 712 486 712 575 652 c 1,11,-1
 549 503 l 1,12,13
 504 503 504 503 504 517 c 2,14,-1
 504 628 l 1,15,16
 441 653 441 653 366 653 c 0,17,18
 291 653 291 653 219 629 c 1,19,20
 172 594 172 594 145 520 c 128,-1,21
 118 446 118 446 118 352 c 0,22,23
 118 201 118 201 186 121 c 128,-1,24
 254 41 254 41 363 41 c 0,25,26
 453 41 453 41 514 78 c 1,27,-1
 537 180 l 2,28,29
 541 194 541 194 582 194 c 1,0,-1
266 -83 m 1,30,-1
 300 0 l 1,31,-1
 332 0 l 1,32,-1
 315 -56 l 1,33,34
 360 -62 360 -62 382.5 -85.5 c 128,-1,35
 405 -109 405 -109 405 -143 c 0,36,37
 405 -177 405 -177 376 -205 c 128,-1,38
 347 -233 347 -233 299 -233 c 0,39,40
 251 -233 251 -233 216 -202 c 1,41,-1
 235 -172 l 1,42,43
 259 -191 259 -191 286.5 -191 c 0,44,45
 314 -191 314 -191 328 -176.5 c 128,-1,46
 342 -162 342 -162 342 -140.5 c 0,47,48
 342 -119 342 -119 322.5 -101.5 c 128,-1,49
 303 -84 303 -84 266 -83 c 1,30,-1
EndSplineSet
Position2: "'cpsp' Capital Spacing in Latin lookup 0 subtable" dx=7 dy=0 dh=35 dv=0
EndChar

StartChar: Z
Encoding: 90 90 65
Width: 611
Flags: HMW
HStem: -12 21G<45 45> 0 21G<527 537> 2 53 642 47 680 20G<93 101> 692 20G<555 555>
LayerCount: 2
Fore
SplineSet
489 55 m 1,0,-1
 489 151 l 2,1,2
 489 165 489 165 531 165 c 1,3,-1
 556 12 l 1,4,5
 555 0 555 0 527 0 c 2,6,-1
 77 5 l 1,7,-1
 45 -12 l 1,8,-1
 28 8 l 1,9,-1
 456 642 l 1,10,-1
 146 642 l 1,11,-1
 146 551 l 2,12,13
 146 537 146 537 104 537 c 1,14,-1
 79 688 l 1,15,16
 80 700 80 700 100 700 c 0,17,18
 106 700 106 700 520 689 c 1,19,-1
 555 712 l 1,20,-1
 577 695 l 1,21,-1
 146 55 l 1,22,-1
 489 55 l 1,0,-1
EndSplineSet
Position2: "'cpsp' Capital Spacing in Latin lookup 0 subtable" dx=7 dy=0 dh=35 dv=0
EndChar

StartChar: slash
Encoding: 47 47 66
Width: 327
Flags: HMW
HStem: -50 21G<-30 -30 -30 24> 730 20G<303 357 357 357>
LayerCount: 2
Fore
SplineSet
-30 -50 m 1,0,-1
 303 750 l 1,1,-1
 357 750 l 1,2,-1
 24 -50 l 1,3,-1
 -30 -50 l 1,0,-1
EndSplineSet
EndChar

StartChar: Oslash
Encoding: 216 216 67
Width: 727
Flags: HMW
HStem: -50 21G<170 170 170 224> -12 48<293.5 433 293.5 453> 658 54<338.5 433> 730 20G<503 557 557 557>
VStem: 30 88<246 416 246 471> 609 88<246 454.5>
LayerCount: 2
Fore
SplineSet
604.5 621.5 m 128,-1,1
 697 531 697 531 697 355 c 128,-1,2
 697 179 697 179 603 83.5 c 128,-1,3
 509 -12 509 -12 358.5 -12 c 128,-1,4
 208 -12 208 -12 119 82 c 128,-1,5
 30 176 30 176 30 349.5 c 128,-1,6
 30 523 30 523 126 617.5 c 128,-1,7
 222 712 222 712 367 712 c 128,-1,0
 512 712 512 712 604.5 621.5 c 128,-1,1
118 352 m 0,8,9
 118 199 118 199 186 117.5 c 128,-1,10
 254 36 254 36 363.5 36 c 128,-1,11
 473 36 473 36 541 117.5 c 128,-1,12
 609 199 609 199 609 349.5 c 128,-1,13
 609 500 609 500 541 579 c 128,-1,14
 473 658 473 658 363 658 c 0,15,16
 291 658 291 658 219 634 c 1,17,18
 172 599 172 599 145 523.5 c 128,-1,19
 118 448 118 448 118 352 c 0,8,9
170 -50 m 1,20,-1
 503 750 l 1,21,-1
 557 750 l 1,22,-1
 224 -50 l 1,23,-1
 170 -50 l 1,20,-1
EndSplineSet
EndChar

StartChar: OE
Encoding: 338 338 68
Width: 956
Flags: HMW
HStem: -12 48<305 386> 0 21G<412.5 420 869 879> 4 51 332 50 647 51 661 51<339 383.5 266.5 384.5> 680 20G<412.5 420 863 872>
VStem: 40 88<248 419.5 248 467.5> 489 78
LayerCount: 2
Fore
SplineSet
508 638 m 1,0,1
 424 661 424 661 358.5 661 c 0,2,3
 293 661 293 661 230 639 c 1,4,5
 183 603 183 603 155.5 527 c 128,-1,6
 128 451 128 451 128 355 c 0,7,8
 128 200 128 200 196.5 118 c 128,-1,9
 265 36 265 36 375 36 c 0,10,11
 436 36 436 36 518 68 c 1,12,-1
 545 52 l 1,13,-1
 525 8 l 1,14,15
 443 -12 443 -12 361 -12 c 0,16,17
 217 -12 217 -12 128.5 77 c 128,-1,18
 40 166 40 166 40 344.5 c 0,19,20
 40 523 40 523 127.5 617.5 c 128,-1,21
 215 712 215 712 355 712 c 0,22,23
 423 712 423 712 523 696 c 1,24,-1
 508 638 l 1,0,1
828 555 m 2,25,-1
 828 649 l 1,26,-1
 563 646 l 1,27,-1
 572 382 l 1,28,-1
 828 382 l 1,29,-1
 828 339 l 1,30,-1
 572 326 l 1,31,-1
 563 55 l 1,32,-1
 838 55 l 1,33,-1
 864 149 l 1,34,35
 864 163 864 163 906 163 c 1,36,-1
 898 12 l 2,37,38
 897 0 897 0 869 0 c 2,39,-1
 525 8 l 1,40,-1
 420 0 l 1,41,42
 405 0 405 0 405 30 c 1,43,-1
 489 52 l 1,44,-1
 489 648 l 1,45,-1
 405 670 l 1,46,47
 405 700 405 700 420 700 c 0,48,49
 429 700 429 700 523 696 c 1,50,-1
 863 700 l 2,51,52
 894 700 894 700 895 690 c 1,53,-1
 871 541 l 1,54,55
 828 541 828 541 828 555 c 2,25,-1
EndSplineSet
Position2: "'cpsp' Capital Spacing in Latin lookup 0 subtable" dx=7 dy=0 dh=35 dv=0
EndChar

StartChar: U
Encoding: 85 85 69
Width: 733
Flags: HMW
HStem: -12 55<314.5 448.5 314.5 459.5> 680 20G<47.5 55 271 279 488 496 683 690.5>
VStem: 114 78<218 648> 575 58<216 218 218 648>
LayerCount: 2
Fore
SplineSet
271 700 m 2,0,1
 287 700 287 700 287 670 c 1,2,-1
 192 648 l 1,3,-1
 192 215 l 2,4,5
 192 136 192 136 238.5 89.5 c 128,-1,6
 285 43 285 43 380.5 43 c 0,7,8
 476 43 476 43 525.5 93 c 128,-1,9
 575 143 575 143 575 216 c 2,10,-1
 575 648 l 1,11,-1
 480 670 l 1,12,13
 480 700 480 700 496 700 c 2,14,-1
 605 696 l 1,15,-1
 683 700 l 2,16,17
 698 700 698 700 698 670 c 1,18,-1
 633 648 l 1,19,-1
 633 218 l 2,20,21
 633 114 633 114 565.5 51 c 128,-1,22
 498 -12 498 -12 380 -12 c 0,23,24
 114 -12 114 -12 114 218 c 2,25,-1
 114 648 l 1,26,-1
 40 669 l 1,27,28
 40 700 40 700 55 700 c 0,29,30
 62 700 62 700 156 696 c 1,31,-1
 271 700 l 2,0,1
EndSplineSet
Position2: "'cpsp' Capital Spacing in Latin lookup 0 subtable" dx=7 dy=0 dh=35 dv=0
EndChar

StartChar: J
Encoding: 74 74 70
Width: 315
Flags: HMW
HStem: -204 21G 680 20G<46 54 281 288.5>
VStem: 133 79<159 186 186 648>
LayerCount: 2
Fore
SplineSet
133 159 m 2,0,-1
 133 648 l 1,1,-1
 38 670 l 1,2,3
 38 700 38 700 54 700 c 0,4,5
 77 700 77 700 170 696 c 1,6,-1
 281 700 l 2,7,8
 296 700 296 700 296 669 c 1,9,-1
 212 648 l 1,10,-1
 212 186 l 2,11,12
 212 2 212 2 26 -204 c 1,13,-1
 -4 -183 l 1,14,15
 133 -3 133 -3 133 159 c 2,0,-1
EndSplineSet
Position2: "'cpsp' Capital Spacing in Latin lookup 0 subtable" dx=7 dy=0 dh=35 dv=0
EndChar

StartChar: S
Encoding: 83 83 71
Width: 554
Flags: HMW
HStem: -12 48<250.5 326 250.5 335> 662 50<264 313>
VStem: 69 70<518.5 553 518.5 575> 419 85<124.5 173.5>
LayerCount: 2
Fore
SplineSet
504 170 m 0,0,1
 504 83 504 83 438 35.5 c 128,-1,2
 372 -12 372 -12 269.5 -12 c 0,3,4
 167 -12 167 -12 55 36 c 1,5,6
 74 201 74 201 78 201 c 0,7,8
 121 201 121 201 121 189 c 2,9,-1
 121 78 l 1,10,11
 186 36 186 36 266.5 36 c 0,12,13
 347 36 347 36 383 70 c 128,-1,14
 419 104 419 104 419 157 c 0,15,16
 419 226 419 226 348 267 c 2,17,-1
 171 368 l 2,18,19
 121 396 121 396 95 438.5 c 128,-1,20
 69 481 69 481 69 528 c 0,21,22
 69 603 69 603 130.5 657.5 c 128,-1,23
 192 712 192 712 298 712 c 0,24,25
 375 712 375 712 471 676 c 1,26,-1
 445 522 l 1,27,28
 403 522 403 522 403 536 c 2,29,-1
 403 637 l 1,30,31
 349 662 349 662 292 662 c 0,32,33
 190 662 190 662 144 587 c 1,34,35
 139 570 139 570 139 547 c 0,36,37
 139 478 139 478 214 435 c 2,38,-1
 386 337 l 2,39,40
 443 304 443 304 473.5 259 c 128,-1,41
 504 214 504 214 504 170 c 0,0,1
EndSplineSet
Position2: "'cpsp' Capital Spacing in Latin lookup 0 subtable" dx=7 dy=0 dh=35 dv=0
EndChar

StartChar: Ucircumflex
Encoding: 219 219 73
Width: 733
Flags: HMW
HStem: -12 55<314.5 448.5 314.5 459.5> 680 20G<47.5 55 271 279 488 496 683 690.5> 753 21G<294 294 487 487> 909 20G<368 413 413 413>
VStem: 114 78<218 648> 575 58<216 218 218 648>
LayerCount: 2
Fore
SplineSet
271 700 m 2,0,1
 287 700 287 700 287 670 c 1,2,-1
 192 648 l 1,3,-1
 192 215 l 2,4,5
 192 136 192 136 238.5 89.5 c 128,-1,6
 285 43 285 43 380.5 43 c 0,7,8
 476 43 476 43 525.5 93 c 128,-1,9
 575 143 575 143 575 216 c 2,10,-1
 575 648 l 1,11,-1
 480 670 l 1,12,13
 480 700 480 700 496 700 c 2,14,-1
 605 696 l 1,15,-1
 683 700 l 2,16,17
 698 700 698 700 698 670 c 1,18,-1
 633 648 l 1,19,-1
 633 218 l 2,20,21
 633 114 633 114 565.5 51 c 128,-1,22
 498 -12 498 -12 380 -12 c 0,23,24
 114 -12 114 -12 114 218 c 2,25,-1
 114 648 l 1,26,-1
 40 669 l 1,27,28
 40 700 40 700 55 700 c 0,29,30
 62 700 62 700 156 696 c 1,31,-1
 271 700 l 2,0,1
391 855 m 1,32,-1
 294 753 l 1,33,-1
 268 770 l 1,34,35
 332 861 332 861 368 929 c 1,36,-1
 413 929 l 1,37,38
 449 861 449 861 513 770 c 1,39,-1
 487 753 l 1,40,-1
 391 855 l 1,32,-1
EndSplineSet
Position2: "'cpsp' Capital Spacing in Latin lookup 0 subtable" dx=7 dy=0 dh=35 dv=0
EndChar

StartChar: Ugrave
Encoding: 217 217 75
Width: 733
Flags: HMW
HStem: -12 55<314.5 448.5 314.5 459.5> 680 20G<47.5 55 271 279 488 496 683 690.5> 762 21G<464 464> 904 20G
VStem: 114 78<218 648> 575 58<216 218 218 648>
LayerCount: 2
Fore
SplineSet
271 700 m 2,0,1
 287 700 287 700 287 670 c 1,2,-1
 192 648 l 1,3,-1
 192 215 l 2,4,5
 192 136 192 136 238.5 89.5 c 128,-1,6
 285 43 285 43 380.5 43 c 128,-1,7
 476 43 476 43 525.5 93 c 128,-1,8
 575 143 575 143 575 216 c 2,9,-1
 575 648 l 1,10,-1
 480 670 l 1,11,12
 480 700 480 700 496 700 c 2,13,-1
 605 696 l 1,14,-1
 683 700 l 2,15,16
 698 700 698 700 698 670 c 1,17,-1
 633 648 l 1,18,-1
 633 218 l 2,19,20
 633 114 633 114 565.5 51 c 128,-1,21
 498 -12 498 -12 380 -12 c 0,22,23
 114 -12 114 -12 114 218 c 2,24,-1
 114 648 l 1,25,-1
 40 669 l 1,26,27
 40 700 40 700 55 700 c 0,28,29
 62 700 62 700 156 696 c 1,30,-1
 271 700 l 2,0,1
475 781 m 1,31,-1
 464 762 l 1,32,33
 338 797 338 797 263 845 c 0,34,35
 258 848 258 848 258 859 c 128,-1,36
 258 870 258 870 268 894 c 128,-1,37
 278 918 278 918 283 924 c 1,38,39
 375.042553191 849.489361702 375.042553191 849.489361702 448 799.5 c 2,40,-1
 475 781 l 1,31,-1
EndSplineSet
Position2: "'cpsp' Capital Spacing in Latin lookup 0 subtable" dx=7 dy=0 dh=35 dv=0
EndChar

StartChar: Scaron
Encoding: 352 352 76
Width: 534
Flags: HMW
HStem: -12 48<240.5 316 240.5 325> 662 50<254 303> 753 21G<257 302 257 257> 909 20G<195 195 388 388>
VStem: 59 70<518.5 553 518.5 575> 409 85<124.5 173.5>
LayerCount: 2
Fore
SplineSet
494 170 m 0,0,1
 494 83 494 83 428 35.5 c 128,-1,2
 362 -12 362 -12 259.5 -12 c 0,3,4
 157 -12 157 -12 45 36 c 1,5,6
 64 201 64 201 68 201 c 0,7,8
 111 201 111 201 111 189 c 2,9,-1
 111 78 l 1,10,11
 176 36 176 36 256.5 36 c 0,12,13
 337 36 337 36 373 70 c 128,-1,14
 409 104 409 104 409 157 c 0,15,16
 409 226 409 226 338 267 c 2,17,-1
 161 368 l 2,18,19
 111 396 111 396 85 438.5 c 128,-1,20
 59 481 59 481 59 528 c 0,21,22
 59 603 59 603 120.5 657.5 c 128,-1,23
 182 712 182 712 288 712 c 0,24,25
 365 712 365 712 461 676 c 1,26,-1
 435 522 l 1,27,28
 393 522 393 522 393 536 c 2,29,-1
 393 637 l 1,30,31
 339 662 339 662 282 662 c 0,32,33
 180 662 180 662 134 587 c 1,34,35
 129 570 129 570 129 547 c 0,36,37
 129 478 129 478 204 435 c 2,38,-1
 376 337 l 2,39,40
 433 304 433 304 463.5 259 c 128,-1,41
 494 214 494 214 494 170 c 0,0,1
285 827 m 1,42,-1
 388 929 l 1,43,-1
 413 912 l 1,44,45
 341 817.5 341 817.5 302 753 c 1,46,-1
 257 753 l 1,47,48
 230 815 230 815 168 912 c 1,49,-1
 195 929 l 1,50,-1
 285 827 l 1,42,-1
EndSplineSet
Position2: "'cpsp' Capital Spacing in Latin lookup 0 subtable" dx=7 dy=0 dh=35 dv=0
EndChar

StartChar: Zcaron
Encoding: 381 381 77
Width: 591
Flags: HMW
HStem: -12 21G<35 35> 0 21G<517 527> 2 53 642 47 680 20G<83 91> 692 20G<545 545> 753 21G<281 326 281 281> 909 20G<219 219 412 412>
LayerCount: 2
Fore
SplineSet
479 55 m 1,0,-1
 479 151 l 2,1,2
 479 165 479 165 521 165 c 1,3,-1
 546 12 l 1,4,5
 545 0 545 0 517 0 c 2,6,-1
 67 5 l 1,7,-1
 35 -12 l 1,8,-1
 18 8 l 1,9,-1
 446 642 l 1,10,-1
 136 642 l 1,11,-1
 136 551 l 2,12,13
 136 537 136 537 94 537 c 1,14,-1
 69 688 l 1,15,16
 70 700 70 700 90 700 c 0,17,18
 96 700 96 700 510 689 c 1,19,-1
 545 712 l 1,20,-1
 567 695 l 1,21,-1
 136 55 l 1,22,-1
 479 55 l 1,0,-1
309 827 m 1,23,-1
 412 929 l 1,24,-1
 437 912 l 1,25,26
 365 817.5 365 817.5 326 753 c 1,27,-1
 281 753 l 1,28,29
 254 815 254 815 192 912 c 1,30,-1
 219 929 l 1,31,-1
 309 827 l 1,23,-1
EndSplineSet
Position2: "'cpsp' Capital Spacing in Latin lookup 0 subtable" dx=7 dy=0 dh=35 dv=0
EndChar

StartChar: B
Encoding: 66 66 78
Width: 612
Flags: HMW
HStem: 0 21G<57.5 65 358 425> 8 36 628 20G<134 134 205 205> 662 38<296 335>
VStem: 134 75 436 75<497.5 560.5> 487 80<154 229.5>
LayerCount: 2
Fore
SplineSet
511 529 m 0,0,1
 511 480 511 480 482.5 438 c 128,-1,2
 454 396 454 396 402 374 c 1,3,4
 482 355 482 355 524.5 304.5 c 128,-1,5
 567 254 567 254 567 192 c 0,6,7
 567 110 567 110 511 55 c 128,-1,8
 455 0 455 0 360 0 c 0,9,10
 353 0 353 0 176 8 c 1,11,-1
 65 0 l 1,12,13
 50 0 50 0 50 30 c 1,14,-1
 134 52 l 1,15,-1
 134 648 l 1,16,-1
 50 670 l 1,17,18
 50 700 50 700 65 700 c 0,19,20
 74 700 74 700 168 696 c 1,21,22
 290 700 290 700 298 700 c 0,23,24
 398 700 398 700 454.5 649.5 c 128,-1,25
 511 599 511 599 511 529 c 0,0,1
334 44 m 0,26,27
 409 44 409 44 448 87 c 128,-1,28
 487 130 487 130 487 192 c 0,29,30
 487 254 487 254 442.5 301 c 128,-1,31
 398 348 398 348 316 348 c 1,32,-1
 214 336 l 1,33,-1
 205 58 l 1,34,35
 279 44 279 44 334 44 c 0,26,27
285 662 m 1,36,-1
 205 648 l 1,37,-1
 214 384 l 1,38,-1
 296 384 l 1,39,40
 362 390 362 390 399 431.5 c 128,-1,41
 436 473 436 473 436 527.5 c 0,42,43
 436 582 436 582 396 622 c 128,-1,44
 356 662 356 662 285 662 c 1,36,-1
EndSplineSet
Position2: "'cpsp' Capital Spacing in Latin lookup 0 subtable" dx=7 dy=0 dh=35 dv=0
EndChar

StartChar: question
Encoding: 63 63 79
Width: 430
Flags: HMW
HStem: -12 21G<155 181> 621 50<159.5 201.5>
VStem: 133 101<33.5 49.5> 311 65
LayerCount: 2
Fore
SplineSet
79 502 m 1,0,-1
 53 656 l 1,1,2
 113 671 113 671 169 671 c 0,3,4
 260 671 260 671 318 632.5 c 128,-1,5
 376 594 376 594 376 527 c 0,6,7
 376 486 376 486 349 440 c 128,-1,8
 322 394 322 394 289 360 c 0,9,10
 202 270.363636364 202 270.363636364 202 234 c 2,11,-1
 202 184 l 1,12,-1
 168 184 l 1,13,14
 160 253 160 253 160 283 c 1,15,16
 161 303 161 303 195.5 345.5 c 128,-1,17
 230 388 230 388 267.5 437.5 c 128,-1,18
 305 487 305 487 311 522 c 1,19,20
 310 572 310 572 267.5 596.5 c 128,-1,21
 225 621 225 621 168 621 c 0,22,23
 140 621 140 621 121 617 c 1,24,-1
 121 516 l 2,25,26
 121 502 121 502 79 502 c 1,0,-1
198 95 m 0,27,28
 234 95 234 95 234 45 c 1,29,-1
 227 -4 l 1,30,31
 192 -12 192 -12 170 -12 c 0,32,33
 133 -12 133 -12 133 37 c 0,34,35
 133 59 133 59 141 89 c 1,36,37
 177 95 177 95 198 95 c 0,27,28
EndSplineSet
EndChar

StartChar: questiondown
Encoding: 191 191 80
Width: 430
Flags: HMW
HStem: -215 50<227.5 269.5 227.5 278.5> 448 20G<248 274>
VStem: 53 65 195 101<406.5 422.5>
LayerCount: 2
Fore
SplineSet
350 -46 m 1,0,-1
 376 -200 l 1,1,2
 316 -215 316 -215 260 -215 c 0,3,4
 169 -215 169 -215 111 -176.5 c 128,-1,5
 53 -138 53 -138 53 -71 c 0,6,7
 53 -30 53 -30 80 16 c 128,-1,8
 107 62 107 62 140 96 c 0,9,10
 227 185.636363636 227 185.636363636 227 222 c 2,11,-1
 227 272 l 1,12,-1
 261 272 l 1,13,14
 269 203 269 203 269 173 c 1,15,16
 268 153 268 153 233.5 110.5 c 128,-1,17
 199 68 199 68 161.5 18.5 c 128,-1,18
 124 -31 124 -31 118 -66 c 1,19,20
 119 -116 119 -116 161.5 -140.5 c 128,-1,21
 204 -165 204 -165 261 -165 c 0,22,23
 289 -165 289 -165 308 -161 c 1,24,-1
 308 -60 l 2,25,26
 308 -46 308 -46 350 -46 c 1,0,-1
231 361 m 0,27,28
 195 361 195 361 195 411 c 1,29,-1
 202 460 l 1,30,31
 237 468 237 468 259 468 c 0,32,33
 296 468 296 468 296 419 c 0,34,35
 296 397 296 397 288 367 c 1,36,37
 252 361 252 361 231 361 c 0,27,28
EndSplineSet
Position2: "'case' Case-Sensitive Forms in Latin lookup 1 per glyph data 1" dx=0 dy=224 dh=0 dv=0
EndChar

StartChar: quoteright
Encoding: 8217 8217 81
Width: 204
Flags: HMW
HStem: 467 21G<40 40> 597 21G<82 99.5> 710 20G<112.5 141.5>
VStem: 60 113<642.5 651 586 673.5>
LayerCount: 2
Fore
SplineSet
68 723 m 1,0,1
 98 730 98 730 123 730 c 128,-1,2
 148 730 148 730 160.5 699 c 128,-1,3
 173 668 173 668 173 617.5 c 128,-1,4
 173 567 173 567 136 523 c 128,-1,5
 99 479 99 479 40 467 c 1,6,-1
 31 496 l 1,7,8
 70 508 70 508 91.5 534.5 c 128,-1,9
 113 561 113 561 113 594 c 2,10,-1
 113 598 l 1,11,12
 107 597 107 597 97 597 c 0,13,14
 60 597 60 597 60 658 c 0,15,16
 60 685 60 685 68 723 c 1,0,1
EndSplineSet
EndChar

StartChar: quotesingle
Encoding: 39 39 82
Width: 175
Flags: HMW
HStem: 474 21G<75 102 75 75> 692 20G<78 96.5>
VStem: 50 75<658.5 703>
LayerCount: 2
Fore
SplineSet
102 474 m 1,0,-1
 75 474 l 1,1,2
 67 505 67 505 58.5 574 c 128,-1,3
 50 643 50 643 50 699 c 0,4,5
 50 712 50 712 87.5 712 c 0,6,7
 125 712 125 712 125 699 c 0,8,9
 125 641 125 641 117.5 572.5 c 128,-1,10
 110 504 110 504 102 474 c 1,0,-1
EndSplineSet
EndChar

StartChar: quotedbl
Encoding: 34 34 83
Width: 300
Flags: HMW
HStem: 474 21G<75 102 75 75 200 200 200 227> 692 20G<78 96.5 203 221.5>
VStem: 50 75<658.5 703> 175 75<658.5 703>
LayerCount: 2
Fore
SplineSet
102 474 m 1,0,-1
 75 474 l 1,1,2
 67 505 67 505 58.5 574 c 128,-1,3
 50 643 50 643 50 699 c 0,4,5
 50 712 50 712 87.5 712 c 0,6,7
 125 712 125 712 125 699 c 0,8,9
 125 641 125 641 117.5 572.5 c 128,-1,10
 110 504 110 504 102 474 c 1,0,-1
227 474 m 1,11,-1
 200 474 l 1,12,13
 192 505 192 505 183.5 574 c 128,-1,14
 175 643 175 643 175 699 c 0,15,16
 175 712 175 712 212.5 712 c 0,17,18
 250 712 250 712 250 699 c 0,19,20
 250 641 250 641 242.5 572.5 c 128,-1,21
 235 504 235 504 227 474 c 1,11,-1
EndSplineSet
EndChar

StartChar: exclam
Encoding: 33 33 84
Width: 257
Flags: HMW
HStem: -12 21G<95 121> 675 20G<123 179 179 179>
VStem: 73 101<33.5 49.5>
LayerCount: 2
Fore
SplineSet
123 695 m 1,0,-1
 179 695 l 1,1,-1
 137 172 l 1,2,-1
 104 172 l 1,3,-1
 77 433 l 1,4,-1
 123 695 l 1,0,-1
138 95 m 0,5,6
 174 95 174 95 174 45 c 1,7,-1
 167 -4 l 1,8,9
 132 -12 132 -12 110 -12 c 0,10,11
 73 -12 73 -12 73 37 c 0,12,13
 73 59 73 59 81 89 c 1,14,15
 117 95 117 95 138 95 c 0,5,6
EndSplineSet
EndChar

StartChar: exclamdown
Encoding: 161 161 85
Width: 257
Flags: HMW
HStem: -239 21G<78 134 78 78> 448 20G<136 162>
VStem: 83 101<406.5 422.5>
LayerCount: 2
Fore
SplineSet
134 -239 m 1,0,-1
 78 -239 l 1,1,-1
 120 284 l 1,2,-1
 153 284 l 1,3,-1
 180 23 l 1,4,-1
 134 -239 l 1,0,-1
119 361 m 0,5,6
 83 361 83 361 83 411 c 1,7,-1
 90 460 l 1,8,9
 125 468 125 468 147 468 c 0,10,11
 184 468 184 468 184 419 c 0,12,13
 184 397 184 397 176 367 c 1,14,15
 140 361 140 361 119 361 c 0,5,6
EndSplineSet
Position2: "'case' Case-Sensitive Forms in Latin lookup 1 per glyph data 1" dx=0 dy=224 dh=0 dv=0
EndChar

StartChar: one
Encoding: 49 49 86
Width: 510
Flags: HMW
HStem: 0 21G<113 121 445 453> 543 20G<310.5 319>
VStem: 259 78<57 499 499 499>
LayerCount: 2
Fore
SplineSet
337 57 m 1,0,-1
 461 33 l 1,1,2
 461 0 461 0 445 0 c 2,3,-1
 284 4 l 1,4,-1
 121 0 l 2,5,6
 105 0 105 0 105 33 c 1,7,-1
 259 57 l 1,8,-1
 259 499 l 1,9,-1
 126 466 l 1,10,11
 116 466 116 466 108 487 c 128,-1,12
 100 508 100 508 100 518 c 0,13,14
 100 520.412844037 100 520.412844037 205.5 541.706422018 c 128,-1,15
 311 563 311 563 319 563 c 1,16,17
 337 554 337 554 337 532 c 2,18,-1
 337 57 l 1,0,-1
EndSplineSet
EndChar

StartChar: zero
Encoding: 48 48 87
Width: 510
Flags: HMW
HStem: -12 49<208.5 301.5 208.5 315> 513 50<208.5 301.5>
VStem: 29 83<194 356 194 370> 398 83<194 356>
LayerCount: 2
Fore
SplineSet
418 491 m 128,-1,1
 481 419 481 419 481 279 c 128,-1,2
 481 139 481 139 417 63.5 c 128,-1,3
 353 -12 353 -12 251.5 -12 c 128,-1,4
 150 -12 150 -12 89.5 62 c 128,-1,5
 29 136 29 136 29 274 c 128,-1,6
 29 412 29 412 94.5 487.5 c 128,-1,7
 160 563 160 563 257.5 563 c 128,-1,0
 355 563 355 563 418 491 c 128,-1,1
398 275 m 128,-1,9
 398 513 398 513 255 513 c 128,-1,10
 112 513 112 513 112 275 c 128,-1,11
 112 37 112 37 255 37 c 128,-1,8
 398 37 398 37 398 275 c 128,-1,9
EndSplineSet
EndChar

StartChar: two
Encoding: 50 50 88
Width: 510
Flags: HMW
HStem: 0 21G<52 438 52 52> 513 50<216 261.5>
VStem: 343 84<363.5 448>
LayerCount: 2
Fore
SplineSet
363.5 259 m 0,0,1
 331 222 331 222 302 196.5 c 128,-1,2
 273 171 273 171 225 133 c 2,3,-1
 110 43 l 1,4,-1
 111 39 l 1,5,-1
 398 64 l 1,6,-1
 398 142 l 2,7,8
 398 158 398 158 439 158 c 0,9,10
 440.929577465 158 440.929577465 158 451.464788732 90 c 128,-1,11
 462 22 462 22 462 14 c 1,12,13
 459 0 459 0 438 0 c 2,14,-1
 52 0 l 1,15,-1
 29 32 l 1,16,-1
 213 196 l 2,17,18
 309.276559865 281.961214165 309.276559865 281.961214165 332 346 c 0,19,20
 343 377 343 377 343 410 c 0,21,22
 343 463 343 463 312 488 c 128,-1,23
 281 513 281 513 230.5 513 c 128,-1,24
 180 513 180 513 135 487 c 1,25,-1
 139 414 l 2,26,27
 139 406 139 406 124 402 c 128,-1,28
 109 398 109 398 99 398 c 0,29,30
 98 398 98 398 91.5 426.5 c 128,-1,31
 85 455 85 455 77.5 486.5 c 128,-1,32
 70 518 70 518 70 524 c 1,33,34
 138 563 138 563 226.5 563 c 128,-1,35
 315 563 315 563 371 527 c 128,-1,36
 427 491 427 491 427 411.146153846 c 128,-1,37
 427 331.292307692 427 331.292307692 363.5 259 c 0,0,1
EndSplineSet
EndChar

StartChar: seven
Encoding: 55 55 89
Width: 510
Flags: HMW
HStem: -68 21G<213 213> 493 54
LayerCount: 2
Fore
SplineSet
213 -68 m 1,0,-1
 133 -49 l 1,1,-1
 397 493 l 1,2,-1
 118 493 l 1,3,-1
 118 415 l 2,4,5
 118 399 118 399 78 399 c 0,6,7
 75.0704225352 399 75.0704225352 399 64.5352112676 467 c 128,-1,8
 54 535 54 535 55 546 c 128,-1,9
 56 557 56 557 81 557 c 1,10,-1
 423 537 l 1,11,-1
 441 564 l 1,12,-1
 469 546 l 1,13,-1
 213 -68 l 1,0,-1
EndSplineSet
EndChar

StartChar: four
Encoding: 52 52 90
Width: 510
Flags: HMW
HStem: -56 21G<215.5 223 477 484.5> 89 45<34.5 323 84 323 84 323 397 496> 596 20G<218 218>
VStem: 323 74<0 89 134 357>
LayerCount: 2
Fore
SplineSet
397 0 m 1,0,-1
 492 -23 l 1,1,2
 492 -56 492 -56 477 -56 c 0,3,4
 476 -56 476 -56 359 -52 c 1,5,-1
 223 -56 l 2,6,7
 208 -56 208 -56 208 -23 c 1,8,-1
 323 0 l 1,9,-1
 323 89 l 1,10,-1
 43 89 l 2,11,12
 15 89 15 89 15 104 c 128,-1,13
 15 119 15 119 56 218 c 2,14,-1
 218 616 l 1,15,-1
 291 594 l 1,16,-1
 84 134 l 1,17,-1
 323 134 l 1,18,-1
 323 379 l 2,19,20
 323 380.888888889 323 380.888888889 347 384.444444444 c 128,-1,21
 371 388 371 388 379 388 c 1,22,23
 397 379 397 379 397 357 c 2,24,-1
 397 134 l 1,25,-1
 496 134 l 1,26,-1
 496 89 l 1,27,-1
 397 89 l 1,28,-1
 397 0 l 1,0,-1
EndSplineSet
EndChar

StartChar: three
Encoding: 51 51 91
Width: 510
Flags: HMW
HStem: -68 49<210.5 264.5 208.5 298> 513 50<224.5 274.5>
VStem: 374 53 374 80<63.5 140.5>
LayerCount: 2
Fore
SplineSet
190 238 m 1,0,-1
 184 272 l 1,1,2
 262 282 262 282 303.5 323.5 c 128,-1,3
 345 365 345 365 345 410 c 128,-1,4
 345 455 345 455 317 484 c 128,-1,5
 289 513 289 513 239.5 513 c 128,-1,6
 190 513 190 513 148 487 c 1,7,-1
 152 414 l 2,8,9
 152 406 152 406 137 402 c 128,-1,10
 122 398 122 398 112 398 c 1,11,-1
 105 426.5 l 2,12,13
 85.7073170732 505.048780488 85.7073170732 505.048780488 83 524 c 1,14,15
 156 563 156 563 238 563 c 128,-1,16
 320 563 320 563 373.5 527.5 c 128,-1,17
 427 492 427 492 427 418 c 0,18,19
 427 368 427 368 390 326.5 c 128,-1,20
 353 285 353 285 295 264 c 1,21,22
 369 251 369 251 411.5 206.5 c 128,-1,23
 454 162 454 162 454 107 c 0,24,25
 454 28 454 28 391.5 -20 c 128,-1,26
 329 -68 329 -68 245 -68 c 0,27,28
 137 -68 137 -68 56 -29 c 1,29,30
 57 -19 57 -19 70 39 c 128,-1,31
 83 97 83 97 85 97 c 0,32,33
 95 97 95 97 109.5 93 c 128,-1,34
 124 89 124 89 124 81 c 2,35,-1
 121 8 l 1,36,37
 170 -19 170 -19 229 -19 c 128,-1,38
 288 -19 288 -19 331 13.5 c 128,-1,39
 374 46 374 46 374 103.5 c 128,-1,40
 374 161 374 161 324.5 199 c 128,-1,41
 275 237 275 237 190 238 c 1,0,-1
EndSplineSet
EndChar

StartChar: five
Encoding: 53 53 92
Width: 510
Flags: HMW
HStem: -68 49<210 264.5 208.5 297.5> 237 52<182.5 249> 473 20G<180 378 180 180> 537 20G<415 423.5>
VStem: 373 81<63.5 140.5>
LayerCount: 2
Fore
SplineSet
106 255 m 1,0,-1
 116 532 l 1,1,-1
 415 557 l 1,2,3
 440 557 440 557 441 546 c 128,-1,4
 442 535 442 535 436.5 499.5 c 0,5,6
 420.929577465 399 420.929577465 399 418 399 c 0,7,8
 378 399 378 399 378 415 c 2,9,-1
 378 493 l 1,10,-1
 180 493 l 1,11,-1
 158 288 l 1,12,13
 168 289 168 289 187 289 c 0,14,15
 324 289 324 289 389 237 c 128,-1,16
 454 185 454 185 454 106.5 c 128,-1,17
 454 28 454 28 391.5 -20 c 128,-1,18
 329 -68 329 -68 245 -68 c 0,19,20
 138 -68 138 -68 55 -29 c 1,21,22
 55 -23 55 -23 62.5 8.5 c 128,-1,23
 70 40 70 40 76.5 68.5 c 128,-1,24
 83 97 83 97 84 97 c 0,25,26
 95 97 95 97 109.5 93 c 128,-1,27
 124 89 124 89 124 81 c 2,28,-1
 120 8 l 1,29,30
 170 -19 170 -19 229 -19 c 128,-1,31
 288 -19 288 -19 330.5 13.5 c 128,-1,32
 373 46 373 46 373 103.5 c 128,-1,33
 373 161 373 161 324 199 c 128,-1,34
 275 237 275 237 191 237 c 0,35,36
 163 237 163 237 135 232 c 1,37,-1
 106 255 l 1,0,-1
EndSplineSet
EndChar

StartChar: mu
Encoding: 181 181 93
Width: 509
Flags: HMW
HStem: -199 21G<73 138 73 73> -12 59<208 234> 448 20G<120 128 412 420>
VStem: 73 60 365 71<97 410 410 410>
LayerCount: 2
Fore
SplineSet
138 -199 m 1,0,-1
 73 -199 l 1,1,-1
 73 410 l 1,2,-1
 24 410 l 2,3,4
 10 410 10 410 10 447 c 0,5,6
 10 449.186440678 10 449.186440678 65.5 458.593220339 c 128,-1,7
 121 468 121 468 128 468 c 1,8,9
 144 459 144 459 144 440 c 2,10,-1
 144 144 l 2,11,12
 144 47 144 47 230 47 c 0,13,14
 296 47 296 47 365 97 c 1,15,-1
 365 410 l 1,16,-1
 294 410 l 2,17,18
 280 410 280 410 280 447 c 0,19,20
 280 449 280 449 346.5 458.5 c 128,-1,21
 413 468 413 468 420 468 c 1,22,23
 436 459 436 459 436 440 c 2,24,-1
 436 67 l 2,25,26
 436 32 436 32 459 19 c 1,27,-1
 447 -12 l 1,28,29
 378 -12 378 -12 367 52 c 1,30,31
 301.161879896 8.79373368146 301.161879896 8.79373368146 252.5 -6.5 c 0,32,33
 235 -12 235 -12 230 -12 c 0,34,35
 168 -12 168 -12 128 15 c 1,36,-1
 138 -199 l 1,0,-1
EndSplineSet
EndChar

StartChar: ordmasculine
Encoding: 186 186 94
Width: 343
Flags: HMW
HStem: 298 51<125.5 176.5> 390 31<143 199 143 211.5> 662 32<160.5 199>
VStem: 18 54<502 569 502 593.5> 269 55<502 583.5>
LayerCount: 2
Fore
SplineSet
281.5 656 m 128,-1,1
 324 618 324 618 324 544.5 c 128,-1,2
 324 471 324 471 280.5 430.5 c 128,-1,3
 237 390 237 390 168.5 390 c 128,-1,4
 100 390 100 390 59 430 c 128,-1,5
 18 470 18 470 18 543 c 128,-1,6
 18 616 18 616 61.5 655 c 128,-1,7
 105 694 105 694 172 694 c 128,-1,0
 239 694 239 694 281.5 656 c 128,-1,1
112 653 m 1,8,9
 72 623 72 623 72 553.5 c 128,-1,10
 72 484 72 484 99.5 452.5 c 128,-1,11
 127 421 127 421 171 421 c 128,-1,12
 215 421 215 421 242 452 c 128,-1,13
 269 483 269 483 269 542 c 128,-1,14
 269 601 269 601 242 631.5 c 128,-1,15
 215 662 215 662 178 662 c 128,-1,16
 141 662 141 662 112 653 c 1,8,9
303 349 m 1,17,-1
 309 321 l 1,18,19
 259 298 259 298 146 298 c 0,20,21
 91 298 91 298 39 306 c 1,22,-1
 34 349 l 1,23,-1
 303 349 l 1,17,-1
EndSplineSet
EndChar

StartChar: ordfeminine
Encoding: 170 170 95
Width: 313
Flags: HMW
HStem: 298 51<114.5 165.5> 349 48<48 54 48 292> 669 20G<134 175 175 175>
LayerCount: 2
Fore
SplineSet
54 397 m 1,0,-1
 13 395 l 2,1,2
 -1 395 -1 395 -1 416 c 1,3,-1
 33 425 l 1,4,-1
 134 689 l 1,5,-1
 175 689 l 1,6,-1
 277 426 l 1,7,-1
 312 416 l 1,8,9
 312 395 312 395 297 395 c 0,10,11
 287 395 287 395 249 397 c 1,12,-1
 198 395 l 2,13,14
 183 395 183 395 183 417 c 1,15,-1
 223 426 l 1,16,-1
 200 488 l 1,17,-1
 97 482 l 1,18,-1
 76 425 l 1,19,-1
 116 418 l 1,20,21
 116 395 116 395 101 395 c 2,22,-1
 54 397 l 1,0,-1
148 629 m 1,23,-1
 108 517 l 1,24,-1
 189 517 l 1,25,-1
 148 629 l 1,23,-1
292 349 m 1,26,-1
 298 321 l 1,27,28
 248 298 248 298 135 298 c 0,29,30
 80 298 80 298 28 306 c 1,31,-1
 23 349 l 1,32,-1
 292 349 l 1,26,-1
EndSplineSet
EndChar

StartChar: six
Encoding: 54 54 96
Width: 510
Flags: HMW
HStem: -12 52<221.5 290.5 221.5 313> 302 48<236.5 268 268 292> 653 20G<394 394>
VStem: 49 85<172.5 241.5 172.5 323.5> 383 85<130.5 224.5>
LayerCount: 2
Fore
SplineSet
394 673 m 1,0,-1
 421 632 l 1,1,2
 205 493 205 493 153 350 c 1,3,-1
 268 350 l 2,4,5
 353 350 353 350 410.5 304.5 c 128,-1,6
 468 259 468 259 468 174.5 c 128,-1,7
 468 90 468 90 406 39 c 128,-1,8
 344 -12 344 -12 258.5 -12 c 128,-1,9
 173 -12 173 -12 111 47 c 128,-1,10
 49 106 49 106 49 220 c 0,11,12
 49 369.696969697 49 369.696969697 150.5 483.5 c 0,13,14
 240.561027837 584.47751606 240.561027837 584.47751606 394 673 c 1,0,-1
349.5 273.5 m 128,-1,16
 316 302 316 302 263 302 c 128,-1,17
 210 302 210 302 137 287 c 1,18,19
 134 258.5 134 258.5 134 233 c 0,20,21
 134 144 134 144 168.5 92 c 128,-1,22
 203 40 203 40 256.5 40 c 128,-1,23
 310 40 310 40 346.5 75.5 c 128,-1,24
 383 111 383 111 383 178 c 128,-1,15
 383 245 383 245 349.5 273.5 c 128,-1,16
EndSplineSet
EndChar

StartChar: nine
Encoding: 57 57 97
Width: 510
Flags: HMW
HStem: -133 21G<132 132> 198 42<217 251 251 281.5 217 358> 512 51<223 295.5>
VStem: 48 85<338 421.5 338 435> 378 90<307 378.5>
LayerCount: 2
Fore
SplineSet
102 -97 m 1,0,1
 309 58 309 58 358 198 c 1,2,-1
 251 198 l 2,3,4
 164 198 164 198 106 244.5 c 128,-1,5
 48 291 48 291 48 375.5 c 128,-1,6
 48 460 48 460 110 511.5 c 128,-1,7
 172 563 172 563 257 563 c 128,-1,8
 342 563 342 563 405 502.5 c 128,-1,9
 468 442 468 442 468 326 c 0,10,11
 468 112.701149425 468 112.701149425 233.5 -62.5 c 0,12,13
 190 -95 190 -95 132 -133 c 1,14,-1
 102 -97 l 1,0,1
133 377 m 0,15,16
 133 240 133 240 267 240 c 0,17,18
 315 240 315 240 373 257 c 1,19,20
 378 290 378 290 378 317 c 0,21,22
 378 409 378 409 346.5 460.5 c 128,-1,23
 315 512 315 512 259 512 c 128,-1,24
 203 512 203 512 168 476.5 c 128,-1,25
 133 441 133 441 133 377 c 0,15,16
EndSplineSet
EndChar

StartChar: eight
Encoding: 56 56 98
Width: 510
Flags: HMW
HStem: -12 49<211 286.5 211 319.5> 619 49<222 292.5>
VStem: 47 84<130 187> 69 79<491.5 547 491.5 558> 361 80<488 538.5> 380 85<116 181>
LayerCount: 2
Fore
SplineSet
47 159 m 0,0,1
 47 206 47 206 80 258.5 c 128,-1,2
 113 311 113 311 178 346 c 1,3,4
 69 412 69 412 69 517 c 0,5,6
 69 581 69 581 120 624.5 c 128,-1,7
 171 668 171 668 254.5 668 c 0,8,9
 338 668 338 668 389.5 624 c 128,-1,10
 441 580 441 580 441 514 c 0,11,12
 441 471 441 471 412.5 424 c 128,-1,13
 384 377 384 377 328 345 c 1,14,15
 390 307 390 307 427.5 263 c 128,-1,16
 465 219 465 219 465 152 c 0,17,18
 465 85 465 85 407.5 36.5 c 128,-1,19
 350 -12 350 -12 255.5 -12 c 0,20,21
 161 -12 161 -12 104 36.5 c 128,-1,22
 47 85 47 85 47 159 c 0,0,1
302 270 m 1,23,-1
 218 321 l 1,24,25
 177 289 177 289 154 246 c 128,-1,26
 131 203 131 203 131 156 c 0,27,28
 131 109 131 109 162 73 c 128,-1,29
 193 37 193 37 249.5 37 c 0,30,31
 306 37 306 37 343 68.5 c 128,-1,32
 380 100 380 100 380 152 c 0,33,34
 380 219 380 219 302 270 c 1,23,-1
148 517 m 0,35,36
 148 453 148 453 236 400 c 2,37,-1
 290 368 l 1,38,39
 325 396 325 396 343 434.5 c 128,-1,40
 361 473 361 473 361 514.5 c 0,41,42
 361 556 361 556 334.5 587.5 c 128,-1,43
 308 619 308 619 257 619 c 128,-1,44
 206 619 206 619 177 591 c 128,-1,45
 148 563 148 563 148 517 c 0,35,36
EndSplineSet
EndChar

StartChar: sterling
Encoding: 163 163 99
Width: 510
Flags: HMW
HStem: 0 21G<68 434 68 68> 513 50<227.5 277.5>
VStem: 104 73<393.5 440.5 391.5 467> 134 64<218 224>
LayerCount: 2
Fore
SplineSet
197 263 m 1,0,-1
 198 244 l 1,1,2
 198 158 198 158 116 41 c 1,3,-1
 117 37 l 1,4,-1
 394 62 l 1,5,-1
 394 147 l 2,6,7
 394 163 394 163 435 163 c 0,8,9
 437.040540541 163 437.040540541 163 447.52027027 92.5 c 128,-1,10
 458 22 458 22 458 14 c 1,11,12
 455 0 455 0 434 0 c 2,13,-1
 68 0 l 1,14,-1
 45 32 l 1,15,16
 134 126 134 126 134 216 c 0,17,18
 134 236 134 236 129 263 c 1,19,-1
 62 263 l 1,20,-1
 62 300 l 1,21,-1
 122 300 l 1,22,23
 104 372 104 372 104 414 c 0,24,25
 104 490 104 490 145 526.5 c 128,-1,26
 186 563 186 563 266 563 c 128,-1,27
 346 563 346 563 419 524 c 1,28,29
 416.292682927 505.048780488 416.292682927 505.048780488 397 426.5 c 2,30,-1
 390 398 l 1,31,32
 380 398 380 398 365 402 c 128,-1,33
 350 406 350 406 350 414 c 2,34,-1
 354 487 l 1,35,36
 312 513 312 513 261 513 c 0,37,38
 177 513 177 513 177 415 c 0,39,40
 177 382 177 382 192 300 c 1,41,-1
 348 300 l 1,42,-1
 348 263 l 1,43,-1
 197 263 l 1,0,-1
EndSplineSet
EndChar

StartChar: cent
Encoding: 162 162 100
Width: 510
Flags: HMW
HStem: -35 21G<243 283 243 243> 554 20G<286 326 326 326>
VStem: 90 78<235.5 335 235.5 350.5> 304 66
LayerCount: 2
Fore
SplineSet
283 -35 m 1,0,-1
 243 -35 l 1,1,-1
 248 44 l 1,2,3
 175 60 175 60 132.5 120.5 c 128,-1,4
 90 181 90 181 90 281.5 c 128,-1,5
 90 382 90 382 143.5 443.5 c 128,-1,6
 197 505 197 505 282 516 c 1,7,-1
 286 574 l 1,8,-1
 326 574 l 1,9,-1
 322 518 l 1,10,11
 383 516 383 516 437 493 c 1,12,13
 434.292682927 474.048780488 434.292682927 474.048780488 415 395.5 c 2,14,-1
 408 367 l 1,15,16
 398 367 398 367 383 371 c 128,-1,17
 368 375 368 375 368 383 c 2,18,-1
 372 456 l 1,19,20
 338 463 338 463 318 464 c 1,21,-1
 291 88 l 1,22,23
 300 86 300 86 318 86 c 0,24,25
 365 86 365 86 421 111 c 1,26,27
 434 99 434 99 438 81 c 1,28,29
 374 38 374 38 304 38 c 2,30,-1
 288 38 l 1,31,-1
 283 -35 l 1,0,-1
168 281 m 0,32,33
 168 144 168 144 252 101 c 1,34,-1
 278 462 l 1,35,36
 168 445 168 445 168 281 c 0,32,33
EndSplineSet
EndChar

StartChar: Lslash
Encoding: 321 321 101
Width: 521
Flags: HMW
HStem: 0 21G<56.5 64 474 484> 4 51 280 21G<53 53> 449 20G<297 297> 680 20G<56.5 64 279 286.5>
VStem: 132 78
LayerCount: 2
Fore
SplineSet
53 280 m 1,0,-1
 27 332 l 1,1,-1
 297 469 l 1,2,-1
 316 431 l 1,3,-1
 53 280 l 1,0,-1
135 648 m 1,4,-1
 49 670 l 1,5,6
 49 700 49 700 64 700 c 0,7,8
 82 700 82 700 176 696 c 1,9,-1
 279 700 l 2,10,11
 294 700 294 700 294 670 c 1,12,-1
 208 648 l 1,13,-1
 213 350 l 1,14,-1
 208 55 l 1,15,-1
 443 55 l 1,16,-1
 469 149 l 2,17,18
 473 163 473 163 511 163 c 1,19,-1
 503 12 l 2,20,21
 502 0 502 0 474 0 c 2,22,-1
 176 8 l 1,23,-1
 64 0 l 1,24,25
 49 0 49 0 49 30 c 1,26,-1
 135 52 l 1,27,-1
 130 350 l 1,28,-1
 135 648 l 1,4,-1
EndSplineSet
EndChar

StartChar: a
Encoding: 97 97 102
Width: 521
Flags: HMW
HStem: 0 21G<11.5 17 173 182 327 336 504 512.5> 151 47 469 20G<227 292 292 292>
LayerCount: 2
Fore
SplineSet
124 45 m 1,0,-1
 191 31 l 1,1,2
 191 0 191 0 173 0 c 0,3,4
 165 0 165 0 86 3 c 1,5,-1
 17 0 l 2,6,7
 0 0 0 0 0 30 c 1,8,-1
 58 45 l 1,9,-1
 227 489 l 1,10,-1
 292 489 l 1,11,-1
 463 46 l 1,12,-1
 521 30 l 1,13,14
 521 0 521 0 503.5 0 c 0,15,16
 486 0 486 0 423 3 c 1,17,-1
 336 0 l 2,18,19
 318 0 318 0 318 31 c 1,20,-1
 386 45 l 1,21,-1
 346 156 l 1,22,-1
 160 146 l 1,23,-1
 124 45 l 1,0,-1
253 412 m 1,24,-1
 177 198 l 1,25,-1
 330 198 l 1,26,-1
 253 412 l 1,24,-1
EndSplineSet
EndChar

StartChar: b
Encoding: 98 98 103
Width: 489
Flags: HMW
HStem: 0 42<290 308 263.5 340> 469 20G<64 73 245 299.5>
VStem: 119 68 339 69<346 385.5> 377 72<112.5 160.5>
LayerCount: 2
Fore
SplineSet
290 0 m 1,0,-1
 156 6 l 1,1,-1
 73 0 l 1,2,3
 55 0 55 0 55 31 c 1,4,-1
 119 45 l 1,5,-1
 119 444 l 1,6,-1
 55 458 l 1,7,8
 55 489 55 489 73 489 c 0,9,10
 88 489 88 489 156 486 c 1,11,-1
 245 489 l 1,12,13
 322 489 322 489 365 452.5 c 128,-1,14
 408 416 408 416 408 366 c 0,15,16
 408 335 408 335 390.5 307 c 128,-1,17
 373 279 373 279 341 262 c 1,18,19
 394 246 394 246 421.5 211.5 c 128,-1,20
 449 177 449 177 449 136 c 0,21,22
 449 78 449 78 406 39 c 128,-1,23
 363 0 363 0 290 0 c 1,0,-1
184 50 m 1,24,25
 232 42 232 42 277.5 42 c 128,-1,26
 323 42 323 42 350 69.5 c 128,-1,27
 377 97 377 97 377 136 c 128,-1,28
 377 175 377 175 345 205.5 c 128,-1,29
 313 236 313 236 259 238 c 1,30,-1
 191 230 l 1,31,-1
 184 50 l 1,24,25
237 451 m 1,32,-1
 184 443 l 1,33,-1
 191 274 l 1,34,-1
 242 274 l 1,35,36
 288 278 288 278 313.5 304.5 c 128,-1,37
 339 331 339 331 339 364.5 c 128,-1,38
 339 398 339 398 311.5 424 c 128,-1,39
 284 450 284 450 237 451 c 1,32,-1
EndSplineSet
EndChar

StartChar: c
Encoding: 99 99 104
Width: 497
Flags: HMW
HStem: -8 48<236.5 306.5 236.5 310.5> 445 52<267.5 301>
VStem: 35 77<176.5 287.5 176.5 329>
LayerCount: 2
Fore
SplineSet
452 144 m 1,0,-1
 446 38 l 1,1,2
 381 -8 381 -8 275 -8 c 0,3,4
 169 -8 169 -8 102 57.5 c 128,-1,5
 35 123 35 123 35 244.5 c 0,6,7
 35 366 35 366 107 431.5 c 128,-1,8
 179 497 179 497 290 497 c 0,9,10
 380 497 380 497 448 453 c 1,11,-1
 427 343 l 1,12,13
 384 343 384 343 384 359 c 2,14,-1
 384 431 l 1,15,16
 342 445 342 445 289 445 c 0,17,18
 236 445 236 445 184 430 c 1,19,20
 152 406 152 406 132 356.5 c 128,-1,21
 112 307 112 307 112 246 c 0,22,23
 112 146 112 146 160.5 93 c 128,-1,24
 209 40 209 40 280 40 c 0,25,26
 351 40 351 40 392 63 c 1,27,-1
 409 131 l 1,28,29
 414 144 414 144 452 144 c 1,0,-1
EndSplineSet
EndChar

StartChar: d
Encoding: 100 100 105
Width: 582
Flags: HMW
HStem: -4 21G<294 369> 0 21G<64 73> 1 39 450 47<283 339.5> 469 20G<64 73>
VStem: 119 72 474 78<175.5 322.5>
LayerCount: 2
Fore
SplineSet
156 486 m 1,0,1
 249 495.3 249 495.3 283 497 c 1,2,3
 392.888888889 497 392.888888889 497 468 445 c 0,4,5
 507 418 507 418 529.5 369 c 128,-1,6
 552 320 552 320 552 253 c 0,7,8
 552 126 552 126 482 61 c 128,-1,9
 412 -4 412 -4 294 -4 c 1,10,-1
 157 6 l 1,11,-1
 73 0 l 1,12,13
 55 0 55 0 55 31 c 1,14,-1
 119 45 l 1,15,-1
 119 444 l 1,16,-1
 55 458 l 1,17,18
 55 489 55 489 73 489 c 0,19,20
 88 489 88 489 156 486 c 1,0,1
196 251 m 1,21,-1
 186 50 l 1,22,23
 239 40 239 40 309 40 c 128,-1,24
 379 40 379 40 426.5 92 c 128,-1,25
 474 144 474 144 474 246 c 0,26,27
 474 450 474 450 285 450 c 0,28,29
 241 450 241 450 186 440 c 1,30,-1
 196 251 l 1,21,-1
EndSplineSet
EndChar

StartChar: e
Encoding: 101 101 106
Width: 482
Flags: HMW
HStem: 0 21G<64 73 403 412.5> 3 46 227 47 441 46 469 20G<64 73 398 407>
VStem: 119 71
LayerCount: 2
Fore
SplineSet
403 0 m 2,0,-1
 156 6 l 1,1,-1
 73 0 l 1,2,3
 55 0 55 0 55 31 c 1,4,-1
 119 45 l 1,5,-1
 119 444 l 1,6,-1
 55 458 l 1,7,8
 55 489 55 489 73 489 c 0,9,10
 88 489 88 489 156 486 c 1,11,-1
 398 489 l 2,12,13
 417.5 489 417.5 489 422.75 485.5 c 128,-1,14
 428 482 428 482 428 475 c 1,15,-1
 410 369 l 1,16,17
 369 369 369 369 369 384 c 2,18,-1
 369 442 l 1,19,-1
 186 440 l 1,20,-1
 195 274 l 1,21,-1
 380 274 l 1,22,-1
 380 233 l 1,23,-1
 194 222 l 1,24,-1
 186 49 l 1,25,-1
 378 49 l 1,26,-1
 395 106 l 2,27,28
 398 117 398 117 406.5 120 c 128,-1,29
 415 123 415 123 437 123 c 1,30,-1
 431 12 l 1,31,32
 429 0 429 0 403 0 c 2,0,-1
EndSplineSet
EndChar

StartChar: f
Encoding: 102 102 107
Width: 441
Flags: HMW
HStem: 0 21G<64 73 255 263.5> 217 47 441 46 469 20G<64 73 376 385>
VStem: 119 71
LayerCount: 2
Fore
SplineSet
373 223 m 1,0,-1
 194 212 l 1,1,-1
 187 45 l 1,2,-1
 272 31 l 1,3,4
 272 0 272 0 255 0 c 1,5,-1
 156 6 l 1,6,-1
 73 0 l 1,7,8
 55 0 55 0 55 31 c 1,9,-1
 119 45 l 1,10,-1
 119 444 l 1,11,-1
 55 458 l 1,12,13
 55 489 55 489 73 489 c 0,14,15
 88 489 88 489 156 486 c 1,16,-1
 376 489 l 2,17,18
 395.5 489 395.5 489 400.75 485.5 c 128,-1,19
 406 482 406 482 406 475 c 1,20,-1
 388 369 l 1,21,22
 347 369 347 369 347 384 c 2,23,-1
 347 442 l 1,24,-1
 186 440 l 1,25,-1
 195 264 l 1,26,-1
 373 264 l 1,27,-1
 373 223 l 1,0,-1
EndSplineSet
EndChar

StartChar: g
Encoding: 103 103 108
Width: 519
Flags: HMW
HStem: -8 48<236 305 236 309> 209 48<393 393> 445 52<267.5 302.5>
VStem: 35 78<176.5 287.5 176.5 329.5>
LayerCount: 2
Fore
SplineSet
461 82 m 1,0,-1
 469 53 l 1,1,2
 380 -8 380 -8 274 -8 c 0,3,4
 168 -8 168 -8 101.5 57.5 c 128,-1,5
 35 123 35 123 35 244.5 c 0,6,7
 35 366 35 366 107 431.5 c 128,-1,8
 179 497 179 497 280.5 497 c 0,9,10
 382 497 382 497 455 453 c 1,11,-1
 434 343 l 1,12,13
 392 343 392 343 392 359 c 2,14,-1
 392 431 l 1,15,16
 345 445 345 445 290.5 445 c 0,17,18
 236 445 236 445 184 430 c 1,19,20
 152 407 152 407 132.5 357.5 c 128,-1,21
 113 308 113 308 113 246 c 0,22,23
 113 146 113 146 160.5 93 c 128,-1,24
 208 40 208 40 284 40 c 0,25,26
 360 40 360 40 404 74 c 1,27,-1
 393 209 l 1,28,29
 368 210 368 210 317 213 c 128,-1,30
 266 216 266 216 257 216 c 1,31,-1
 257 257 l 1,32,-1
 461 257 l 1,33,-1
 461 82 l 1,0,-1
EndSplineSet
EndChar

StartChar: h
Encoding: 104 104 109
Width: 633
Flags: HMW
HStem: 0 21G<64 73 237 245.5 388 397 561 569.5> 227 47 469 20G<64 73 237 245.5 388 397 561 569.5>
VStem: 119 71 442 72
LayerCount: 2
Fore
SplineSet
446 444 m 1,0,-1
 379 458 l 1,1,2
 379 489 379 489 397 489 c 0,3,4
 412 489 412 489 480 486 c 1,5,-1
 561 489 l 2,6,7
 578 489 578 489 578 459 c 1,8,-1
 514 444 l 1,9,-1
 514 45 l 1,10,-1
 578 31 l 1,11,12
 578 0 578 0 561 0 c 1,13,-1
 480 6 l 1,14,-1
 397 0 l 1,15,16
 379 0 379 0 379 31 c 1,17,-1
 446 45 l 1,18,-1
 438 232 l 1,19,-1
 194 222 l 1,20,-1
 187 45 l 1,21,-1
 254 31 l 1,22,23
 254 0 254 0 237 0 c 1,24,-1
 156 6 l 1,25,-1
 73 0 l 1,26,27
 55 0 55 0 55 31 c 1,28,-1
 119 45 l 1,29,-1
 119 444 l 1,30,-1
 55 458 l 1,31,32
 55 489 55 489 73 489 c 0,33,34
 88 489 88 489 156 486 c 1,35,-1
 237 489 l 2,36,37
 254 489 254 489 254 459 c 1,38,-1
 187 444 l 1,39,-1
 195 274 l 1,40,-1
 438 274 l 1,41,-1
 446 444 l 1,0,-1
EndSplineSet
EndChar

StartChar: i
Encoding: 105 105 110
Width: 309
Flags: HMW
HStem: 0 21G<64 73 237 245.5> 469 20G<64 73 237 245.5>
VStem: 119 71<45 444 45 444>
LayerCount: 2
Fore
SplineSet
119 444 m 1,0,-1
 55 458 l 1,1,2
 55 489 55 489 73 489 c 0,3,4
 88 489 88 489 156 486 c 1,5,-1
 237 489 l 2,6,7
 254 489 254 489 254 459 c 1,8,-1
 190 444 l 1,9,-1
 190 45 l 1,10,-1
 254 31 l 1,11,12
 254 0 254 0 237 0 c 1,13,-1
 156 6 l 1,14,-1
 73 0 l 1,15,16
 55 0 55 0 55 31 c 1,17,-1
 119 45 l 1,18,-1
 119 444 l 1,0,-1
EndSplineSet
EndChar

StartChar: j
Encoding: 106 106 111
Width: 279
Flags: HMW
HStem: -141 21G 469 20G<39 48 226 235>
VStem: 109 71<114 133 133 443>
LayerCount: 2
Fore
SplineSet
109 443 m 1,0,-1
 30 458 l 1,1,2
 30 489 30 489 48 489 c 0,3,4
 74 489 74 489 142 486 c 1,5,-1
 226 489 l 2,6,7
 244 489 244 489 244 457 c 1,8,-1
 180 443 l 1,9,-1
 180 133 l 2,10,11
 180 4 180 4 38 -141 c 1,12,-1
 7 -120 l 1,13,14
 109 6 109 6 109 114 c 2,15,-1
 109 443 l 1,0,-1
EndSplineSet
EndChar

StartChar: k
Encoding: 107 107 112
Width: 509
Flags: HMW
HStem: -21 21G 0 21G<57 66 239 247.5> 469 20G<57 66 220 228.5 324.5 333 452 459>
VStem: 112 72
LayerCount: 2
Fore
SplineSet
112 444 m 1,0,-1
 48 458 l 1,1,2
 48 489 48 489 66 489 c 0,3,4
 81 489 81 489 149 486 c 1,5,-1
 220 489 l 2,6,7
 237 489 237 489 237 459 c 1,8,-1
 180 444 l 1,9,-1
 188 265 l 1,10,-1
 259 265 l 1,11,-1
 358 445 l 1,12,-1
 316 458 l 1,13,14
 316 489 316 489 333 489 c 1,15,-1
 383 486 l 1,16,-1
 452 489 l 2,17,18
 469 489 469 489 469 459 c 1,19,-1
 418 443 l 1,20,-1
 306 253 l 1,21,-1
 471 -6 l 1,22,-1
 421 -21 l 1,23,-1
 245 228 l 1,24,-1
 187 221 l 1,25,-1
 180 45 l 1,26,-1
 256 31 l 1,27,28
 256 0 256 0 239 0 c 1,29,-1
 149 6 l 1,30,-1
 66 0 l 1,31,32
 48 0 48 0 48 31 c 1,33,-1
 112 45 l 1,34,-1
 112 444 l 1,0,-1
EndSplineSet
EndChar

StartChar: l
Encoding: 108 108 113
Width: 430
Flags: HMW
HStem: 0 21G<64 73 376 385.5> 3 46 469 20G<65.5 73 237 244>
VStem: 119 71<49 444 49 444 49 444>
LayerCount: 2
Fore
SplineSet
376 0 m 2,0,-1
 156 6 l 1,1,-1
 73 0 l 1,2,3
 55 0 55 0 55 31 c 1,4,-1
 119 45 l 1,5,-1
 119 444 l 1,6,-1
 55 458 l 1,7,8
 55 489 55 489 73 489 c 2,9,-1
 156 486 l 1,10,-1
 237 489 l 2,11,12
 254 489 254 489 254 459 c 1,13,-1
 190 444 l 1,14,-1
 190 49 l 1,15,-1
 351 49 l 1,16,-1
 368 106 l 2,17,18
 371 117 371 117 379.5 120 c 128,-1,19
 388 123 388 123 410 123 c 1,20,-1
 404 12 l 1,21,22
 402 0 402 0 376 0 c 2,0,-1
EndSplineSet
EndChar

StartChar: m
Encoding: 109 109 114
Width: 741
Flags: HMW
HStem: 0 21G<58.5 67 224 233.5 497 506 674 682.5> 469 20G<82.5 91 649 654.5>
VStem: 114 66 137 43 550 65
LayerCount: 2
Fore
SplineSet
91 489 m 2,0,-1
 218 483 l 1,1,-1
 366 146 l 1,2,-1
 530 483 l 1,3,-1
 649 489 l 2,4,5
 657 489 657 489 661.5 478.5 c 128,-1,6
 666 468 666 468 666 457 c 1,7,-1
 603 442 l 1,8,-1
 627 45 l 1,9,10
 635 43 635 43 659 38.5 c 128,-1,11
 683 34 683 34 691 31 c 1,12,13
 691 0 691 0 674 0 c 1,14,-1
 589 6 l 1,15,-1
 506 0 l 1,16,17
 488 0 488 0 488 31 c 1,18,-1
 558 46 l 1,19,-1
 543 389 l 1,20,-1
 369 34 l 1,21,-1
 346 34 l 1,22,-1
 187 382 l 1,23,-1
 174 45 l 1,24,25
 179 44 179 44 243 31 c 1,26,27
 243 0 243 0 224 0 c 1,28,-1
 142 6 l 1,29,-1
 67 0 l 1,30,31
 50 0 50 0 50 31 c 1,32,-1
 114 45 l 1,33,34
 118 112 118 112 125.5 244 c 128,-1,35
 133 376 133 376 137 443 c 1,36,-1
 74 457 l 1,37,38
 74 489 74 489 91 489 c 2,0,-1
EndSplineSet
EndChar

StartChar: n
Encoding: 110 110 115
Width: 631
Flags: HMW
HStem: 0 21G<59 68 235 244 476 521 476 476> 469 20G<59 68 393.5 402 564 564>
VStem: 114 60 467 55
LayerCount: 2
Fore
SplineSet
402 489 m 2,0,-1
 496 486 l 1,1,-1
 564 489 l 1,2,3
 581 487 581 487 581 458 c 1,4,-1
 524 443 l 1,5,-1
 521 0 l 1,6,-1
 476 0 l 1,7,-1
 166 385 l 1,8,9
 167 329 167 329 170 215.5 c 128,-1,10
 173 102 173 102 174 45 c 1,11,12
 199.333333333 38.6666666667 199.333333333 38.6666666667 253 31 c 1,13,14
 253 0 253 0 235 0 c 1,15,-1
 143 6 l 1,16,-1
 68 0 l 1,17,18
 50 0 50 0 50 31 c 1,19,-1
 116 46 l 1,20,-1
 113 443 l 1,21,-1
 50 457 l 1,22,23
 50 489 50 489 68 489 c 0,24,25
 82 489 82 489 173 486 c 1,26,-1
 470 110 l 1,27,-1
 464 443 l 1,28,-1
 385 457 l 1,29,30
 385 489 385 489 402 489 c 2,0,-1
EndSplineSet
EndChar

StartChar: o
Encoding: 111 111 116
Width: 572
Flags: HMW
HStem: -8 44<237 335 237 354> 449 48<268 335>
VStem: 35 78<175.5 288.5 175.5 329> 459 78<175.5 314>
LayerCount: 2
Fore
SplineSet
467 434 m 128,-1,1
 537 371 537 371 537 248 c 128,-1,2
 537 125 537 125 466.5 58.5 c 128,-1,3
 396 -8 396 -8 283 -8 c 128,-1,4
 170 -8 170 -8 102.5 57.5 c 128,-1,5
 35 123 35 123 35 244.5 c 128,-1,6
 35 366 35 366 107 431.5 c 128,-1,7
 179 497 179 497 288 497 c 128,-1,0
 397 497 397 497 467 434 c 128,-1,1
113 246 m 0,8,9
 113 144 113 144 161 90 c 128,-1,10
 209 36 209 36 286 36 c 128,-1,11
 363 36 363 36 411 90 c 128,-1,12
 459 144 459 144 459 244 c 128,-1,13
 459 344 459 344 411 396.5 c 128,-1,14
 363 449 363 449 286 449 c 0,15,16
 236 449 236 449 184 434 c 1,17,18
 152 410 152 410 132.5 359.5 c 128,-1,19
 113 309 113 309 113 246 c 0,8,9
EndSplineSet
EndChar

StartChar: p
Encoding: 112 112 117
Width: 454
Flags: HMW
HStem: 0 21G<64 73 255 263.5> 179 41<234 239> 469 20G<64 73 266 315>
VStem: 119 72 357 67<310.5 366.5>
LayerCount: 2
Fore
SplineSet
187 442 m 1,0,-1
 196 222 l 1,1,-1
 239 220 l 1,2,3
 295 222 295 222 326 257.5 c 128,-1,4
 357 293 357 293 357 338.5 c 0,5,6
 357 384 357 384 330.5 416 c 128,-1,7
 304 448 304 448 253 449 c 1,8,-1
 187 442 l 1,0,-1
156 486 m 1,9,-1
 266 489 l 1,10,11
 338 489 338 489 381 446 c 128,-1,12
 424 403 424 403 424 339.5 c 0,13,14
 424 276 424 276 374.5 229.5 c 128,-1,15
 325 183 325 183 234 179 c 2,16,-1
 194 177 l 1,17,-1
 187 45 l 1,18,-1
 272 31 l 1,19,20
 272 0 272 0 255 0 c 1,21,-1
 156 6 l 1,22,-1
 73 0 l 1,23,24
 55 0 55 0 55 31 c 1,25,-1
 119 45 l 1,26,-1
 119 444 l 1,27,-1
 55 458 l 1,28,29
 55 489 55 489 73 489 c 0,30,31
 88 489 88 489 156 486 c 1,9,-1
EndSplineSet
EndChar

StartChar: q
Encoding: 113 113 118
Width: 572
Flags: HMW
HStem: -159 21G<507 507> -8 44<277 277> 449 48<268 335>
VStem: 35 78<175.5 288.5 175.5 329> 459 78<185 314>
LayerCount: 2
Fore
SplineSet
507 -159 m 1,0,-1
 277 -8 l 1,1,2
 168 -7 168 -7 101.5 58 c 128,-1,3
 35 123 35 123 35 244.5 c 0,4,5
 35 366 35 366 107 431.5 c 128,-1,6
 179 497 179 497 288 497 c 0,7,8
 397 497 397 497 467 434 c 128,-1,9
 537 371 537 371 537 253 c 0,10,11
 537 154 537 154 494.5 91.5 c 128,-1,12
 452 29 452 29 376 5 c 1,13,-1
 534 -120 l 1,14,-1
 507 -159 l 1,0,-1
113 246 m 0,15,16
 113 144 113 144 161 90 c 128,-1,17
 209 36 209 36 286 36 c 128,-1,18
 363 36 363 36 411 90 c 128,-1,19
 459 144 459 144 459 244 c 0,20,21
 459 344 459 344 411 396.5 c 128,-1,22
 363 449 363 449 286 449 c 0,23,24
 236 449 236 449 184 434 c 1,25,26
 152 410 152 410 132.5 359.5 c 128,-1,27
 113 309 113 309 113 246 c 0,15,16
EndSplineSet
EndChar

StartChar: r
Encoding: 114 114 119
Width: 489
Flags: HMW
HStem: -21 21G 469 20G<64 73 258 308>
VStem: 119 72 351 66<330.5 377>
LayerCount: 2
Fore
SplineSet
194 206 m 1,0,-1
 187 45 l 1,1,-1
 263 31 l 1,2,3
 263 0 263 0 246 0 c 1,4,-1
 156 6 l 1,5,-1
 73 0 l 1,6,7
 55 0 55 0 55 31 c 1,8,-1
 119 45 l 1,9,-1
 119 444 l 1,10,-1
 55 458 l 1,11,12
 55 489 55 489 73 489 c 0,13,14
 88 489 88 489 156 486 c 1,15,-1
 258 489 l 1,16,17
 331 489 331 489 374 450 c 128,-1,18
 417 411 417 411 417 353 c 0,19,20
 417 317 417 317 393 283 c 128,-1,21
 369 249 369 249 323 231 c 1,22,-1
 470 -6 l 1,23,-1
 419 -21 l 1,24,-1
 253 215 l 1,25,-1
 194 206 l 1,0,-1
196 254 m 1,26,-1
 232 253 l 1,27,28
 288 255 288 255 319.5 285 c 128,-1,29
 351 315 351 315 351 353.5 c 0,30,31
 351 392 351 392 324 420 c 128,-1,32
 297 448 297 448 246 449 c 1,33,-1
 187 444 l 1,34,-1
 196 254 l 1,26,-1
EndSplineSet
EndChar

StartChar: s
Encoding: 115 115 120
Width: 432
Flags: HMW
HStem: -8 46<195.5 247.5 195.5 259> 450 47<205.5 238.5>
VStem: 312 75<92 123>
LayerCount: 2
Fore
SplineSet
387 122 m 0,0,1
 387 60 387 60 337 26 c 128,-1,2
 287 -8 287 -8 209 -8 c 128,-1,3
 131 -8 131 -8 45 26 c 1,4,5
 47.1282051282 57.9230769231 47.1282051282 57.9230769231 57.5641025641 103.461538462 c 128,-1,6
 68 149 68 149 69 149 c 0,7,8
 107 149 107 149 107 134 c 2,9,-1
 107 62 l 1,10,11
 152 38 152 38 207 38 c 128,-1,12
 262 38 262 38 287 59 c 128,-1,13
 312 80 312 80 312 113 c 0,14,15
 312 156 312 156 263 183 c 2,16,-1
 135 252 l 2,17,18
 97 273 97 273 76.5 303.5 c 128,-1,19
 56 334 56 334 56 366 c 0,20,21
 56 420 56 420 102.5 458.5 c 128,-1,22
 149 497 149 497 230 497 c 0,23,24
 288 497 288 497 364 471 c 1,25,-1
 343 356 l 1,26,27
 300 356 300 356 300 371 c 2,28,-1
 300 437 l 1,29,30
 263 450 263 450 225 450 c 0,31,32
 155 450 155 450 124 404 c 1,33,34
 120 392 120 392 120 378 c 0,35,36
 120 335 120 335 172 307 c 2,37,-1
 297 241 l 2,38,39
 341 218 341 218 364 186 c 128,-1,40
 387 154 387 154 387 122 c 0,0,1
EndSplineSet
EndChar

StartChar: t
Encoding: 116 116 121
Width: 457
Flags: HMW
HStem: 0 21G<121.5 131 327 335.5> 442 45 469 20G<42 50 407 415.5>
VStem: 193 70<48 441 48 441>
LayerCount: 2
Fore
SplineSet
377 443 m 1,0,-1
 263 441 l 1,1,-1
 263 48 l 1,2,-1
 344 31 l 1,3,4
 344 0 344 0 327 0 c 1,5,-1
 230 6 l 1,6,-1
 131 0 l 1,7,8
 112 0 112 0 112 31 c 1,9,-1
 193 48 l 1,10,-1
 193 441 l 1,11,-1
 80 443 l 1,12,-1
 70 373 l 1,13,14
 70 358 70 358 30 358 c 1,15,-1
 20 476 l 1,16,17
 22 489 22 489 50 489 c 2,18,-1
 230 485 l 1,19,-1
 407 489 l 2,20,21
 435 489 435 489 437 476 c 1,22,-1
 427 358 l 1,23,24
 387 358 387 358 387 373 c 1,25,-1
 377 443 l 1,0,-1
EndSplineSet
EndChar

StartChar: u
Encoding: 117 117 122
Width: 579
Flags: HMW
HStem: -8 49<254.5 347.5 254.5 360> 469 20G<53.5 62 220 229.5 377 385 519 529>
VStem: 99 71<155 443> 436 56<153 155 155 443>
LayerCount: 2
Fore
SplineSet
220 489 m 2,0,1
 239 489 239 489 239 458 c 1,2,-1
 170 443 l 1,3,-1
 170 152 l 2,4,5
 170 101 170 101 202 71 c 128,-1,6
 234 41 234 41 300.5 41 c 0,7,8
 367 41 367 41 401.5 73.5 c 128,-1,9
 436 106 436 106 436 153 c 2,10,-1
 436 443 l 1,11,-1
 366 458 l 1,12,13
 366 489 366 489 385 489 c 2,14,-1
 465 486 l 1,15,-1
 519 489 l 1,16,17
 539 489 539 489 539 458 c 1,18,-1
 492 443 l 1,19,-1
 492 155 l 2,20,21
 492 81 492 81 440.5 36.5 c 128,-1,22
 389 -8 389 -8 300 -8 c 0,23,24
 99 -8 99 -8 99 155 c 2,25,-1
 99 443 l 1,26,-1
 45 457 l 1,27,28
 45 489 45 489 62 489 c 0,29,30
 67 489 67 489 137 486 c 1,31,-1
 220 489 l 2,0,1
EndSplineSet
EndChar

StartChar: v
Encoding: 118 118 123
Width: 515
Flags: HMW
HStem: 0 21G<229 291 229 229> 469 20G<24.5 34 185 192 338.5 346 482 482>
LayerCount: 2
Fore
SplineSet
266 84 m 1,0,-1
 388 444 l 1,1,2
 372 448 372 448 328 458 c 1,3,4
 328 489 328 489 346 489 c 2,5,-1
 425 486 l 1,6,-1
 482 489 l 1,7,8
 500 487 500 487 500 459 c 1,9,-1
 451 444 l 1,10,-1
 291 0 l 1,11,-1
 229 0 l 1,12,-1
 64 443 l 1,13,-1
 15 459 l 1,14,15
 15 489 15 489 34 489 c 0,16,17
 43 489 43 489 107 486 c 1,18,-1
 185 489 l 2,19,20
 202 489 202 489 202 458 c 1,21,-1
 142 444 l 1,22,-1
 266 84 l 1,0,-1
EndSplineSet
EndChar

StartChar: w
Encoding: 119 119 124
Width: 716
Flags: HMW
HStem: 0 21G<197 264 197 197 454 521 454 454> 469 20G<25.5 33 184 191.5 540 548 684 684>
LayerCount: 2
Fore
SplineSet
358 289 m 1,0,-1
 264 0 l 1,1,-1
 197 0 l 1,2,-1
 63 443 l 1,3,-1
 15 459 l 1,4,5
 15 489 15 489 33 489 c 2,6,-1
 106 486 l 1,7,-1
 184 489 l 2,8,9
 202 489 202 489 202 458 c 1,10,-1
 141 444 l 1,11,12
 155 391 155 391 187 277 c 128,-1,13
 219 163 219 163 237 95 c 1,14,-1
 354 454 l 1,15,-1
 378 454 l 1,16,-1
 491 95 l 1,17,-1
 590 444 l 1,18,19
 534.714285714 456.285714286 534.714285714 456.285714286 529 458 c 1,20,21
 529 489 529 489 548 489 c 2,22,-1
 627 486 l 1,23,-1
 684 489 l 1,24,25
 701 487 701 487 701 458 c 1,26,-1
 653 443 l 1,27,-1
 521 0 l 1,28,-1
 454 0 l 1,29,-1
 358 289 l 1,0,-1
EndSplineSet
EndChar

StartChar: x
Encoding: 120 120 125
Width: 566
Flags: HMW
HStem: 0 21G<39 48 198 207 344 353 518 527> 469 20G<60 66 221 228.5 353.5 361 501 501>
LayerCount: 2
Fore
SplineSet
399 445 m 1,0,-1
 343 458 l 1,1,2
 343 489 343 489 361 489 c 2,3,-1
 444 486 l 1,4,-1
 501 489 l 1,5,6
 518 487 518 487 518 459 c 1,7,-1
 469 443 l 1,8,9
 462 435 462 435 324 253 c 1,10,11
 352 213 352 213 403.5 142 c 128,-1,12
 455 71 455 71 473 46 c 1,13,14
 481 44 481 44 504.5 39 c 128,-1,15
 528 34 528 34 536 31 c 1,16,17
 536 0 536 0 518 0 c 1,18,-1
 438 6 l 1,19,-1
 353 0 l 1,20,21
 335 0 335 0 335 31 c 1,22,-1
 391 44 l 1,23,24
 370 72 370 72 332.5 125 c 128,-1,25
 295 178 295 178 277 203 c 1,26,27
 256 175 256 175 218.5 123.5 c 128,-1,28
 181 72 181 72 160 44 c 1,29,30
 207.666666667 31 207.666666667 31 216 31 c 1,31,32
 216 0 216 0 198 0 c 1,33,-1
 115 6 l 1,34,-1
 48 0 l 1,35,36
 30 0 30 0 30 30 c 1,37,-1
 89 46 l 1,38,-1
 245 247 l 1,39,-1
 105 443 l 1,40,-1
 48 458 l 1,41,42
 48 489 48 489 66 489 c 2,43,-1
 137 486 l 1,44,-1
 221 489 l 2,45,46
 239 489 239 489 239 458 c 1,47,-1
 186 444 l 1,48,49
 199 426 199 426 234.5 377 c 128,-1,50
 270 328 270 328 291 299 c 1,51,52
 310 325 310 325 345 372 c 128,-1,53
 380 419 380 419 399 445 c 1,0,-1
EndSplineSet
EndChar

StartChar: y
Encoding: 121 121 126
Width: 468
Flags: HMW
HStem: 0 21G<143.5 153 329 337.5> 469 20G<24.5 34 181 188.5 294.5 302 436 436>
VStem: 205 70<46 194 194 194>
LayerCount: 2
Fore
SplineSet
344 444 m 1,0,1
 290 456 290 456 284 458 c 1,2,3
 284 489 284 489 302 489 c 2,4,-1
 378 486 l 1,5,-1
 436 489 l 1,6,7
 453 487 453 487 453 459 c 1,8,-1
 404 443 l 1,9,-1
 275 195 l 1,10,-1
 275 46 l 1,11,-1
 346 31 l 1,12,13
 346 0 346 0 329 0 c 1,14,-1
 242 6 l 1,15,-1
 153 0 l 1,16,17
 134 0 134 0 134 31 c 1,18,-1
 205 46 l 1,19,-1
 205 194 l 1,20,-1
 65 443 l 1,21,-1
 15 459 l 1,22,23
 15 489 15 489 34 489 c 0,24,25
 40 489 40 489 104 486 c 1,26,-1
 181 489 l 2,27,28
 198 489 198 489 198 458 c 1,29,-1
 140 444 l 1,30,31
 209.333333333 309.666666667 209.333333333 309.666666667 246 240 c 1,32,-1
 344 444 l 1,0,1
EndSplineSet
EndChar

StartChar: z
Encoding: 122 122 127
Width: 479
Flags: HMW
HStem: -9 21G<30 49> 0 21G<404 413.5> 4 45 437 46 469 20G<83.5 91> 478 20G
LayerCount: 2
Fore
SplineSet
372 49 m 1,0,-1
 372 109 l 2,1,2
 372 124 372 124 413 124 c 1,3,-1
 431 15 l 1,4,5
 431 6 431 6 425 3 c 128,-1,6
 419 0 419 0 404 0 c 2,7,-1
 81 9 l 1,8,-1
 49 -9 l 1,9,-1
 30 12 l 1,10,-1
 339 437 l 1,11,-1
 129 437 l 1,12,-1
 129 382 l 2,13,14
 129 366 129 366 88 366 c 1,15,-1
 70 475 l 1,16,17
 70 489 70 489 91 489 c 2,18,-1
 393 478 l 1,19,-1
 425 498 l 1,20,-1
 449 480 l 1,21,-1
 137 49 l 1,22,-1
 372 49 l 1,0,-1
EndSplineSet
EndChar

StartChar: minus
Encoding: 8722 8722 128
Width: 510
Flags: HMW
HStem: 249 57<73 437 73 437>
LayerCount: 2
Fore
SplineSet
73 249 m 1,0,-1
 73 306 l 1,1,-1
 437 306 l 1,2,-1
 437 249 l 1,3,-1
 73 249 l 1,0,-1
EndSplineSet
EndChar

StartChar: plus
Encoding: 43 43 129
Width: 510
Flags: HMW
HStem: 95 21G<226 283 226 226> 249 57<73 226 73 226 283 437> 439 20G<226 283 283 283>
VStem: 226 57<95 249 95 249 306 459>
LayerCount: 2
Fore
SplineSet
73 249 m 1,0,-1
 73 306 l 1,1,-1
 226 306 l 1,2,-1
 226 459 l 1,3,-1
 283 459 l 1,4,-1
 283 306 l 1,5,-1
 437 306 l 1,6,-1
 437 249 l 1,7,-1
 283 249 l 1,8,-1
 283 95 l 1,9,-1
 226 95 l 1,10,-1
 226 249 l 1,11,-1
 73 249 l 1,0,-1
EndSplineSet
EndChar

StartChar: equal
Encoding: 61 61 130
Width: 510
Flags: HMW
HStem: 168 57<73 437 73 437> 330 57<73 437 73 437>
LayerCount: 2
Fore
SplineSet
73 330 m 1,0,-1
 73 387 l 1,1,-1
 437 387 l 1,2,-1
 437 330 l 1,3,-1
 73 330 l 1,0,-1
73 168 m 1,4,-1
 73 225 l 1,5,-1
 437 225 l 1,6,-1
 437 168 l 1,7,-1
 73 168 l 1,4,-1
EndSplineSet
EndChar

StartChar: multiply
Encoding: 215 215 131
Width: 510
Flags: HMW
HStem: 115 21G<132 132 377 377> 420 20G<132 132 377 377>
LayerCount: 2
Fore
SplineSet
132 115 m 1,0,-1
 92 155 l 1,1,-1
 214 277 l 1,2,-1
 92 400 l 1,3,-1
 132 440 l 1,4,-1
 254 317 l 1,5,-1
 377 440 l 1,6,-1
 417 400 l 1,7,-1
 294 277 l 1,8,-1
 417 155 l 1,9,-1
 377 115 l 1,10,-1
 254 237 l 1,11,-1
 132 115 l 1,0,-1
EndSplineSet
EndChar

StartChar: divide
Encoding: 247 247 132
Width: 510
Flags: HMW
HStem: 112 21G<244 266> 249 57<73 437 73 437> 423 20G<244 266>
VStem: 215 81<141 163 391 413>
LayerCount: 2
Fore
SplineSet
73 249 m 1,0,-1
 73 306 l 1,1,-1
 437 306 l 1,2,-1
 437 249 l 1,3,-1
 73 249 l 1,0,-1
226.5 374 m 128,-1,5
 215 386 215 386 215 402.5 c 128,-1,6
 215 419 215 419 227 431 c 128,-1,7
 239 443 239 443 255.5 443 c 128,-1,8
 272 443 272 443 284 430.5 c 128,-1,9
 296 418 296 418 296 402 c 128,-1,10
 296 386 296 386 284 374 c 128,-1,11
 272 362 272 362 255 362 c 128,-1,4
 238 362 238 362 226.5 374 c 128,-1,5
226.5 124 m 128,-1,13
 215 136 215 136 215 152.5 c 128,-1,14
 215 169 215 169 227 181 c 128,-1,15
 239 193 239 193 255.5 193 c 128,-1,16
 272 193 272 193 284 180.5 c 128,-1,17
 296 168 296 168 296 152 c 128,-1,18
 296 136 296 136 284 124 c 128,-1,19
 272 112 272 112 255 112 c 128,-1,12
 238 112 238 112 226.5 124 c 128,-1,13
EndSplineSet
EndChar

StartChar: ampersand
Encoding: 38 38 133
Width: 580
Flags: HMW
HStem: -13 58<172.5 243 172.5 243.5> 0 21G<436 564 436 436> 472 20G<458 462> 628 53<303.5 335.5>
VStem: 7 76<144.5 193.5> 133 77<524.5 554.5 524.5 583>
LayerCount: 2
Fore
SplineSet
230 611 m 1,0,1
 210 580 210 580 210 535.5 c 128,-1,2
 210 491 210 491 249 433 c 1,3,-1
 416 176 l 1,4,5
 468 255 468 255 471 328 c 1,6,-1
 403 363 l 2,7,8
 398 366 398 366 398 372.5 c 128,-1,9
 398 379 398 379 400.5 387 c 0,10,11
 406.75 407 406.75 407 409 407 c 0,12,13
 414 407 414 407 471.5 389.5 c 128,-1,14
 529 372 529 372 539 367 c 1,15,16
 525 244 525 244 446 131 c 1,17,-1
 496 55 l 1,18,-1
 580 31 l 1,19,20
 580 0 580 0 564 0 c 2,21,-1
 436 0 l 1,22,-1
 391 68 l 1,23,24
 308 -13 308 -13 210 -13 c 128,-1,25
 112 -13 112 -13 59.5 35 c 128,-1,26
 7 83 7 83 7 149 c 128,-1,27
 7 215 7 215 44.5 274 c 128,-1,28
 82 333 82 333 152 373 c 2,29,-1
 182 390 l 1,30,31
 133 470 133 470 133 525 c 0,32,33
 133 607 133 607 181.5 644 c 128,-1,34
 230 681 230 681 315.5 681 c 128,-1,35
 401 681 401 681 488 641 c 1,36,-1
 462 492 l 1,37,38
 417 492 417 492 417 506 c 2,39,-1
 417 610 l 1,40,41
 366 628 366 628 318 628 c 128,-1,42
 270 628 270 628 230 611 c 1,0,1
215 45 m 0,43,44
 294 45 294 45 363 111 c 1,45,-1
 206 353 l 1,46,-1
 169 329 l 2,47,48
 127 302 127 302 105 262 c 128,-1,49
 83 222 83 222 83 173 c 128,-1,50
 83 124 83 124 118.5 84.5 c 128,-1,51
 154 45 154 45 215 45 c 0,43,44
EndSplineSet
EndChar

StartChar: dollar
Encoding: 36 36 134
Width: 510
Flags: HMW
HStem: -12 51<252 289.5> 508 53<248 251 251 288>
VStem: 88 71<407 448.5> 351 90
LayerCount: 2
Fore
SplineSet
247 -88 m 1,0,-1
 207 -88 l 1,1,-1
 212 -10 l 1,2,3
 148 -2 148 -2 76 28 c 1,4,5
 76 35 76 35 81.5 66 c 128,-1,6
 87 97 87 97 92 125.5 c 2,7,-1
 97 154 l 1,8,9
 107 154 107 154 122.5 150 c 128,-1,10
 138 146 138 146 138 138 c 2,11,-1
 138 65 l 1,12,13
 168 49 168 49 216 42 c 1,14,-1
 230 248 l 1,15,-1
 171 282 l 2,16,17
 130 305 130 305 109 340 c 128,-1,18
 88 375 88 375 88 413 c 0,19,20
 88 469 88 469 132 512 c 128,-1,21
 176 555 176 555 251 561 c 1,22,-1
 256 627 l 1,23,-1
 296 627 l 1,24,-1
 291 561 l 1,25,26
 356 556 356 556 418 524 c 1,27,28
 415.292682927 505.048780488 415.292682927 505.048780488 396 426.5 c 2,29,-1
 389 398 l 1,30,31
 379 398 379 398 364 402 c 128,-1,32
 349 406 349 406 349 414 c 2,33,-1
 353 487 l 1,34,35
 326 503 326 503 288 508 c 1,36,-1
 274 312 l 1,37,-1
 347 271 l 2,38,39
 392 246 392 246 416.5 208.5 c 128,-1,40
 441 171 441 171 441 135 c 0,41,42
 441 66 441 66 388.5 27.5 c 128,-1,43
 336 -11 336 -11 252 -12 c 1,44,-1
 247 -88 l 1,0,-1
308 203 m 2,45,-1
 268 226 l 1,46,-1
 256 39 l 1,47,48
 304 39 304 39 332 63.5 c 128,-1,49
 360 88 360 88 360 123 c 0,50,51
 360 173 360 173 308 203 c 2,45,-1
159 428 m 0,52,53
 159 378 159 378 213 347 c 2,54,-1
 236 334 l 1,55,-1
 248 508 l 1,56,57
 207 504 207 504 183 483.5 c 128,-1,58
 159 463 159 463 159 428 c 0,52,53
EndSplineSet
EndChar

StartChar: agrave
Encoding: 224 224 135
Width: 521
Flags: HMW
HStem: 0 21G<11.5 17 173 182 327 336 504 512.5> 151 47 469 20G<227 292 292 292> 518 21G<337 337> 660 20G
LayerCount: 2
Fore
SplineSet
348 537 m 1,0,-1
 337 518 l 1,1,2
 211 553 211 553 136 601 c 0,3,4
 131 604 131 604 131 615 c 128,-1,5
 131 626 131 626 141 650 c 128,-1,6
 151 674 151 674 156 680 c 1,7,8
 248.042553191 605.489361702 248.042553191 605.489361702 321 555.5 c 2,9,-1
 348 537 l 1,0,-1
124 45 m 1,10,-1
 191 31 l 1,11,12
 191 0 191 0 173 0 c 0,13,14
 165 0 165 0 86 3 c 1,15,-1
 17 0 l 2,16,17
 0 0 0 0 0 30 c 1,18,-1
 58 45 l 1,19,-1
 227 489 l 1,20,-1
 292 489 l 1,21,-1
 463 46 l 1,22,-1
 521 30 l 1,23,24
 521 0 521 0 503.5 0 c 128,-1,25
 486 0 486 0 423 3 c 1,26,-1
 336 0 l 2,27,28
 318 0 318 0 318 31 c 1,29,-1
 386 45 l 1,30,-1
 346 156 l 1,31,-1
 160 146 l 1,32,-1
 124 45 l 1,10,-1
253 412 m 1,33,-1
 177 198 l 1,34,-1
 330 198 l 1,35,-1
 253 412 l 1,33,-1
EndSplineSet
EndChar

StartChar: egrave
Encoding: 232 232 136
Width: 482
Flags: HMW
HStem: 0 21G<64 73 403 412.5> 3 46 227 47 441 46 469 20G<64 73 398 407> 518 21G<337 337> 660 20G
VStem: 119 71
LayerCount: 2
Fore
SplineSet
348 537 m 1,0,-1
 337 518 l 1,1,2
 211 553 211 553 136 601 c 0,3,4
 131 604 131 604 131 615 c 128,-1,5
 131 626 131 626 141 650 c 128,-1,6
 151 674 151 674 156 680 c 1,7,8
 248.042553191 605.489361702 248.042553191 605.489361702 321 555.5 c 2,9,-1
 348 537 l 1,0,-1
403 0 m 2,10,-1
 156 6 l 1,11,-1
 73 0 l 1,12,13
 55 0 55 0 55 31 c 1,14,-1
 119 45 l 1,15,-1
 119 444 l 1,16,-1
 55 458 l 1,17,18
 55 489 55 489 73 489 c 0,19,20
 88 489 88 489 156 486 c 1,21,-1
 398 489 l 2,22,23
 417.5 489 417.5 489 422.75 485.5 c 128,-1,24
 428 482 428 482 428 475 c 1,25,-1
 410 369 l 1,26,27
 369 369 369 369 369 384 c 2,28,-1
 369 442 l 1,29,-1
 186 440 l 1,30,-1
 195 274 l 1,31,-1
 380 274 l 1,32,-1
 380 233 l 1,33,-1
 194 222 l 1,34,-1
 186 49 l 1,35,-1
 378 49 l 1,36,-1
 395 106 l 2,37,38
 398 117 398 117 406.5 120 c 128,-1,39
 415 123 415 123 437 123 c 1,40,-1
 431 12 l 1,41,42
 429 0 429 0 403 0 c 2,10,-1
EndSplineSet
EndChar

StartChar: ellipsis
Encoding: 8230 8230 137
Width: 591
Flags: HMW
HStem: -12 21G<70 96 267 293 464 490> 101 20G<102.5 126.5 299.5 323.5 496.5 520.5>
VStem: 48 101<44.5 64.5> 245 101<44.5 64.5> 442 101<44.5 64.5>
CounterMasks: 1 38
LayerCount: 2
Fore
SplineSet
113 121 m 0,0,1
 149 121 149 121 149 59 c 1,2,-1
 142 -3 l 1,3,4
 107 -12 107 -12 85 -12 c 0,5,6
 48 -12 48 -12 48 49 c 0,7,8
 48 76 48 76 56 114 c 1,9,10
 92 121 92 121 113 121 c 0,0,1
310 121 m 0,11,12
 346 121 346 121 346 59 c 1,13,-1
 339 -3 l 1,14,15
 304 -12 304 -12 282 -12 c 0,16,17
 245 -12 245 -12 245 49 c 0,18,19
 245 76 245 76 253 114 c 1,20,21
 289 121 289 121 310 121 c 0,11,12
507 121 m 0,22,23
 543 121 543 121 543 59 c 1,24,-1
 536 -3 l 1,25,26
 501 -12 501 -12 479 -12 c 0,27,28
 442 -12 442 -12 442 49 c 0,29,30
 442 76 442 76 450 114 c 1,31,32
 486 121 486 121 507 121 c 0,22,23
EndSplineSet
EndChar

StartChar: dagger
Encoding: 8224 8224 138
Width: 366
Flags: HMW
HStem: -45 21G<159 208 159 159> 621 20G<159 208 208 208>
VStem: 149 69
LayerCount: 2
Fore
SplineSet
15 437 m 1,0,-1
 15 486 l 1,1,-1
 151 502 l 1,2,-1
 159 641 l 1,3,-1
 208 641 l 1,4,-1
 216 502 l 1,5,-1
 351 486 l 1,6,-1
 351 437 l 1,7,-1
 220 437 l 1,8,-1
 228 298 l 1,9,-1
 208 -45 l 1,10,-1
 159 -45 l 1,11,-1
 139 298 l 1,12,-1
 147 437 l 1,13,-1
 15 437 l 1,0,-1
EndSplineSet
EndChar

StartChar: daggerdbl
Encoding: 8225 8225 139
Width: 366
Flags: HMW
HStem: -45 21G<159 208 159 159> 621 20G<159 208 208 208>
VStem: 155 57
LayerCount: 2
Fore
SplineSet
15 437 m 1,0,-1
 15 486 l 1,1,-1
 151 502 l 1,2,-1
 159 641 l 1,3,-1
 208 641 l 1,4,-1
 216 502 l 1,5,-1
 351 486 l 1,6,-1
 351 437 l 1,7,-1
 220 437 l 1,8,-1
 228 298 l 1,9,-1
 220 159 l 1,10,-1
 351 159 l 1,11,-1
 351 110 l 1,12,-1
 216 94 l 1,13,-1
 208 -45 l 1,14,-1
 159 -45 l 1,15,-1
 151 94 l 1,16,-1
 15 110 l 1,17,-1
 15 159 l 1,18,-1
 147 159 l 1,19,-1
 139 298 l 1,20,-1
 147 437 l 1,21,-1
 15 437 l 1,0,-1
EndSplineSet
EndChar

StartChar: at
Encoding: 64 64 140
Width: 882
Flags: HMW
HStem: -172 37<294.5 407.5 294.5 407.5> -12 41<581 640.5> 442 20G<506 514.5> 448 20G<604 627 627 627> 555 37<397.5 585.5>
VStem: 50 71<42 222 42 237> 245 71<81 177.5 81 234.5> 761 71<240 377>
LayerCount: 2
Fore
SplineSet
747 514.5 m 128,-1,1
 832 437 832 437 832 304.5 c 128,-1,2
 832 172 832 172 755 80 c 128,-1,3
 678 -12 678 -12 562 -12 c 0,4,5
 528 -12 528 -12 511 3 c 128,-1,6
 494 18 494 18 493 51 c 1,7,-1
 442 27 l 2,8,9
 359 -12 359 -12 319.5 -12 c 128,-1,10
 280 -12 280 -12 262.5 15.5 c 128,-1,11
 245 43 245 43 245 111 c 128,-1,12
 245 179 245 179 261.5 238.5 c 128,-1,13
 278 298 278 298 303.5 334.5 c 128,-1,14
 329 371 329 371 365.5 398.5 c 128,-1,15
 402 426 402 426 434.5 439 c 128,-1,16
 467 452 467 452 506 462 c 1,17,18
 528 462 528 462 581 441 c 1,19,-1
 604 468 l 1,20,-1
 627 468 l 1,21,22
 605 368 605 368 581 228.5 c 128,-1,23
 557 89 557 89 557 65 c 0,24,25
 557 29 557 29 597 29 c 128,-1,26
 637 29 637 29 670.5 54.5 c 128,-1,27
 704 80 704 80 723 121 c 0,28,29
 761 203 761 203 761 295 c 0,30,31
 761 416 761 416 692.5 485.5 c 128,-1,32
 624 555 624 555 513.5 555 c 128,-1,33
 403 555 403 555 311 488 c 128,-1,34
 219 421 219 421 170 322.5 c 128,-1,35
 121 224 121 224 121 113.5 c 128,-1,36
 121 3 121 3 188.5 -66 c 128,-1,37
 256 -135 256 -135 372.5 -135 c 128,-1,38
 489 -135 489 -135 596 -50 c 1,39,-1
 643 -73 l 1,40,41
 513 -172 513 -172 366 -172 c 128,-1,42
 219 -172 219 -172 134.5 -94.5 c 128,-1,43
 50 -17 50 -17 50 109.5 c 128,-1,44
 50 236 50 236 112.5 345 c 128,-1,45
 175 454 175 454 285.5 523 c 128,-1,46
 396 592 396 592 529 592 c 128,-1,0
 662 592 662 592 747 514.5 c 128,-1,1
358 40 m 0,47,48
 382 40 382 40 425 60 c 2,49,-1
 495 92 l 1,50,-1
 549 405 l 1,51,-1
 474 405 l 2,52,53
 418 405 418 405 381 358.5 c 128,-1,54
 344 312 344 312 330 248 c 128,-1,55
 316 184 316 184 316 105 c 0,56,57
 316 40 316 40 358 40 c 0,47,48
EndSplineSet
EndChar

StartChar: asterisk
Encoding: 42 42 141
Width: 449
Flags: HMW
HStem: 353 21G<141 151> 551 21G<209 239 209 209> 614 21G<59.5 77> 617 21G<373 390.5> 692 20G<213.5 232.5>
VStem: 183 80<674 704 674 704>
LayerCount: 2
Fore
SplineSet
239 551 m 1,0,-1
 209 551 l 1,1,2
 200 572 200 572 191.5 617.5 c 128,-1,3
 183 663 183 663 183 700 c 0,4,5
 183 712 183 712 223 712 c 128,-1,6
 263 712 263 712 263 700 c 0,7,8
 263 663 263 663 255 617 c 128,-1,9
 247 571 247 571 239 551 c 1,0,-1
203 545 m 1,10,-1
 193 516 l 1,11,12
 159 516 159 516 99 524.5 c 128,-1,13
 39 533 39 533 39 546 c 0,14,15
 39 562 39 562 48 588 c 128,-1,16
 57 614 57 614 68 614 c 0,17,18
 81 614 81 614 134 586.5 c 128,-1,19
 187 559 187 559 203 545 c 1,10,-1
197 509 m 1,20,-1
 222 490 l 1,21,22
 217 469 217 469 196.5 427 c 0,23,24
 160.380952381 353 160.380952381 353 150 353 c 0,25,26
 136 353 136 353 112.5 371 c 128,-1,27
 89 389 89 389 89 399 c 0,28,29
 89 401 89 401 100.5 416.5 c 128,-1,30
 112 432 112 432 145.5 465 c 128,-1,31
 179 498 179 498 197 509 c 1,20,-1
230 492 m 1,32,-1
 255 510 l 1,33,34
 273 499 273 499 307.5 466.5 c 0,35,36
 355.379501385 421.396121884 355.379501385 421.396121884 364 402 c 1,37,38
 364 391 364 391 340 373 c 128,-1,39
 316 355 316 355 308 355 c 128,-1,40
 300 355 300 355 298 357 c 0,41,42
 277 388 277 388 256 430 c 128,-1,43
 235 472 235 472 230 492 c 1,32,-1
257 519 m 1,44,-1
 247 548 l 1,45,46
 263 562 263 562 316 589.5 c 128,-1,47
 369 617 369 617 382 617 c 0,48,49
 393 617 393 617 402 591 c 128,-1,50
 411 565 411 565 411 549 c 0,51,52
 411 536 411 536 351 527.5 c 128,-1,53
 291 519 291 519 257 519 c 1,44,-1
EndSplineSet
EndChar

StartChar: yen
Encoding: 165 165 142
Width: 510
Flags: HMW
HStem: 0 21G<119.5 127 385 392.5> 531 20G<34.5 40 191 197 333 340 470 476>
VStem: 217 78<52 179 52 179 216 222 222 222>
LayerCount: 2
Fore
SplineSet
416 216 m 1,0,-1
 416 179 l 1,1,-1
 295 179 l 1,2,-1
 295 52 l 1,3,-1
 400 30 l 1,4,5
 400 0 400 0 385 0 c 0,6,7
 352 0 352 0 259 4 c 1,8,-1
 127 0 l 2,9,10
 112 0 112 0 112 30 c 1,11,-1
 217 52 l 1,12,-1
 217 179 l 1,13,-1
 100 179 l 1,14,-1
 100 216 l 1,15,-1
 217 216 l 1,16,-1
 217 222 l 1,17,-1
 195 263 l 1,18,-1
 100 263 l 1,19,-1
 100 300 l 1,20,-1
 176 300 l 1,21,-1
 73 499 l 1,22,-1
 26 521 l 1,23,24
 26 551 26 551 40 551 c 2,25,-1
 118 547 l 1,26,-1
 191 551 l 2,27,28
 205 551 205 551 205 521 c 1,29,-1
 146 501 l 1,30,-1
 268 262 l 1,31,-1
 388 501 l 1,32,-1
 326 521 l 1,33,34
 326 551 326 551 340 551 c 2,35,-1
 408 547 l 1,36,-1
 470 551 l 2,37,38
 484 551 484 551 484 521 c 1,39,-1
 437 499 l 1,40,-1
 334 300 l 1,41,-1
 416 300 l 1,42,-1
 416 263 l 1,43,-1
 315 263 l 1,44,-1
 295 223 l 1,45,-1
 295 216 l 1,46,-1
 416 216 l 1,0,-1
EndSplineSet
EndChar

StartChar: bracketleft
Encoding: 91 91 143
Width: 247
Flags: HMW
HStem: -233 51<147 156.5 147 242> 680 51<147 156.5>
VStem: 73 74<-92 -14 512 590>
LayerCount: 2
Fore
SplineSet
117 249 m 1,0,1
 73 395 73 395 73 563 c 0,2,3
 73 593 73 593 87 731 c 1,4,-1
 242 731 l 2,5,6
 259 731 259 731 259 697 c 0,7,8
 259 694.981818182 259 694.981818182 207.5 687.490909091 c 128,-1,9
 156 680 156 680 147 680 c 1,10,-1
 147 -182 l 1,11,12
 163 -182 163 -182 211 -190 c 128,-1,13
 259 -198 259 -198 259 -199 c 0,14,15
 259 -233 259 -233 242 -233 c 2,16,-1
 87 -233 l 1,17,18
 73 -130 73 -130 73 -65 c 0,19,20
 73 103 73 103 117 249 c 1,0,1
EndSplineSet
Position2: "'case' Case-Sensitive Forms in Latin lookup 1 per glyph data 0" dx=0 dy=70 dh=0 dv=0
EndChar

StartChar: braceleft
Encoding: 123 123 144
Width: 272
Flags: HMW
HStem: -233 20 680 20 710 21
VStem: 98 68<-92 -64 -182 -20 562 590> 98 103
LayerCount: 2
Fore
SplineSet
144 253 m 1,0,-1
 144 245 l 1,1,2
 201 236 201 236 201 193 c 0,3,4
 201 186 201 186 183.5 72 c 128,-1,5
 166 -42 166 -42 166 -182 c 1,6,7
 184 -182 184 -182 234 -190 c 128,-1,8
 284 -198 284 -198 284 -199 c 0,9,10
 284 -233 284 -233 267 -233 c 2,11,-1
 112 -233 l 1,12,13
 98 -130 98 -130 98 -65 c 0,14,15
 98 83 98 83 142 209 c 1,16,-1
 42 236 l 1,17,-1
 42 263 l 1,18,-1
 142 290 l 1,19,20
 98 416 98 416 98 563 c 0,21,22
 98 593 98 593 112 731 c 1,23,-1
 267 731 l 2,24,25
 284 731 284 731 284 697 c 0,26,27
 284 694.779661017 284 694.779661017 229.5 687.389830508 c 128,-1,28
 175 680 175 680 166 680 c 1,29,30
 166 540 166 540 183.5 426.5 c 128,-1,31
 201 313 201 313 201 306 c 0,32,33
 201 262 201 262 144 253 c 1,0,-1
EndSplineSet
Position2: "'case' Case-Sensitive Forms in Latin lookup 1 per glyph data 0" dx=0 dy=70 dh=0 dv=0
EndChar

StartChar: bracketright
Encoding: 93 93 145
Width: 247
Flags: HMW
HStem: -233 51<90.5 100 90.5 160> 680 51<90.5 100>
VStem: 100 74<-92 -14 512 590>
LayerCount: 2
Fore
SplineSet
130 249 m 1,0,1
 174 103 174 103 174 -65 c 0,2,3
 174 -95 174 -95 160 -233 c 1,4,-1
 5 -233 l 2,5,6
 -12 -233 -12 -233 -12 -199 c 0,7,8
 -12 -196.981818182 -12 -196.981818182 39.5 -189.490909091 c 128,-1,9
 91 -182 91 -182 100 -182 c 1,10,-1
 100 680 l 1,11,12
 84 680 84 680 36 688 c 128,-1,13
 -12 696 -12 696 -12 697 c 0,14,15
 -12 731 -12 731 5 731 c 2,16,-1
 160 731 l 1,17,18
 174 628 174 628 174 563 c 0,19,20
 174 395 174 395 130 249 c 1,0,1
EndSplineSet
Position2: "'case' Case-Sensitive Forms in Latin lookup 1 per glyph data 0" dx=0 dy=70 dh=0 dv=0
EndChar

StartChar: braceright
Encoding: 125 125 146
Width: 272
Flags: HMW
HStem: -233 21G<-3.5 5 5 160> -202 20G<96 106> 711 20G<5 160 160 160>
VStem: 71 103 106 68<-92 -64 562 590>
LayerCount: 2
Fore
SplineSet
128 245 m 1,0,-1
 128 253 l 1,1,2
 71 262 71 262 71 305 c 0,3,4
 71 312 71 312 88.5 426 c 128,-1,5
 106 540 106 540 106 680 c 1,6,7
 88 680 88 680 38 688 c 128,-1,8
 -12 696 -12 696 -12 697 c 0,9,10
 -12 731 -12 731 5 731 c 2,11,-1
 160 731 l 1,12,13
 174 628 174 628 174 563 c 0,14,15
 174 415 174 415 130 289 c 1,16,-1
 230 262 l 1,17,-1
 230 235 l 1,18,-1
 130 208 l 1,19,20
 174 82 174 82 174 -65 c 0,21,22
 174 -95 174 -95 160 -233 c 1,23,-1
 5 -233 l 2,24,25
 -12 -233 -12 -233 -12 -199 c 0,26,27
 -12 -196.779661017 -12 -196.779661017 42.5 -189.389830508 c 128,-1,28
 97 -182 97 -182 106 -182 c 1,29,30
 106 -42 106 -42 88.5 71.5 c 128,-1,31
 71 185 71 185 71 192 c 0,32,33
 71 236 71 236 128 245 c 1,0,-1
EndSplineSet
Position2: "'case' Case-Sensitive Forms in Latin lookup 1 per glyph data 0" dx=0 dy=70 dh=0 dv=0
EndChar

StartChar: parenleft
Encoding: 40 40 147
Width: 247
Flags: HMW
HStem: -241 21G<198 198> 708 20G<243 243>
VStem: 44 81<133 298 133 312.5>
LayerCount: 2
Fore
SplineSet
229 -237 m 1,0,-1
 198 -241 l 1,1,2
 124 -160 124 -160 84 -38.5 c 128,-1,3
 44 83 44 83 44 225 c 0,4,5
 44 367 44 367 96 506 c 128,-1,6
 148 645 148 645 243 728 c 1,7,-1
 270 716 l 1,8,9
 197 631 197 631 161 492.5 c 128,-1,10
 125 354 125 354 125 222.5 c 0,11,12
 125 91 125 91 153.5 -34 c 128,-1,13
 182 -159 182 -159 229 -237 c 1,0,-1
EndSplineSet
Position2: "'case' Case-Sensitive Forms in Latin lookup 1 per glyph data 0" dx=0 dy=70 dh=0 dv=0
EndChar

StartChar: parenright
Encoding: 41 41 148
Width: 247
Flags: HMW
HStem: -241 21G<4 4> 708 20G<49 49>
VStem: 122 81<189 354>
LayerCount: 2
Fore
SplineSet
18 724 m 1,0,-1
 49 728 l 1,1,2
 123 647 123 647 163 525.5 c 128,-1,3
 203 404 203 404 203 262 c 0,4,5
 203 120 203 120 151 -19 c 128,-1,6
 99 -158 99 -158 4 -241 c 1,7,-1
 -23 -229 l 1,8,9
 50 -144 50 -144 86 -5.5 c 128,-1,10
 122 133 122 133 122 264.5 c 0,11,12
 122 396 122 396 93.5 521 c 128,-1,13
 65 646 65 646 18 724 c 1,0,-1
EndSplineSet
Position2: "'case' Case-Sensitive Forms in Latin lookup 1 per glyph data 0" dx=0 dy=70 dh=0 dv=0
EndChar

StartChar: quoteleft
Encoding: 8216 8216 149
Width: 204
Flags: HMW
HStem: 476 21G<62.5 91.5> 719 20G<164 164>
VStem: 31 113<555 563.5 532.5 620>
LayerCount: 2
Fore
SplineSet
136 483 m 1,0,1
 106 476 106 476 81 476 c 128,-1,2
 56 476 56 476 43.5 507 c 128,-1,3
 31 538 31 538 31 588.5 c 128,-1,4
 31 639 31 639 68 683 c 128,-1,5
 105 727 105 727 164 739 c 1,6,-1
 173 710 l 1,7,8
 134 698 134 698 112.5 671.5 c 128,-1,9
 91 645 91 645 91 612 c 2,10,-1
 91 608 l 1,11,12
 97 609 97 609 107 609 c 0,13,14
 144 609 144 609 144 548 c 0,15,16
 144 521 144 521 136 483 c 1,0,1
EndSplineSet
EndChar

StartChar: fraction
Encoding: 8260 8260 150
Width: 305
Flags: HMW
HStem: -208 21G<-60 -60 -60 -1> 652 20G<306 365 365 365>
LayerCount: 2
Fore
SplineSet
-60 -208 m 1,0,-1
 306 672 l 1,1,-1
 365 672 l 1,2,-1
 -1 -208 l 1,3,-1
 -60 -208 l 1,0,-1
EndSplineSet
EndChar

StartChar: backslash
Encoding: 92 92 151
Width: 327
Flags: HMW
HStem: -50 21G<303 357 303 303> 730 20G<-30 24 24 24>
LayerCount: 2
Fore
SplineSet
24 750 m 1,0,-1
 357 -50 l 1,1,-1
 303 -50 l 1,2,-1
 -30 750 l 1,3,-1
 24 750 l 1,0,-1
EndSplineSet
EndChar

StartChar: greater
Encoding: 62 62 152
Width: 510
Flags: HMW
HStem: 87 21G<73 73> 448 20G<73 73>
LayerCount: 2
Fore
SplineSet
73 408 m 1,0,-1
 73 468 l 1,1,-1
 437 306 l 1,2,-1
 437 249 l 1,3,-1
 73 87 l 1,4,-1
 73 147 l 1,5,-1
 372 277 l 1,6,-1
 73 408 l 1,0,-1
EndSplineSet
EndChar

StartChar: less
Encoding: 60 60 153
Width: 510
Flags: HMW
HStem: 87 21G<437 437> 448 20G<437 437>
LayerCount: 2
Fore
SplineSet
437 147 m 1,0,-1
 437 87 l 1,1,-1
 73 249 l 1,2,-1
 73 306 l 1,3,-1
 437 468 l 1,4,-1
 437 408 l 1,5,-1
 138 277 l 1,6,-1
 437 147 l 1,0,-1
EndSplineSet
EndChar

StartChar: plusminus
Encoding: 177 177 154
Width: 510
Flags: HMW
HStem: -12 57<73 437 73 437> 95 21G<226 283 226 226> 249 57<73 226 73 226 283 437> 439 20G<226 283 283 283>
VStem: 226 57<95 249 95 249 306 459>
LayerCount: 2
Fore
SplineSet
73 249 m 1,0,-1
 73 306 l 1,1,-1
 226 306 l 1,2,-1
 226 459 l 1,3,-1
 283 459 l 1,4,-1
 283 306 l 1,5,-1
 437 306 l 1,6,-1
 437 249 l 1,7,-1
 283 249 l 1,8,-1
 283 95 l 1,9,-1
 226 95 l 1,10,-1
 226 249 l 1,11,-1
 73 249 l 1,0,-1
73 -12 m 1,12,-1
 73 45 l 1,13,-1
 437 45 l 1,14,-1
 437 -12 l 1,15,-1
 73 -12 l 1,12,-1
EndSplineSet
EndChar

StartChar: bar
Encoding: 124 124 155
Width: 270
Flags: HMW
HStem: -208 21G<100 100 100 170> 653 20G<100 170 170 170>
VStem: 100 70<-208 673 -208 673>
LayerCount: 2
Fore
SplineSet
100 -208 m 1,0,-1
 100 673 l 1,1,-1
 170 673 l 1,2,-1
 170 -208 l 1,3,-1
 100 -208 l 1,0,-1
EndSplineSet
Position2: "'case' Case-Sensitive Forms in Latin lookup 1 per glyph data 0" dx=0 dy=70 dh=0 dv=0
EndChar

StartChar: brokenbar
Encoding: 166 166 156
Width: 270
Flags: HMW
HStem: -208 21G<100 100 100 170> 653 20G<100 170 170 170>
VStem: 100 70<-208 143 -208 143 322 673>
LayerCount: 2
Fore
SplineSet
100 -208 m 1,0,-1
 100 143 l 1,1,-1
 170 143 l 1,2,-1
 170 -208 l 1,3,-1
 100 -208 l 1,0,-1
100 322 m 1,4,-1
 100 673 l 1,5,-1
 170 673 l 1,6,-1
 170 322 l 1,7,-1
 100 322 l 1,4,-1
EndSplineSet
Position2: "'case' Case-Sensitive Forms in Latin lookup 1 per glyph data 0" dx=0 dy=70 dh=0 dv=0
EndChar

StartChar: degree
Encoding: 176 176 157
Width: 318
Flags: HMW
HStem: 439 46<133 185 133 197.5> 670 47<133 185>
VStem: 20 46<552 604 552 616.5> 251 47<552 604>
LayerCount: 2
Fore
SplineSet
20 578 m 128,-1,1
 20 636 20 636 60.5 676.5 c 128,-1,2
 101 717 101 717 159 717 c 128,-1,3
 217 717 217 717 257.5 676.5 c 128,-1,4
 298 636 298 636 298 578 c 128,-1,5
 298 520 298 520 257.5 479.5 c 128,-1,6
 217 439 217 439 159 439 c 128,-1,7
 101 439 101 439 60.5 479.5 c 128,-1,0
 20 520 20 520 20 578 c 128,-1,1
66 578 m 128,-1,9
 66 539 66 539 93 512 c 128,-1,10
 120 485 120 485 159 485 c 128,-1,11
 198 485 198 485 224.5 512 c 128,-1,12
 251 539 251 539 251 578 c 128,-1,13
 251 617 251 617 224.5 643.5 c 128,-1,14
 198 670 198 670 159 670 c 128,-1,15
 120 670 120 670 93 643.5 c 128,-1,8
 66 617 66 617 66 578 c 128,-1,9
EndSplineSet
EndChar

StartChar: percent
Encoding: 37 37 158
Width: 751
Flags: HMW
HStem: -56 21G<193 193 193 252> -12 42<555.5 602.5 555.5 616.5> 296 42<148.5 195.5 148.5 209.5> 598 43<148.5 195.5> 665 20G<500 559 559 559>
VStem: 30 76<424 512 424 525> 238 76<424 474 414 512> 437 76<116 204 116 217> 645 76<116 166 106 204>
LayerCount: 2
Fore
SplineSet
273.5 598 m 128,-1,1
 313 555 313 555 313.5 471 c 128,-1,2
 314 387 314 387 273.5 341.5 c 128,-1,3
 233 296 233 296 169.5 296 c 128,-1,4
 106 296 106 296 68 340 c 128,-1,5
 30 384 30 384 30 467 c 128,-1,6
 30 550 30 550 71 595.5 c 128,-1,7
 112 641 112 641 173 641 c 128,-1,0
 234 641 234 641 273.5 598 c 128,-1,1
238 468 m 128,-1,9
 238 535 238 535 222.5 566.5 c 128,-1,10
 207 598 207 598 172 598 c 128,-1,11
 137 598 137 598 121.5 566.5 c 128,-1,12
 106 535 106 535 106 468 c 128,-1,13
 106 401 106 401 121.5 369.5 c 128,-1,14
 137 338 137 338 172 338 c 128,-1,15
 207 338 207 338 222.5 369.5 c 128,-1,8
 238 401 238 401 238 468 c 128,-1,9
680.5 290 m 128,-1,17
 720 247 720 247 720.5 163 c 128,-1,18
 721 79 721 79 680.5 33.5 c 128,-1,19
 640 -12 640 -12 576.5 -12 c 128,-1,20
 513 -12 513 -12 475 32 c 128,-1,21
 437 76 437 76 437 159 c 128,-1,22
 437 242 437 242 478 287.5 c 128,-1,23
 519 333 519 333 580 333 c 128,-1,16
 641 333 641 333 680.5 290 c 128,-1,17
645 160 m 128,-1,25
 645 227 645 227 629.5 258.5 c 128,-1,26
 614 290 614 290 579 290 c 128,-1,27
 544 290 544 290 528.5 258.5 c 128,-1,28
 513 227 513 227 513 160 c 128,-1,29
 513 93 513 93 528.5 61.5 c 128,-1,30
 544 30 544 30 579 30 c 128,-1,31
 614 30 614 30 629.5 61.5 c 128,-1,24
 645 93 645 93 645 160 c 128,-1,25
193 -56 m 1,32,-1
 500 685 l 1,33,-1
 559 685 l 1,34,-1
 252 -56 l 1,35,-1
 193 -56 l 1,32,-1
EndSplineSet
EndChar

StartChar: perthousand
Encoding: 8240 8240 159
Width: 1073
Flags: HMW
HStem: -56 21G<193 193 193 252> -12 21G<535 616.5 857 938.5> 598 21G<148.5 195.5> 621 20G<134.5 212> 665 20G<500 559 559 559>
VStem: 30 76<424 512 424 525> 238 76<424 512> 437 76<116 204 116 217> 645 76<116 204> 759 76<116 204 116 217> 967 76<116 204>
LayerCount: 2
Fore
SplineSet
274 597.5 m 128,-1,1
 314 554 314 554 314 470.5 c 128,-1,2
 314 387 314 387 273.5 341.5 c 128,-1,3
 233 296 233 296 169.5 296 c 128,-1,4
 106 296 106 296 68 340 c 128,-1,5
 30 384 30 384 30 467 c 128,-1,6
 30 550 30 550 71 595.5 c 128,-1,7
 112 641 112 641 173 641 c 128,-1,0
 234 641 234 641 274 597.5 c 128,-1,1
238 468 m 128,-1,9
 238 535 238 535 222.5 566.5 c 128,-1,10
 207 598 207 598 172 598 c 128,-1,11
 137 598 137 598 121.5 566.5 c 128,-1,12
 106 535 106 535 106 468 c 128,-1,13
 106 401 106 401 121.5 369.5 c 128,-1,14
 137 338 137 338 172 338 c 128,-1,15
 207 338 207 338 222.5 369.5 c 128,-1,8
 238 401 238 401 238 468 c 128,-1,9
681 289.5 m 128,-1,17
 721 246 721 246 721 162.5 c 128,-1,18
 721 79 721 79 680.5 33.5 c 128,-1,19
 640 -12 640 -12 576.5 -12 c 128,-1,20
 513 -12 513 -12 475 32 c 128,-1,21
 437 76 437 76 437 159 c 128,-1,22
 437 242 437 242 478 287.5 c 128,-1,23
 519 333 519 333 580 333 c 128,-1,16
 641 333 641 333 681 289.5 c 128,-1,17
645 160 m 128,-1,25
 645 227 645 227 629.5 258.5 c 128,-1,26
 614 290 614 290 579 290 c 128,-1,27
 544 290 544 290 528.5 258.5 c 128,-1,28
 513 227 513 227 513 160 c 128,-1,29
 513 93 513 93 528.5 61.5 c 128,-1,30
 544 30 544 30 579 30 c 128,-1,31
 614 30 614 30 629.5 61.5 c 128,-1,24
 645 93 645 93 645 160 c 128,-1,25
193 -56 m 1,32,-1
 500 685 l 1,33,-1
 559 685 l 1,34,-1
 252 -56 l 1,35,-1
 193 -56 l 1,32,-1
1003 289.5 m 128,-1,37
 1043 246 1043 246 1043 162.5 c 128,-1,38
 1043 79 1043 79 1002.5 33.5 c 128,-1,39
 962 -12 962 -12 898.5 -12 c 128,-1,40
 835 -12 835 -12 797 32 c 128,-1,41
 759 76 759 76 759 159 c 128,-1,42
 759 242 759 242 800 287.5 c 128,-1,43
 841 333 841 333 902 333 c 128,-1,36
 963 333 963 333 1003 289.5 c 128,-1,37
967 160 m 128,-1,45
 967 227 967 227 951.5 258.5 c 128,-1,46
 936 290 936 290 901 290 c 128,-1,47
 866 290 866 290 850.5 258.5 c 128,-1,48
 835 227 835 227 835 160 c 128,-1,49
 835 93 835 93 850.5 61.5 c 128,-1,50
 866 30 866 30 901 30 c 128,-1,51
 936 30 936 30 951.5 61.5 c 128,-1,44
 967 93 967 93 967 160 c 128,-1,45
EndSplineSet
EndChar

StartChar: guilsinglleft
Encoding: 8249 8249 160
Width: 297
Flags: HMW
HStem: 10 21G<218 218> 424 20G<218 218>
LayerCount: 2
Fore
SplineSet
30 213 m 1,0,-1
 30 241 l 1,1,-1
 218 444 l 1,2,-1
 247 420 l 1,3,-1
 117 227 l 1,4,-1
 247 34 l 1,5,-1
 218 10 l 1,6,-1
 30 213 l 1,0,-1
EndSplineSet
Position2: "'case' Case-Sensitive Forms in Latin lookup 1 per glyph data 0" dx=0 dy=70 dh=0 dv=0
EndChar

StartChar: guilsinglright
Encoding: 8250 8250 161
Width: 297
Flags: HMW
HStem: 10 21G<79 79> 424 20G<79 79>
LayerCount: 2
Fore
SplineSet
267 241 m 1,0,-1
 267 213 l 1,1,-1
 79 10 l 1,2,-1
 50 34 l 1,3,-1
 180 227 l 1,4,-1
 50 420 l 1,5,-1
 79 444 l 1,6,-1
 267 241 l 1,0,-1
EndSplineSet
Position2: "'case' Case-Sensitive Forms in Latin lookup 1 per glyph data 0" dx=0 dy=70 dh=0 dv=0
EndChar

StartChar: periodcentered
Encoding: 183 183 162
Width: 197
Flags: HMW
HStem: 173 21G<70 96> 286 20G<102.5 126.5>
VStem: 48 101<229.5 249.5>
LayerCount: 2
Fore
SplineSet
113 306 m 0,0,1
 149 306 149 306 149 244 c 1,2,-1
 142 182 l 1,3,4
 107 173 107 173 85 173 c 0,5,6
 48 173 48 173 48 234 c 0,7,8
 48 261 48 261 56 299 c 1,9,10
 92 306 92 306 113 306 c 0,0,1
EndSplineSet
EndChar

StartChar: K
Encoding: 75 75 163
Width: 623
Flags: HMW
HStem: 0 21G<57.5 65 294 301.5 506 637 506 506> 680 20G<57.5 65 273 280.5 406.5 414 590 596>
VStem: 134 78
LayerCount: 2
Fore
SplineSet
414 700 m 2,0,-1
 495 696 l 1,1,-1
 590 700 l 2,2,3
 604 700 604 700 604 670 c 1,4,-1
 537 648 l 1,5,-1
 371 357 l 1,6,7
 401 344 401 344 427 299 c 2,8,-1
 572 52 l 1,9,-1
 652 30 l 1,10,11
 652 0 652 0 637 0 c 2,12,-1
 506 0 l 1,13,-1
 345 295 l 2,14,15
 330 324 330 324 315 336 c 1,16,-1
 217 324 l 1,17,-1
 208 52 l 1,18,-1
 309 30 l 1,19,20
 309 0 309 0 294 0 c 0,21,22
 261 0 261 0 168 4 c 1,23,-1
 65 0 l 2,24,25
 50 0 50 0 50 30 c 1,26,-1
 134 52 l 1,27,-1
 134 648 l 1,28,-1
 50 670 l 1,29,30
 50 700 50 700 65 700 c 0,31,32
 74 700 74 700 168 696 c 1,33,-1
 273 700 l 2,34,35
 288 700 288 700 288 670 c 1,36,-1
 208 648 l 1,37,-1
 217 372 l 1,38,-1
 331 372 l 1,39,-1
 471 650 l 1,40,-1
 399 670 l 1,41,42
 399 700 399 700 414 700 c 2,0,-1
EndSplineSet
Position2: "'cpsp' Capital Spacing in Latin lookup 0 subtable" dx=7 dy=0 dh=35 dv=0
EndChar

StartChar: R
Encoding: 82 82 164
Width: 596
Flags: HMW
HStem: 0 21G<57.5 65 294 301.5 489 620 489 489> 658 42<322.5 351>
VStem: 134 78 451 72<474 546.5>
LayerCount: 2
Fore
SplineSet
134 648 m 1,0,-1
 50 670 l 1,1,2
 50 700 50 700 65 700 c 0,3,4
 74 700 74 700 168 696 c 1,5,6
 319 700 319 700 324 700 c 0,7,8
 415 700 415 700 469 644 c 128,-1,9
 523 588 523 588 523 508 c 0,10,11
 523 454 523 454 485 403.5 c 128,-1,12
 447 353 447 353 379 330 c 1,13,14
 404 315 404 315 427 276 c 2,15,-1
 555 52 l 1,16,-1
 635 30 l 1,17,18
 635 0 635 0 620 0 c 2,19,-1
 489 0 l 1,20,-1
 345 272 l 2,21,22
 327 304 327 304 310 316 c 1,23,-1
 216 301 l 1,24,-1
 208 52 l 1,25,-1
 309 30 l 1,26,27
 309 0 309 0 294 0 c 0,28,29
 261 0 261 0 168 4 c 1,30,-1
 65 0 l 2,31,32
 50 0 50 0 50 30 c 1,33,-1
 134 52 l 1,34,-1
 134 648 l 1,0,-1
298 658 m 1,35,-1
 208 648 l 1,36,-1
 217 358 l 1,37,-1
 280 354 l 1,38,39
 365 354 365 354 408 400 c 128,-1,40
 451 446 451 446 451 508 c 0,41,42
 451 570 451 570 411.5 614 c 128,-1,43
 372 658 372 658 298 658 c 1,35,-1
EndSplineSet
Position2: "'cpsp' Capital Spacing in Latin lookup 0 subtable" dx=7 dy=0 dh=35 dv=0
EndChar

StartChar: Q
Encoding: 81 81 165
Width: 747
Flags: HMW
HStem: -231 21G -12 48<303.5 368> 658 54<348.5 443>
VStem: 40 88<246 416 246 471> 619 88<250 454.5>
LayerCount: 2
Fore
SplineSet
460 -212 m 2,0,-1
 368 -12 l 1,1,2
 220 -12 220 -12 130 82 c 128,-1,3
 40 176 40 176 40 349.5 c 0,4,5
 40 523 40 523 136 617.5 c 128,-1,6
 232 712 232 712 377 712 c 0,7,8
 522 712 522 712 614.5 621.5 c 128,-1,9
 707 531 707 531 707 365 c 0,10,11
 707 199 707 199 631 105 c 128,-1,12
 555 11 555 11 426 -8 c 1,13,-1
 553 -210 l 1,14,15
 519 -231 519 -231 493.5 -231 c 0,16,17
 468 -231 468 -231 460 -212 c 2,0,-1
128 352 m 0,18,19
 128 199 128 199 196 117.5 c 128,-1,20
 264 36 264 36 373.5 36 c 0,21,22
 483 36 483 36 551 117.5 c 128,-1,23
 619 199 619 199 619 349.5 c 0,24,25
 619 500 619 500 551 579 c 128,-1,26
 483 658 483 658 373 658 c 0,27,28
 301 658 301 658 229 634 c 1,29,30
 182 599 182 599 155 523.5 c 128,-1,31
 128 448 128 448 128 352 c 0,18,19
EndSplineSet
Position2: "'cpsp' Capital Spacing in Latin lookup 0 subtable" dx=7 dy=0 dh=35 dv=0
EndChar

StartChar: quotesinglbase
Encoding: 8218 8218 166
Width: 197
Flags: HMW
HStem: -142 21G<28 28> -12 21G<70 87.5> 101 20G<100.5 129.5>
VStem: 48 113<33.5 42 -23 64.5>
LayerCount: 2
Fore
SplineSet
56 114 m 1,0,1
 86 121 86 121 111 121 c 128,-1,2
 136 121 136 121 148.5 90 c 128,-1,3
 161 59 161 59 161 8.5 c 128,-1,4
 161 -42 161 -42 124 -86 c 128,-1,5
 87 -130 87 -130 28 -142 c 1,6,-1
 19 -113 l 1,7,8
 58 -101 58 -101 79.5 -74.5 c 128,-1,9
 101 -48 101 -48 101 -15 c 2,10,-1
 101 -11 l 1,11,12
 95 -12 95 -12 85 -12 c 0,13,14
 48 -12 48 -12 48 49 c 0,15,16
 48 76 48 76 56 114 c 1,0,1
EndSplineSet
EndChar

StartChar: quotedblbase
Encoding: 8222 8222 167
Width: 380
Flags: HMW
HStem: -142 21G<40 40 216 216> -12 21G<82 99.5 258 275.5> 101 20G<112.5 141.5 288.5 317.5>
VStem: 60 113<33.5 42 -23 64.5> 113 60<-15 -11 -11 -11> 236 113<33.5 42 -23 64.5> 289 60<-15 -11 -11 -11>
LayerCount: 2
Fore
SplineSet
244 114 m 1,0,1
 274 121 274 121 299 121 c 128,-1,2
 324 121 324 121 336.5 90 c 128,-1,3
 349 59 349 59 349 8.5 c 128,-1,4
 349 -42 349 -42 312 -86 c 128,-1,5
 275 -130 275 -130 216 -142 c 1,6,-1
 207 -113 l 1,7,8
 246 -101 246 -101 267.5 -74.5 c 128,-1,9
 289 -48 289 -48 289 -15 c 2,10,-1
 289 -11 l 1,11,12
 283 -12 283 -12 273 -12 c 0,13,14
 236 -12 236 -12 236 49 c 0,15,16
 236 76 236 76 244 114 c 1,0,1
68 114 m 1,17,18
 98 121 98 121 123 121 c 128,-1,19
 148 121 148 121 160.5 90 c 128,-1,20
 173 59 173 59 173 8.5 c 128,-1,21
 173 -42 173 -42 136 -86 c 128,-1,22
 99 -130 99 -130 40 -142 c 1,23,-1
 31 -113 l 1,24,25
 70 -101 70 -101 91.5 -74.5 c 128,-1,26
 113 -48 113 -48 113 -15 c 2,27,-1
 113 -11 l 1,28,29
 107 -12 107 -12 97 -12 c 0,30,31
 60 -12 60 -12 60 49 c 0,32,33
 60 76 60 76 68 114 c 1,17,18
EndSplineSet
EndChar

StartChar: bullet
Encoding: 8226 8226 168
Width: 251
Flags: HMW
HStem: 186 21G<82.5 121.5> 327 20G<131.5 167.5>
LayerCount: 2
Fore
SplineSet
147 347 m 0,0,1
 201 347 201 347 201 271 c 0,2,3
 201 241 201 241 193.5 208 c 2,4,-1
 191 197 l 1,5,6
 138 186 138 186 105 186 c 0,7,8
 50 186 50 186 50 260 c 0,9,10
 50 293 50 293 59 327.5 c 2,11,-1
 62 339 l 1,12,13
 116 347 116 347 147 347 c 0,0,1
EndSplineSet
Position2: "'case' Case-Sensitive Forms in Latin lookup 1 per glyph data 0" dx=0 dy=70 dh=0 dv=0
EndChar

StartChar: registered
Encoding: 174 174 169
Width: 626
Flags: HMW
HStem: 217 37<244.5 381.5 244.5 391.5> 746 37<244.5 381.5>
VStem: 30 37<431.5 568.5 431.5 578.5> 226 51 380 48<565 598> 559 37<431.5 568.5>
LayerCount: 2
Fore
SplineSet
226 645 m 1,0,-1
 185 655 l 1,1,2
 185 681 185 681 198 681 c 2,3,-1
 247 678 l 1,4,-1
 323 681 l 1,5,6
 372 681 372 681 400 652 c 128,-1,7
 428 623 428 623 428 581 c 0,8,9
 428 556 428 556 410.5 532 c 128,-1,10
 393 508 393 508 363 494 c 1,11,12
 368 490 368 490 381 471 c 1,13,-1
 442 361 l 1,14,-1
 477 353 l 1,15,16
 477 328 477 328 463 328 c 2,17,-1
 401 328 l 1,18,-1
 329 463 l 2,19,20
 321 476 321 476 316 481 c 1,21,-1
 279 475 l 1,22,-1
 275 364 l 1,23,-1
 324 353 l 1,24,25
 324 328 324 328 310 328 c 0,26,27
 294 328 294 328 249 330 c 1,28,-1
 198 328 l 2,29,30
 185 328 185 328 185 353 c 1,31,-1
 226 364 l 1,32,-1
 226 645 l 1,0,-1
313 649 m 1,33,-1
 275 645 l 1,34,-1
 280 512 l 1,35,-1
 304 512 l 1,36,37
 341 513 341 513 360.5 533.5 c 128,-1,38
 380 554 380 554 380 581 c 0,39,40
 380 608 380 608 362.5 628 c 128,-1,41
 345 648 345 648 313 649 c 1,33,-1
67 500 m 128,-1,43
 67 397 67 397 138.5 325.5 c 128,-1,44
 210 254 210 254 313 254 c 128,-1,45
 416 254 416 254 487.5 325.5 c 128,-1,46
 559 397 559 397 559 500 c 128,-1,47
 559 603 559 603 487.5 674.5 c 128,-1,48
 416 746 416 746 313 746 c 128,-1,49
 210 746 210 746 138.5 674.5 c 128,-1,42
 67 603 67 603 67 500 c 128,-1,43
30 500 m 128,-1,51
 30 618 30 618 112.5 700.5 c 128,-1,52
 195 783 195 783 313 783 c 128,-1,53
 431 783 431 783 513.5 700.5 c 128,-1,54
 596 618 596 618 596 500 c 128,-1,55
 596 382 596 382 513.5 299.5 c 128,-1,56
 431 217 431 217 313 217 c 128,-1,57
 195 217 195 217 112.5 299.5 c 128,-1,50
 30 382 30 382 30 500 c 128,-1,51
EndSplineSet
EndChar

StartChar: copyright
Encoding: 169 169 170
Width: 626
Flags: HMW
HStem: 217 37<244.5 381.5 244.5 391.5> 322 37<294.5 340.5 294.5 343.5> 573 21G<420 423> 626 20G<315 336> 746 37<244.5 381.5>
VStem: 30 37<431.5 568.5 431.5 578.5> 158 56<456 534 456 565> 559 37<431.5 568.5>
LayerCount: 2
Fore
SplineSet
440 434 m 1,0,-1
 436 355 l 1,1,2
 391 322 391 322 319.5 322 c 0,3,4
 248 322 248 322 203 369.5 c 128,-1,5
 158 417 158 417 158 504 c 0,6,7
 158 591 158 591 206.5 639 c 128,-1,8
 255 687 255 687 321.5 687 c 0,9,10
 388 687 388 687 437 654 c 1,11,-1
 423 573 l 1,12,13
 389 573 389 573 389 585 c 2,14,-1
 389 636 l 1,15,16
 355 646 355 646 322.5 646 c 0,17,18
 290 646 290 646 260 635 c 1,19,20
 240 618 240 618 227 582.5 c 128,-1,21
 214 547 214 547 214 505 c 0,22,23
 214 434 214 434 245 396.5 c 128,-1,24
 276 359 276 359 320.5 359 c 0,25,26
 365 359 365 359 393 375 c 1,27,-1
 404 424 l 2,28,29
 407 434 407 434 440 434 c 1,0,-1
67 500 m 128,-1,31
 67 397 67 397 138.5 325.5 c 128,-1,32
 210 254 210 254 313 254 c 128,-1,33
 416 254 416 254 487.5 325.5 c 128,-1,34
 559 397 559 397 559 500 c 128,-1,35
 559 603 559 603 487.5 674.5 c 128,-1,36
 416 746 416 746 313 746 c 128,-1,37
 210 746 210 746 138.5 674.5 c 128,-1,30
 67 603 67 603 67 500 c 128,-1,31
30 500 m 128,-1,39
 30 618 30 618 112.5 700.5 c 128,-1,40
 195 783 195 783 313 783 c 128,-1,41
 431 783 431 783 513.5 700.5 c 128,-1,42
 596 618 596 618 596 500 c 128,-1,43
 596 382 596 382 513.5 299.5 c 128,-1,44
 431 217 431 217 313 217 c 128,-1,45
 195 217 195 217 112.5 299.5 c 128,-1,38
 30 382 30 382 30 500 c 128,-1,39
EndSplineSet
EndChar

StartChar: onesuperior
Encoding: 185 185 171
Width: 410
Flags: HMW
HStem: 185 21G<77.5 86 325 334> 596 20G<228 235>
VStem: 188 63<236 562 562 562>
LayerCount: 2
Fore
SplineSet
251 236 m 1,0,-1
 343 216 l 1,1,2
 343 185 343 185 325 185 c 2,3,-1
 211 188 l 1,4,-1
 86 185 l 2,5,6
 69 185 69 185 69 216 c 1,7,-1
 188 236 l 1,8,-1
 188 562 l 1,9,-1
 85 536 l 1,10,11
 75 536 75 536 67 552 c 128,-1,12
 59 568 59 568 59 575 c 0,13,14
 59 577.363636364 59 577.363636364 144 596.681818182 c 128,-1,15
 229 616 229 616 235 616 c 1,16,17
 251 610 251 610 251 590 c 2,18,-1
 251 236 l 1,0,-1
EndSplineSet
EndChar

StartChar: twosuperior
Encoding: 178 178 172
Width: 410
Flags: HMW
HStem: 185 45 573 43<175.5 209.5>
VStem: 271 67<465.5 526.5>
LayerCount: 2
Fore
SplineSet
294 587.5 m 128,-1,1
 338 559 338 559 338 499.5 c 128,-1,2
 338 440 338 440 297.5 389 c 128,-1,3
 257 338 257 338 186 284 c 2,4,-1
 105 222 l 1,5,-1
 306 238 l 1,6,-1
 306 280 l 2,7,8
 306 297 306 297 338 297 c 0,9,10
 340.020408163 297 340.020408163 297 349.510204082 250.5 c 128,-1,11
 359 204 359 204 359 199 c 0,12,13
 357 185 357 185 338 185 c 2,14,-1
 52 185 l 1,15,-1
 32 212 l 1,16,-1
 174 340 l 2,17,18
 202 365 202 365 220 384.5 c 128,-1,19
 238 404 238 404 254.5 436 c 128,-1,20
 271 468 271 468 271 502.5 c 128,-1,21
 271 537 271 537 247.5 555 c 128,-1,22
 224 573 224 573 186 573 c 128,-1,23
 148 573 148 573 115 558 c 1,24,-1
 117 515 l 2,25,26
 117 508 117 508 102.5 504 c 128,-1,27
 88 500 88 500 79 500 c 1,28,29
 61 571 61 571 59 588 c 1,30,31
 115 616 115 616 182.5 616 c 128,-1,0
 250 616 250 616 294 587.5 c 128,-1,1
95 215 m 1,32,-1
 95 237 l 1,33,-1
 108 237 l 1,34,-1
 117 215 l 1,35,-1
 95 215 l 1,32,-1
EndSplineSet
EndChar

StartChar: threesuperior
Encoding: 179 179 173
Width: 410
Flags: HMW
HStem: 177 43<178 215.5 178 235> 573 43<181.5 216.5>
VStem: 266 65<490 529> 284 65<272.5 322>
LayerCount: 2
Fore
SplineSet
143 384 m 1,0,-1
 137 418 l 1,1,2
 201 425 201 425 233.5 450.5 c 128,-1,3
 266 476 266 476 266 507.5 c 0,4,5
 266 539 266 539 246.5 556 c 128,-1,6
 227 573 227 573 193.5 573 c 0,7,8
 160 573 160 573 130 559 c 1,9,-1
 132 515 l 2,10,11
 132 509 132 509 117 504.5 c 128,-1,12
 102 500 102 500 93 500 c 1,13,14
 75 580 75 580 73 588 c 1,15,16
 131 616 131 616 191 616 c 0,17,18
 251 616 251 616 291 590.5 c 128,-1,19
 331 565 331 565 331 507 c 0,20,21
 331 449 331 449 259 409 c 1,22,23
 301 397 301 397 325 367 c 128,-1,24
 349 337 349 337 349 302 c 0,25,26
 349 246 349 246 303.5 211.5 c 128,-1,27
 258 177 258 177 190 177 c 0,28,29
 122 177 122 177 57 205 c 1,30,31
 58 213 58 213 69.5 253 c 128,-1,32
 81 293 81 293 83 293 c 0,33,34
 91 293 91 293 102.5 289.5 c 128,-1,35
 114 286 114 286 114 278 c 2,36,-1
 112 235 l 1,37,38
 145 220 145 220 187.5 220 c 0,39,40
 230 220 230 220 257 241 c 128,-1,41
 284 262 284 262 284 298.5 c 0,42,43
 284 335 284 335 246.5 359 c 128,-1,44
 209 383 209 383 143 384 c 1,0,-1
EndSplineSet
EndChar

StartChar: trademark
Encoding: 8482 8482 174
Width: 798
Flags: HMW
HStem: 347 21G<93 100 231 238 326.5 334 435 442.5 616.5 624 737 744> 606 21G<30 33 298 301> 663 36 680 20G<40.5 46 285 291 343 350 720 727>
VStem: 140 51 368 40 651 51
LayerCount: 2
Fore
SplineSet
381 349 m 1,0,-1
 334 347 l 2,1,2
 319 347 319 347 319 372 c 1,3,-1
 361 383 l 1,4,-1
 376 663 l 1,5,-1
 336 673 l 1,6,7
 336 700 336 700 350 700 c 2,8,-1
 433 698 l 1,9,-1
 530 459 l 1,10,-1
 640 698 l 1,11,-1
 720 700 l 2,12,13
 734 700 734 700 734 673 c 1,14,-1
 694 663 l 1,15,-1
 710 383 l 1,16,-1
 751 372 l 1,17,18
 751 347 751 347 737 347 c 2,19,-1
 680 349 l 1,20,-1
 624 347 l 2,21,22
 609 347 609 347 609 372 c 1,23,-1
 656 383 l 1,24,-1
 646 617 l 1,25,-1
 534 371 l 1,26,-1
 516 371 l 1,27,-1
 414 611 l 1,28,-1
 403 383 l 1,29,-1
 450 372 l 1,30,31
 450 347 450 347 435 347 c 2,32,-1
 381 349 l 1,0,-1
165 697 m 1,33,-1
 285 700 l 2,34,35
 307 700 307 700 307 691 c 0,36,37
 307 690 307 690 301 606 c 1,38,39
 268 606 268 606 267 618 c 2,40,-1
 261 664 l 1,41,-1
 190 662 l 1,42,-1
 192 523 l 1,43,-1
 190 383 l 1,44,-1
 245 372 l 1,45,46
 245 347 245 347 231 347 c 0,47,48
 212 347 212 347 167 349 c 1,49,-1
 100 347 l 2,50,51
 86 347 86 347 86 372 c 1,52,-1
 141 383 l 1,53,-1
 139 523 l 1,54,-1
 141 662 l 1,55,-1
 71 664 l 1,56,-1
 64 618 l 2,57,58
 62 606 62 606 30 606 c 1,59,-1
 24 691 l 2,60,61
 24 700 24 700 46 700 c 2,62,-1
 165 697 l 1,33,-1
EndSplineSet
EndChar

StartChar: aacute
Encoding: 225 225 175
Width: 521
Flags: HMW
HStem: 0 21G<13.5 19 175 184 329 338 506 514.5> 151 47 469 20G<229 294 294 294> 517 20G<152 152> 518 21G<163 163> 660 20G
LayerCount: 2
Fore
SplineSet
163 518 m 1,0,-1
 152 537 l 1,1,2
 249 603 249 603 344 680 c 1,3,4
 349 674 349 674 359 650 c 128,-1,5
 369 626 369 626 369 615 c 0,6,7
 369 604 369 604 364 601 c 0,8,9
 289 553 289 553 163 518 c 1,0,-1
126 45 m 1,10,-1
 193 31 l 1,11,12
 193 0 193 0 175 0 c 0,13,14
 167 0 167 0 88 3 c 1,15,-1
 19 0 l 2,16,17
 2 0 2 0 2 30 c 1,18,-1
 60 45 l 1,19,-1
 229 489 l 1,20,-1
 294 489 l 1,21,-1
 465 46 l 1,22,-1
 523 30 l 1,23,24
 523 0 523 0 505.5 0 c 0,25,26
 488 0 488 0 425 3 c 1,27,-1
 338 0 l 2,28,29
 320 0 320 0 320 31 c 1,30,-1
 388 45 l 1,31,-1
 348 156 l 1,32,-1
 162 146 l 1,33,-1
 126 45 l 1,10,-1
255 412 m 1,34,-1
 179 198 l 1,35,-1
 332 198 l 1,36,-1
 255 412 l 1,34,-1
EndSplineSet
EndChar

StartChar: ogonek
Encoding: 731 731 176
Width: 469
Flags: HMW
HStem: -233 21G<204.5 257.5> -209 20G<237 261.5> -20 20G<247 326 326 326>
VStem: 135 60<-153.5 -116.5>
LayerCount: 2
Fore
SplineSet
247 0 m 1,0,-1
 326 0 l 1,1,2
 261 -17 261 -17 228 -55.5 c 128,-1,3
 195 -94 195 -94 195 -128 c 0,4,5
 195 -189 195 -189 252 -189 c 0,6,7
 282 -189 282 -189 307 -172 c 1,8,9
 320 -184 320 -184 324 -202 c 1,10,11
 289 -233 289 -233 239.5 -233 c 128,-1,12
 190 -233 190 -233 162.5 -206.5 c 128,-1,13
 135 -180 135 -180 135 -141 c 128,-1,14
 135 -102 135 -102 163.5 -63 c 128,-1,15
 192 -24 192 -24 247 0 c 1,0,-1
EndSplineSet
EndChar

StartChar: onehalf
Encoding: 189 189 177
Width: 990
Flags: HMW
HStem: -56 20G 0 45 231 21G<77.5 86 325 334> 388 43<740.5 774.5> 642 20G<228 235> 681 19
VStem: 188 63<282 608 608 608> 836 67<280.5 341.5>
LayerCount: 2
Fore
SplineSet
859 402.5 m 128,-1,1
 903 374 903 374 903 314.5 c 128,-1,2
 903 255 903 255 862.5 204 c 128,-1,3
 822 153 822 153 751 99 c 2,4,-1
 670 37 l 1,5,-1
 871 53 l 1,6,-1
 871 95 l 2,7,8
 871 112 871 112 903 112 c 0,9,10
 905.020408163 112 905.020408163 112 914.510204082 65.5 c 128,-1,11
 924 19 924 19 924 14 c 0,12,13
 922 0 922 0 903 0 c 2,14,-1
 617 0 l 1,15,-1
 597 27 l 1,16,-1
 739 155 l 2,17,18
 767 180 767 180 785 199.5 c 128,-1,19
 803 219 803 219 819.5 251 c 128,-1,20
 836 283 836 283 836 317.5 c 128,-1,21
 836 352 836 352 812.5 370 c 128,-1,22
 789 388 789 388 751 388 c 128,-1,23
 713 388 713 388 680 373 c 1,24,-1
 682 330 l 2,25,26
 682 323 682 323 667.5 319 c 128,-1,27
 653 315 653 315 644 315 c 1,28,29
 626 386 626 386 624 403 c 1,30,31
 680 431 680 431 747.5 431 c 128,-1,0
 815 431 815 431 859 402.5 c 128,-1,1
660 30 m 1,32,-1
 660 52 l 1,33,-1
 673 52 l 1,34,-1
 682 30 l 1,35,-1
 660 30 l 1,32,-1
251 282 m 1,36,-1
 343 262 l 1,37,38
 343 231 343 231 325 231 c 2,39,-1
 211 234 l 1,40,-1
 86 231 l 2,41,42
 69 231 69 231 69 262 c 1,43,-1
 188 282 l 1,44,-1
 188 608 l 1,45,-1
 85 582 l 1,46,47
 75 582 75 582 67 598 c 128,-1,48
 59 614 59 614 59 621 c 0,49,50
 59 623.363636364 59 623.363636364 144 642.681818182 c 128,-1,51
 229 662 229 662 235 662 c 1,52,53
 251 656 251 656 251 636 c 2,54,-1
 251 282 l 1,36,-1
284 -56 m 1,55,-1
 599 700 l 1,56,-1
 650 700 l 1,57,-1
 335 -56 l 1,58,-1
 284 -56 l 1,55,-1
EndSplineSet
EndChar

StartChar: onequarter
Encoding: 188 188 178
Width: 990
Flags: HMW
HStem: -56 20G 0 21G<720.5 729 888 888> 92 40<600 785 643 785 643 785 845 914> 231 21G<77.5 86 325 334> 419 20G<714 714> 642 20G<228 235> 681 19
VStem: 188 63<282 608 608 608> 785 60<45 92 45 92 132 267>
LayerCount: 2
Fore
SplineSet
845 45 m 1,0,-1
 905 31 l 1,1,2
 905 1 905 1 888 0 c 1,3,-1
 814 3 l 1,4,-1
 729 0 l 2,5,6
 712 0 712 0 712 31 c 1,7,-1
 785 45 l 1,8,-1
 785 92 l 1,9,-1
 607 92 l 2,10,11
 583 92 583 92 583 108 c 0,12,13
 583 114 583 114 714 439 c 1,14,-1
 774 421 l 1,15,-1
 643 132 l 1,16,-1
 785 132 l 1,17,-1
 785 286 l 1,18,19
 822 293 822 293 836 293 c 1,20,21
 845 288 845 288 845 267 c 2,22,-1
 845 132 l 1,23,-1
 914 132 l 1,24,-1
 914 92 l 1,25,-1
 845 92 l 1,26,-1
 845 45 l 1,0,-1
251 282 m 1,27,-1
 343 262 l 1,28,29
 343 231 343 231 325 231 c 2,30,-1
 211 234 l 1,31,-1
 86 231 l 2,32,33
 69 231 69 231 69 262 c 1,34,-1
 188 282 l 1,35,-1
 188 608 l 1,36,-1
 85 582 l 1,37,38
 75 582 75 582 67 598 c 128,-1,39
 59 614 59 614 59 621 c 0,40,41
 59 623.363636364 59 623.363636364 144 642.681818182 c 128,-1,42
 229 662 229 662 235 662 c 1,43,44
 251 656 251 656 251 636 c 2,45,-1
 251 282 l 1,27,-1
307 -56 m 1,46,-1
 622 700 l 1,47,-1
 673 700 l 1,48,-1
 358 -56 l 1,49,-1
 307 -56 l 1,46,-1
EndSplineSet
EndChar

StartChar: threequarters
Encoding: 190 190 179
Width: 990
Flags: HMW
HStem: -56 20G 0 21G<720.5 729 888 888> 92 40<600 785 643 785 643 785 845 914> 223 43<178 215.5 178 235> 419 20G<714 714> 619 43<181.5 216.5> 681 19
VStem: 266 65<536 575> 284 65<318.5 368> 785 60<45 92 45 92 132 267>
LayerCount: 2
Fore
SplineSet
845 45 m 1,0,-1
 905 31 l 1,1,2
 905 1 905 1 888 0 c 1,3,-1
 814 3 l 1,4,-1
 729 0 l 2,5,6
 712 0 712 0 712 31 c 1,7,-1
 785 45 l 1,8,-1
 785 92 l 1,9,-1
 607 92 l 2,10,11
 583 92 583 92 583 108 c 0,12,13
 583 114 583 114 714 439 c 1,14,-1
 774 421 l 1,15,-1
 643 132 l 1,16,-1
 785 132 l 1,17,-1
 785 286 l 1,18,19
 822 293 822 293 836 293 c 1,20,21
 845 288 845 288 845 267 c 2,22,-1
 845 132 l 1,23,-1
 914 132 l 1,24,-1
 914 92 l 1,25,-1
 845 92 l 1,26,-1
 845 45 l 1,0,-1
143 430 m 1,27,-1
 137 464 l 1,28,29
 201 471 201 471 233.5 496.5 c 128,-1,30
 266 522 266 522 266 553.5 c 0,31,32
 266 585 266 585 246.5 602 c 128,-1,33
 227 619 227 619 193.5 619 c 0,34,35
 160 619 160 619 130 605 c 1,36,-1
 132 561 l 2,37,38
 132 555 132 555 117 550.5 c 128,-1,39
 102 546 102 546 93 546 c 1,40,41
 75 626 75 626 73 634 c 1,42,43
 131 662 131 662 191 662 c 0,44,45
 251 662 251 662 291 636.5 c 128,-1,46
 331 611 331 611 331 553 c 0,47,48
 331 495 331 495 259 455 c 1,49,50
 301 443 301 443 325 413 c 128,-1,51
 349 383 349 383 349 348 c 0,52,53
 349 292 349 292 303.5 257.5 c 128,-1,54
 258 223 258 223 190 223 c 0,55,56
 122 223 122 223 57 251 c 1,57,58
 58 259 58 259 69.5 299 c 128,-1,59
 81 339 81 339 83 339 c 0,60,61
 91 339 91 339 102.5 335.5 c 128,-1,62
 114 332 114 332 114 324 c 2,63,-1
 112 281 l 1,64,65
 145 266 145 266 187.5 266 c 0,66,67
 230 266 230 266 257 287 c 128,-1,68
 284 308 284 308 284 344.5 c 0,69,70
 284 381 284 381 246.5 405 c 128,-1,71
 209 429 209 429 143 430 c 1,27,-1
313 -56 m 1,72,-1
 628 700 l 1,73,-1
 679 700 l 1,74,-1
 364 -56 l 1,75,-1
 313 -56 l 1,72,-1
EndSplineSet
EndChar

StartChar: acircumflex
Encoding: 226 226 180
Width: 521
Flags: HMW
HStem: 0 21G<11.5 17 173 182 327 336 504 512.5> 151 47 469 20G<227 292 292 292> 509 21G<157 157 350 350> 665 20G<231 276 276 276>
LayerCount: 2
Fore
SplineSet
254 611 m 1,0,-1
 157 509 l 1,1,-1
 131 526 l 1,2,3
 195 617 195 617 231 685 c 1,4,-1
 276 685 l 1,5,6
 312 617 312 617 376 526 c 1,7,-1
 350 509 l 1,8,-1
 254 611 l 1,0,-1
124 45 m 1,9,-1
 191 31 l 1,10,11
 191 0 191 0 173 0 c 0,12,13
 165 0 165 0 86 3 c 1,14,-1
 17 0 l 2,15,16
 0 0 0 0 0 30 c 1,17,-1
 58 45 l 1,18,-1
 227 489 l 1,19,-1
 292 489 l 1,20,-1
 463 46 l 1,21,-1
 521 30 l 1,22,23
 521 0 521 0 503.5 0 c 0,24,25
 486 0 486 0 423 3 c 1,26,-1
 336 0 l 2,27,28
 318 0 318 0 318 31 c 1,29,-1
 386 45 l 1,30,-1
 346 156 l 1,31,-1
 160 146 l 1,32,-1
 124 45 l 1,9,-1
253 412 m 1,33,-1
 177 198 l 1,34,-1
 330 198 l 1,35,-1
 253 412 l 1,33,-1
EndSplineSet
EndChar

StartChar: atilde
Encoding: 227 227 181
Width: 521
Flags: HMW
HStem: 0 21G<11.5 17 173 182 327 336 504 512.5> 151 47 469 20G<227 292 292 292> 534 21G 537 64 564 37 564 64 611 20G
LayerCount: 2
Fore
SplineSet
394 651 m 1,0,-1
 411 632 l 1,1,2
 368 557 368 557 310 557 c 0,3,4
 286 557 286 557 241.5 570.5 c 128,-1,5
 197 584 197 584 170.5 584 c 0,6,7
 144 584 144 584 112 554 c 1,8,-1
 95 573 l 1,9,10
 138 648 138 648 196 648 c 0,11,12
 220 648 220 648 264.5 634.5 c 128,-1,13
 309 621 309 621 335.5 621 c 0,14,15
 362 621 362 621 394 651 c 1,0,-1
124 45 m 1,16,-1
 191 31 l 1,17,18
 191 0 191 0 173 0 c 0,19,20
 165 0 165 0 86 3 c 1,21,-1
 17 0 l 2,22,23
 0 0 0 0 0 30 c 1,24,-1
 58 45 l 1,25,-1
 227 489 l 1,26,-1
 292 489 l 1,27,-1
 463 46 l 1,28,-1
 521 30 l 1,29,30
 521 0 521 0 503.5 0 c 0,31,32
 486 0 486 0 423 3 c 1,33,-1
 336 0 l 2,34,35
 318 0 318 0 318 31 c 1,36,-1
 386 45 l 1,37,-1
 346 156 l 1,38,-1
 160 146 l 1,39,-1
 124 45 l 1,16,-1
253 412 m 1,40,-1
 177 198 l 1,41,-1
 330 198 l 1,42,-1
 253 412 l 1,40,-1
EndSplineSet
EndChar

StartChar: adieresis
Encoding: 228 228 182
Width: 521
Flags: HMW
HStem: 0 21G<11.5 17 173 182 327 336 504 512.5> 151 47 469 20G<227 292 292 292> 544 21G<155 176.5 303 324.5> 639 20G<184 203.5 332 351.5>
VStem: 136 87<593.5 609.5> 284 87<593.5 609.5>
LayerCount: 2
Fore
SplineSet
192 659 m 0,0,1
 223 659 223 659 223 606 c 0,2,3
 223 571 223 571 217 553 c 1,4,5
 185 544 185 544 168 544 c 0,6,7
 136 544 136 544 136 596 c 0,8,9
 136 631 136 631 143 652 c 1,10,11
 176 659 176 659 192 659 c 0,0,1
340 659 m 0,12,13
 371 659 371 659 371 606 c 0,14,15
 371 571 371 571 365 553 c 1,16,17
 333 544 333 544 316 544 c 0,18,19
 284 544 284 544 284 596 c 0,20,21
 284 631 284 631 291 652 c 1,22,23
 324 659 324 659 340 659 c 0,12,13
124 45 m 1,24,-1
 191 31 l 1,25,26
 191 0 191 0 173 0 c 0,27,28
 165 0 165 0 86 3 c 1,29,-1
 17 0 l 2,30,31
 0 0 0 0 0 30 c 1,32,-1
 58 45 l 1,33,-1
 227 489 l 1,34,-1
 292 489 l 1,35,-1
 463 46 l 1,36,-1
 521 30 l 1,37,38
 521 0 521 0 503.5 0 c 0,39,40
 486 0 486 0 423 3 c 1,41,-1
 336 0 l 2,42,43
 318 0 318 0 318 31 c 1,44,-1
 386 45 l 1,45,-1
 346 156 l 1,46,-1
 160 146 l 1,47,-1
 124 45 l 1,24,-1
253 412 m 1,48,-1
 177 198 l 1,49,-1
 330 198 l 1,50,-1
 253 412 l 1,48,-1
EndSplineSet
EndChar

StartChar: aring
Encoding: 229 229 183
Width: 521
Flags: HMW
HStem: 0 21G<11.5 17 173 182 327 336 504 512.5> 151 47 469 20G<227 292 292 292> 500 33 656 20G
VStem: 161 46<584.5 615 584.5 632> 300 46<584.5 621.5>
LayerCount: 2
Fore
SplineSet
320.5 669 m 128,-1,1
 346 647 346 647 346 604 c 128,-1,2
 346 561 346 561 320.5 538 c 128,-1,3
 295 515 295 515 253 515 c 128,-1,4
 211 515 211 515 186 538 c 128,-1,5
 161 561 161 561 161 602.5 c 128,-1,6
 161 644 161 644 188 667.5 c 128,-1,7
 215 691 215 691 255 691 c 128,-1,0
 295 691 295 691 320.5 669 c 128,-1,1
227 653 m 0,8,9
 207 644 207 644 207 610 c 128,-1,10
 207 576 207 576 220.5 562 c 128,-1,11
 234 548 234 548 254 548 c 0,12,13
 300 548 300 548 300 604 c 0,14,15
 300 629 300 629 287 643.5 c 128,-1,16
 274 658 274 658 255.5 658 c 128,-1,17
 237 658 237 658 227 653 c 0,8,9
124 45 m 1,18,-1
 191 31 l 1,19,20
 191 0 191 0 173 0 c 0,21,22
 165 0 165 0 86 3 c 1,23,-1
 17 0 l 2,24,25
 0 0 0 0 0 30 c 1,26,-1
 58 45 l 1,27,-1
 227 489 l 1,28,-1
 292 489 l 1,29,-1
 463 46 l 1,30,-1
 521 30 l 1,31,32
 521 0 521 0 503.5 0 c 128,-1,33
 486 0 486 0 423 3 c 1,34,-1
 336 0 l 2,35,36
 318 0 318 0 318 31 c 1,37,-1
 386 45 l 1,38,-1
 346 156 l 1,39,-1
 160 146 l 1,40,-1
 124 45 l 1,18,-1
253 412 m 1,41,-1
 177 198 l 1,42,-1
 330 198 l 1,43,-1
 253 412 l 1,41,-1
EndSplineSet
EndChar

StartChar: eacute
Encoding: 233 233 185
Width: 482
Flags: HMW
HStem: 0 21G<64 73 403 412.5> 3 46 227 47 441 46 469 20G<64 73 398 407> 518 21G<153 153> 660 20G
VStem: 119 71
LayerCount: 2
Fore
SplineSet
153 518 m 1,0,-1
 142 537 l 1,1,2
 239 603 239 603 334 680 c 1,3,4
 339 674 339 674 349 650 c 128,-1,5
 359 626 359 626 359 615 c 128,-1,6
 359 604 359 604 354 601 c 0,7,8
 279 553 279 553 153 518 c 1,0,-1
403 0 m 2,9,-1
 156 6 l 1,10,-1
 73 0 l 1,11,12
 55 0 55 0 55 31 c 1,13,-1
 119 45 l 1,14,-1
 119 444 l 1,15,-1
 55 458 l 1,16,17
 55 489 55 489 73 489 c 0,18,19
 88 489 88 489 156 486 c 1,20,-1
 398 489 l 2,21,22
 417.5 489 417.5 489 422.75 485.5 c 128,-1,23
 428 482 428 482 428 475 c 1,24,-1
 410 369 l 1,25,26
 369 369 369 369 369 384 c 2,27,-1
 369 442 l 1,28,-1
 186 440 l 1,29,-1
 195 274 l 1,30,-1
 380 274 l 1,31,-1
 380 233 l 1,32,-1
 194 222 l 1,33,-1
 186 49 l 1,34,-1
 378 49 l 1,35,-1
 395 106 l 2,36,37
 398 117 398 117 406.5 120 c 128,-1,38
 415 123 415 123 437 123 c 1,39,-1
 431 12 l 1,40,41
 429 0 429 0 403 0 c 2,9,-1
EndSplineSet
EndChar

StartChar: ecircumflex
Encoding: 234 234 186
Width: 482
Flags: HMW
HStem: 0 21G<64 73 403 412.5> 3 46 227 47 441 46 469 20G<64 73 398 407> 509 21G<154 154 347 347> 665 20G<228 273 273 273>
VStem: 119 71
LayerCount: 2
Fore
SplineSet
251 611 m 1,0,-1
 154 509 l 1,1,-1
 128 526 l 1,2,3
 192 617 192 617 228 685 c 1,4,-1
 273 685 l 1,5,6
 309 617 309 617 373 526 c 1,7,-1
 347 509 l 1,8,-1
 251 611 l 1,0,-1
403 0 m 2,9,-1
 156 6 l 1,10,-1
 73 0 l 1,11,12
 55 0 55 0 55 31 c 1,13,-1
 119 45 l 1,14,-1
 119 444 l 1,15,-1
 55 458 l 1,16,17
 55 489 55 489 73 489 c 0,18,19
 88 489 88 489 156 486 c 1,20,-1
 398 489 l 2,21,22
 417.5 489 417.5 489 422.75 485.5 c 128,-1,23
 428 482 428 482 428 475 c 1,24,-1
 410 369 l 1,25,26
 369 369 369 369 369 384 c 2,27,-1
 369 442 l 1,28,-1
 186 440 l 1,29,-1
 195 274 l 1,30,-1
 380 274 l 1,31,-1
 380 233 l 1,32,-1
 194 222 l 1,33,-1
 186 49 l 1,34,-1
 378 49 l 1,35,-1
 395 106 l 2,36,37
 398 117 398 117 406.5 120 c 128,-1,38
 415 123 415 123 437 123 c 1,39,-1
 431 12 l 1,40,41
 429 0 429 0 403 0 c 2,9,-1
EndSplineSet
EndChar

StartChar: edieresis
Encoding: 235 235 187
Width: 482
Flags: HMW
HStem: 0 21G<64 73 403 412.5> 3 46 227 47 441 46 469 20G<64 73 398 407> 544 21G<152 173.5 300 321.5> 639 20G<181 200.5 329 348.5>
VStem: 119 71 133 87<593.5 609.5> 281 87<593.5 609.5>
LayerCount: 2
Fore
SplineSet
189 659 m 0,0,1
 220 659 220 659 220 606 c 0,2,3
 220 571 220 571 214 553 c 1,4,5
 182 544 182 544 165 544 c 0,6,7
 133 544 133 544 133 596 c 0,8,9
 133 631 133 631 140 652 c 1,10,11
 173 659 173 659 189 659 c 0,0,1
337 659 m 0,12,13
 368 659 368 659 368 606 c 0,14,15
 368 571 368 571 362 553 c 1,16,17
 330 544 330 544 313 544 c 0,18,19
 281 544 281 544 281 596 c 0,20,21
 281 631 281 631 288 652 c 1,22,23
 321 659 321 659 337 659 c 0,12,13
403 0 m 2,24,-1
 156 6 l 1,25,-1
 73 0 l 1,26,27
 55 0 55 0 55 31 c 1,28,-1
 119 45 l 1,29,-1
 119 444 l 1,30,-1
 55 458 l 1,31,32
 55 489 55 489 73 489 c 0,33,34
 88 489 88 489 156 486 c 1,35,-1
 398 489 l 2,36,37
 417.5 489 417.5 489 422.75 485.5 c 128,-1,38
 428 482 428 482 428 475 c 1,39,-1
 410 369 l 1,40,41
 369 369 369 369 369 384 c 2,42,-1
 369 442 l 1,43,-1
 186 440 l 1,44,-1
 195 274 l 1,45,-1
 380 274 l 1,46,-1
 380 233 l 1,47,-1
 194 222 l 1,48,-1
 186 49 l 1,49,-1
 378 49 l 1,50,-1
 395 106 l 2,51,52
 398 117 398 117 406.5 120 c 128,-1,53
 415 123 415 123 437 123 c 1,54,-1
 431 12 l 1,55,56
 429 0 429 0 403 0 c 2,24,-1
EndSplineSet
EndChar

StartChar: igrave
Encoding: 236 236 188
Width: 309
Flags: HMW
HStem: 0 21G<64 73 237 245.5> 469 20G<64 73 237 245.5> 518 21G<254 254> 660 20G
VStem: 119 71<45 444 45 444>
LayerCount: 2
Fore
SplineSet
265 537 m 1,0,-1
 254 518 l 1,1,2
 128 553 128 553 53 601 c 0,3,4
 48 604 48 604 48 615 c 128,-1,5
 48 626 48 626 58 650 c 128,-1,6
 68 674 68 674 73 680 c 1,7,8
 165.042553191 605.489361702 165.042553191 605.489361702 238 555.5 c 2,9,-1
 265 537 l 1,0,-1
119 444 m 1,10,-1
 55 458 l 1,11,12
 55 489 55 489 73 489 c 0,13,14
 88 489 88 489 156 486 c 1,15,-1
 237 489 l 2,16,17
 254 489 254 489 254 459 c 1,18,-1
 190 444 l 1,19,-1
 190 45 l 1,20,-1
 254 31 l 1,21,22
 254 0 254 0 237 0 c 1,23,-1
 156 6 l 1,24,-1
 73 0 l 1,25,26
 55 0 55 0 55 31 c 1,27,-1
 119 45 l 1,28,-1
 119 444 l 1,10,-1
EndSplineSet
EndChar

StartChar: iacute
Encoding: 237 237 189
Width: 309
Flags: HMW
HStem: 0 21G<64 73 237 245.5> 469 20G<64 73 237 245.5> 518 21G<59 59> 660 20G
VStem: 119 71<45 444 45 444>
LayerCount: 2
Fore
SplineSet
59 518 m 1,0,-1
 48 537 l 1,1,2
 145 603 145 603 240 680 c 1,3,4
 245 674 245 674 255 650 c 128,-1,5
 265 626 265 626 265 615 c 0,6,7
 265 604 265 604 260 601 c 0,8,9
 185 553 185 553 59 518 c 1,0,-1
119 444 m 1,10,-1
 55 458 l 1,11,12
 55 489 55 489 73 489 c 0,13,14
 88 489 88 489 156 486 c 1,15,-1
 237 489 l 2,16,17
 254 489 254 489 254 459 c 1,18,-1
 190 444 l 1,19,-1
 190 45 l 1,20,-1
 254 31 l 1,21,22
 254 0 254 0 237 0 c 1,23,-1
 156 6 l 1,24,-1
 73 0 l 1,25,26
 55 0 55 0 55 31 c 1,27,-1
 119 45 l 1,28,-1
 119 444 l 1,10,-1
EndSplineSet
EndChar

StartChar: icircumflex
Encoding: 238 238 190
Width: 309
Flags: HMW
HStem: 0 21G<64 73 237 245.5> 469 20G<64 73 237 245.5> 509 21G<60 60 253 253> 665 20G<134 179 179 179>
VStem: 119 71<45 444 45 444>
LayerCount: 2
Fore
SplineSet
157 611 m 1,0,-1
 60 509 l 1,1,-1
 34 526 l 1,2,3
 98 617 98 617 134 685 c 1,4,-1
 179 685 l 1,5,6
 215 617 215 617 279 526 c 1,7,-1
 253 509 l 1,8,-1
 157 611 l 1,0,-1
119 444 m 1,9,-1
 55 458 l 1,10,11
 55 489 55 489 73 489 c 0,12,13
 88 489 88 489 156 486 c 1,14,-1
 237 489 l 2,15,16
 254 489 254 489 254 459 c 1,17,-1
 190 444 l 1,18,-1
 190 45 l 1,19,-1
 254 31 l 1,20,21
 254 0 254 0 237 0 c 1,22,-1
 156 6 l 1,23,-1
 73 0 l 1,24,25
 55 0 55 0 55 31 c 1,26,-1
 119 45 l 1,27,-1
 119 444 l 1,9,-1
EndSplineSet
EndChar

StartChar: idieresis
Encoding: 239 239 191
Width: 309
Flags: HMW
HStem: 0 21G<64 73 237 245.5> 469 20G<64 73 237 245.5> 544 21G<58 79.5 206 227.5> 639 20G<87 106.5 235 254.5>
VStem: 39 87<593.5 609.5> 119 71<45 444 45 444> 187 87<593.5 609.5>
LayerCount: 2
Fore
SplineSet
95 659 m 0,0,1
 126 659 126 659 126 606 c 0,2,3
 126 571 126 571 120 553 c 1,4,5
 88 544 88 544 71 544 c 0,6,7
 39 544 39 544 39 596 c 0,8,9
 39 631 39 631 46 652 c 1,10,11
 79 659 79 659 95 659 c 0,0,1
243 659 m 0,12,13
 274 659 274 659 274 606 c 0,14,15
 274 571 274 571 268 553 c 1,16,17
 236 544 236 544 219 544 c 0,18,19
 187 544 187 544 187 596 c 0,20,21
 187 631 187 631 194 652 c 1,22,23
 227 659 227 659 243 659 c 0,12,13
119 444 m 1,24,-1
 55 458 l 1,25,26
 55 489 55 489 73 489 c 0,27,28
 88 489 88 489 156 486 c 1,29,-1
 237 489 l 2,30,31
 254 489 254 489 254 459 c 1,32,-1
 190 444 l 1,33,-1
 190 45 l 1,34,-1
 254 31 l 1,35,36
 254 0 254 0 237 0 c 1,37,-1
 156 6 l 1,38,-1
 73 0 l 1,39,40
 55 0 55 0 55 31 c 1,41,-1
 119 45 l 1,42,-1
 119 444 l 1,24,-1
EndSplineSet
EndChar

StartChar: eth
Encoding: 240 240 192
Width: 582
Flags: HMW
HStem: -4 21G<294 369> 0 21G<64 73> 1 39 221 21G<59 59> 227 46 450 47<283 339.5> 469 20G<64 73>
VStem: 119 72 474 78<175.5 322.5>
LayerCount: 2
Fore
SplineSet
59 221 m 1,0,-1
 59 273 l 1,1,-1
 361 273 l 1,2,-1
 361 234 l 1,3,-1
 59 221 l 1,0,-1
156 486 m 1,4,5
 249 495.3 249 495.3 283 497 c 1,6,7
 392.888888889 497 392.888888889 497 468 445 c 0,8,9
 507 418 507 418 529.5 369 c 128,-1,10
 552 320 552 320 552 253 c 0,11,12
 552 126 552 126 482 61 c 128,-1,13
 412 -4 412 -4 294 -4 c 1,14,-1
 157 6 l 1,15,-1
 73 0 l 1,16,17
 55 0 55 0 55 31 c 1,18,-1
 119 45 l 1,19,-1
 119 444 l 1,20,-1
 55 458 l 1,21,22
 55 489 55 489 73 489 c 0,23,24
 88 489 88 489 156 486 c 1,4,5
196 251 m 1,25,-1
 186 50 l 1,26,27
 239 40 239 40 309 40 c 128,-1,28
 379 40 379 40 426.5 92 c 128,-1,29
 474 144 474 144 474 246 c 0,30,31
 474 450 474 450 285 450 c 0,32,33
 241 450 241 450 186 440 c 1,34,-1
 196 251 l 1,25,-1
EndSplineSet
EndChar

StartChar: ntilde
Encoding: 241 241 193
Width: 631
Flags: HMW
HStem: 0 21G<59 68 235 244 476 521 476 476> 469 20G<59 68 393.5 402 564 564> 534 21G 537 64 564 37 564 64 611 20G
VStem: 114 60 467 55
LayerCount: 2
Fore
SplineSet
456 651 m 1,0,-1
 473 632 l 1,1,2
 430 557 430 557 372 557 c 0,3,4
 348 557 348 557 303.5 570.5 c 128,-1,5
 259 584 259 584 232.5 584 c 128,-1,6
 206 584 206 584 174 554 c 1,7,-1
 157 573 l 1,8,9
 200 648 200 648 258 648 c 0,10,11
 282 648 282 648 326.5 634.5 c 128,-1,12
 371 621 371 621 397.5 621 c 128,-1,13
 424 621 424 621 456 651 c 1,0,-1
402 489 m 2,14,-1
 496 486 l 1,15,-1
 564 489 l 1,16,17
 581 487 581 487 581 458 c 1,18,-1
 524 443 l 1,19,-1
 521 0 l 1,20,-1
 476 0 l 1,21,-1
 166 385 l 1,22,23
 167 329 167 329 170 215.5 c 128,-1,24
 173 102 173 102 174 45 c 1,25,26
 199.333333333 38.6666666667 199.333333333 38.6666666667 253 31 c 1,27,28
 253 0 253 0 235 0 c 1,29,-1
 143 6 l 1,30,-1
 68 0 l 1,31,32
 50 0 50 0 50 31 c 1,33,-1
 116 46 l 1,34,-1
 113 443 l 1,35,-1
 50 457 l 1,36,37
 50 489 50 489 68 489 c 0,38,39
 82 489 82 489 173 486 c 1,40,-1
 470 110 l 1,41,-1
 464 443 l 1,42,-1
 385 457 l 1,43,44
 385 489 385 489 402 489 c 2,14,-1
EndSplineSet
EndChar

StartChar: ograve
Encoding: 242 242 194
Width: 572
Flags: HMW
HStem: -8 44<237 335 237 354> 449 48<268 335> 518 21G<387 387> 660 20G
VStem: 35 78<175.5 288.5 175.5 329> 459 78<175.5 314>
LayerCount: 2
Fore
SplineSet
398 537 m 1,0,-1
 387 518 l 1,1,2
 261 553 261 553 186 601 c 0,3,4
 181 604 181 604 181 615 c 128,-1,5
 181 626 181 626 191 650 c 128,-1,6
 201 674 201 674 206 680 c 1,7,8
 298.042553191 605.489361702 298.042553191 605.489361702 371 555.5 c 2,9,-1
 398 537 l 1,0,-1
467 434 m 128,-1,11
 537 371 537 371 537 248 c 128,-1,12
 537 125 537 125 466.5 58.5 c 128,-1,13
 396 -8 396 -8 283 -8 c 128,-1,14
 170 -8 170 -8 102.5 57.5 c 128,-1,15
 35 123 35 123 35 244.5 c 128,-1,16
 35 366 35 366 107 431.5 c 128,-1,17
 179 497 179 497 288 497 c 128,-1,10
 397 497 397 497 467 434 c 128,-1,11
113 246 m 0,18,19
 113 144 113 144 161 90 c 128,-1,20
 209 36 209 36 286 36 c 128,-1,21
 363 36 363 36 411 90 c 128,-1,22
 459 144 459 144 459 244 c 128,-1,23
 459 344 459 344 411 396.5 c 128,-1,24
 363 449 363 449 286 449 c 0,25,26
 236 449 236 449 184 434 c 1,27,28
 152 410 152 410 132.5 359.5 c 128,-1,29
 113 309 113 309 113 246 c 0,18,19
EndSplineSet
EndChar

StartChar: oacute
Encoding: 243 243 195
Width: 572
Flags: HMW
HStem: -8 44<237 335 237 354> 449 48<268 335> 518 21G<192 192> 660 20G
VStem: 35 78<175.5 288.5 175.5 329> 459 78<175.5 314>
LayerCount: 2
Fore
SplineSet
192 518 m 1,0,-1
 181 537 l 1,1,2
 278 603 278 603 373 680 c 1,3,4
 378 674 378 674 388 650 c 128,-1,5
 398 626 398 626 398 615 c 128,-1,6
 398 604 398 604 393 601 c 0,7,8
 318 553 318 553 192 518 c 1,0,-1
467 434 m 128,-1,10
 537 371 537 371 537 248 c 128,-1,11
 537 125 537 125 466.5 58.5 c 128,-1,12
 396 -8 396 -8 283 -8 c 128,-1,13
 170 -8 170 -8 102.5 57.5 c 128,-1,14
 35 123 35 123 35 244.5 c 128,-1,15
 35 366 35 366 107 431.5 c 128,-1,16
 179 497 179 497 288 497 c 128,-1,9
 397 497 397 497 467 434 c 128,-1,10
113 246 m 0,17,18
 113 144 113 144 161 90 c 128,-1,19
 209 36 209 36 286 36 c 128,-1,20
 363 36 363 36 411 90 c 128,-1,21
 459 144 459 144 459 244 c 128,-1,22
 459 344 459 344 411 396.5 c 128,-1,23
 363 449 363 449 286 449 c 0,24,25
 236 449 236 449 184 434 c 1,26,27
 152 410 152 410 132.5 359.5 c 128,-1,28
 113 309 113 309 113 246 c 0,17,18
EndSplineSet
EndChar

StartChar: ocircumflex
Encoding: 244 244 196
Width: 572
Flags: HMW
HStem: -8 44<237 335 237 354> 449 48<268 335> 509 21G<193 193 386 386> 665 20G<267 312 312 312>
VStem: 35 78<175.5 288.5 175.5 329> 459 78<175.5 314>
LayerCount: 2
Fore
SplineSet
290 611 m 1,0,-1
 193 509 l 1,1,-1
 167 526 l 1,2,3
 231 617 231 617 267 685 c 1,4,-1
 312 685 l 1,5,6
 348 617 348 617 412 526 c 1,7,-1
 386 509 l 1,8,-1
 290 611 l 1,0,-1
467 434 m 128,-1,10
 537 371 537 371 537 248 c 128,-1,11
 537 125 537 125 466.5 58.5 c 128,-1,12
 396 -8 396 -8 283 -8 c 128,-1,13
 170 -8 170 -8 102.5 57.5 c 128,-1,14
 35 123 35 123 35 244.5 c 128,-1,15
 35 366 35 366 107 431.5 c 128,-1,16
 179 497 179 497 288 497 c 128,-1,9
 397 497 397 497 467 434 c 128,-1,10
113 246 m 0,17,18
 113 144 113 144 161 90 c 128,-1,19
 209 36 209 36 286 36 c 128,-1,20
 363 36 363 36 411 90 c 128,-1,21
 459 144 459 144 459 244 c 128,-1,22
 459 344 459 344 411 396.5 c 128,-1,23
 363 449 363 449 286 449 c 0,24,25
 236 449 236 449 184 434 c 1,26,27
 152 410 152 410 132.5 359.5 c 128,-1,28
 113 309 113 309 113 246 c 0,17,18
EndSplineSet
EndChar

StartChar: otilde
Encoding: 245 245 197
Width: 572
Flags: HMW
HStem: -8 44<237 335 237 354> 449 48<268 335> 534 21G 537 64 564 37 564 64 611 20G
VStem: 35 78<175.5 288.5 175.5 329> 459 78<175.5 314>
LayerCount: 2
Fore
SplineSet
430 651 m 1,0,-1
 447 632 l 1,1,2
 404 557 404 557 346 557 c 0,3,4
 322 557 322 557 277.5 570.5 c 128,-1,5
 233 584 233 584 206.5 584 c 128,-1,6
 180 584 180 584 148 554 c 1,7,-1
 131 573 l 1,8,9
 174 648 174 648 232 648 c 0,10,11
 256 648 256 648 300.5 634.5 c 128,-1,12
 345 621 345 621 371.5 621 c 128,-1,13
 398 621 398 621 430 651 c 1,0,-1
467 434 m 128,-1,15
 537 371 537 371 537 248 c 128,-1,16
 537 125 537 125 466.5 58.5 c 128,-1,17
 396 -8 396 -8 283 -8 c 128,-1,18
 170 -8 170 -8 102.5 57.5 c 128,-1,19
 35 123 35 123 35 244.5 c 128,-1,20
 35 366 35 366 107 431.5 c 128,-1,21
 179 497 179 497 288 497 c 128,-1,14
 397 497 397 497 467 434 c 128,-1,15
113 246 m 0,22,23
 113 144 113 144 161 90 c 128,-1,24
 209 36 209 36 286 36 c 128,-1,25
 363 36 363 36 411 90 c 128,-1,26
 459 144 459 144 459 244 c 128,-1,27
 459 344 459 344 411 396.5 c 128,-1,28
 363 449 363 449 286 449 c 0,29,30
 236 449 236 449 184 434 c 1,31,32
 152 410 152 410 132.5 359.5 c 128,-1,33
 113 309 113 309 113 246 c 0,22,23
EndSplineSet
EndChar

StartChar: odieresis
Encoding: 246 246 198
Width: 572
Flags: HMW
HStem: -8 44<237 335 237 354> 449 48<268 335> 544 21G<191 212.5 339 360.5> 639 20G<220 239.5 368 387.5>
VStem: 35 78<175.5 288.5 175.5 329> 172 87<593.5 609.5> 320 87<593.5 609.5> 459 78<175.5 314>
LayerCount: 2
Fore
SplineSet
228 659 m 0,0,1
 259 659 259 659 259 606 c 0,2,3
 259 571 259 571 253 553 c 1,4,5
 221 544 221 544 204 544 c 0,6,7
 172 544 172 544 172 596 c 0,8,9
 172 631 172 631 179 652 c 1,10,11
 212 659 212 659 228 659 c 0,0,1
376 659 m 0,12,13
 407 659 407 659 407 606 c 0,14,15
 407 571 407 571 401 553 c 1,16,17
 369 544 369 544 352 544 c 0,18,19
 320 544 320 544 320 596 c 0,20,21
 320 631 320 631 327 652 c 1,22,23
 360 659 360 659 376 659 c 0,12,13
467 434 m 128,-1,25
 537 371 537 371 537 248 c 128,-1,26
 537 125 537 125 466.5 58.5 c 128,-1,27
 396 -8 396 -8 283 -8 c 128,-1,28
 170 -8 170 -8 102.5 57.5 c 128,-1,29
 35 123 35 123 35 244.5 c 128,-1,30
 35 366 35 366 107 431.5 c 128,-1,31
 179 497 179 497 288 497 c 128,-1,24
 397 497 397 497 467 434 c 128,-1,25
113 246 m 0,32,33
 113 144 113 144 161 90 c 128,-1,34
 209 36 209 36 286 36 c 128,-1,35
 363 36 363 36 411 90 c 128,-1,36
 459 144 459 144 459 244 c 128,-1,37
 459 344 459 344 411 396.5 c 128,-1,38
 363 449 363 449 286 449 c 0,39,40
 236 449 236 449 184 434 c 1,41,42
 152 410 152 410 132.5 359.5 c 128,-1,43
 113 309 113 309 113 246 c 0,32,33
EndSplineSet
EndChar

StartChar: ugrave
Encoding: 249 249 200
Width: 579
Flags: HMW
HStem: -8 49<254.5 347.5 254.5 360> 469 20G<53.5 62 220 229.5 377 385 519 529> 518 21G<392 392> 660 20G
VStem: 99 71<155 443> 436 56<153 155 155 443>
LayerCount: 2
Fore
SplineSet
403 537 m 1,0,-1
 392 518 l 1,1,2
 266 553 266 553 191 601 c 0,3,4
 186 604 186 604 186 615 c 128,-1,5
 186 626 186 626 196 650 c 128,-1,6
 206 674 206 674 211 680 c 1,7,8
 303.042553191 605.489361702 303.042553191 605.489361702 376 555.5 c 2,9,-1
 403 537 l 1,0,-1
220 489 m 2,10,11
 239 489 239 489 239 458 c 1,12,-1
 170 443 l 1,13,-1
 170 152 l 2,14,15
 170 101 170 101 202 71 c 128,-1,16
 234 41 234 41 300.5 41 c 128,-1,17
 367 41 367 41 401.5 73.5 c 128,-1,18
 436 106 436 106 436 153 c 2,19,-1
 436 443 l 1,20,-1
 366 458 l 1,21,22
 366 489 366 489 385 489 c 2,23,-1
 465 486 l 1,24,-1
 519 489 l 1,25,26
 539 489 539 489 539 458 c 1,27,-1
 492 443 l 1,28,-1
 492 155 l 2,29,30
 492 81 492 81 440.5 36.5 c 128,-1,31
 389 -8 389 -8 300 -8 c 0,32,33
 99 -8 99 -8 99 155 c 2,34,-1
 99 443 l 1,35,-1
 45 457 l 1,36,37
 45 489 45 489 62 489 c 0,38,39
 67 489 67 489 137 486 c 1,40,-1
 220 489 l 2,10,11
EndSplineSet
EndChar

StartChar: uacute
Encoding: 250 250 201
Width: 579
Flags: HMW
HStem: -8 49<254.5 347.5 254.5 360> 469 20G<53.5 62 220 229.5 377 385 519 529> 518 21G<212 212> 660 20G
VStem: 99 71<155 443> 436 56<153 155 155 443>
LayerCount: 2
Fore
SplineSet
212 518 m 1,0,-1
 201 537 l 1,1,2
 298 603 298 603 393 680 c 1,3,4
 398 674 398 674 408 650 c 128,-1,5
 418 626 418 626 418 615 c 0,6,7
 418 604 418 604 413 601 c 0,8,9
 338 553 338 553 212 518 c 1,0,-1
220 489 m 2,10,11
 239 489 239 489 239 458 c 1,12,-1
 170 443 l 1,13,-1
 170 152 l 2,14,15
 170 101 170 101 202 71 c 128,-1,16
 234 41 234 41 300.5 41 c 0,17,18
 367 41 367 41 401.5 73.5 c 128,-1,19
 436 106 436 106 436 153 c 2,20,-1
 436 443 l 1,21,-1
 366 458 l 1,22,23
 366 489 366 489 385 489 c 2,24,-1
 465 486 l 1,25,-1
 519 489 l 1,26,27
 539 489 539 489 539 458 c 1,28,-1
 492 443 l 1,29,-1
 492 155 l 2,30,31
 492 81 492 81 440.5 36.5 c 128,-1,32
 389 -8 389 -8 300 -8 c 0,33,34
 99 -8 99 -8 99 155 c 2,35,-1
 99 443 l 1,36,-1
 45 457 l 1,37,38
 45 489 45 489 62 489 c 0,39,40
 67 489 67 489 137 486 c 1,41,-1
 220 489 l 2,10,11
EndSplineSet
EndChar

StartChar: ucircumflex
Encoding: 251 251 202
Width: 579
Flags: HMW
HStem: -8 49<254.5 347.5 254.5 360> 469 20G<53.5 62 220 229.5 377 385 519 529> 509 21G<209 209 402 402> 665 20G<283 328 328 328>
VStem: 99 71<155 443> 436 56<153 155 155 443>
LayerCount: 2
Fore
SplineSet
306 611 m 1,0,-1
 209 509 l 1,1,-1
 183 526 l 1,2,3
 247 617 247 617 283 685 c 1,4,-1
 328 685 l 1,5,6
 364 617 364 617 428 526 c 1,7,-1
 402 509 l 1,8,-1
 306 611 l 1,0,-1
220 489 m 2,9,10
 239 489 239 489 239 458 c 1,11,-1
 170 443 l 1,12,-1
 170 152 l 2,13,14
 170 101 170 101 202 71 c 128,-1,15
 234 41 234 41 300.5 41 c 0,16,17
 367 41 367 41 401.5 73.5 c 128,-1,18
 436 106 436 106 436 153 c 2,19,-1
 436 443 l 1,20,-1
 366 458 l 1,21,22
 366 489 366 489 385 489 c 2,23,-1
 465 486 l 1,24,-1
 519 489 l 1,25,26
 539 489 539 489 539 458 c 1,27,-1
 492 443 l 1,28,-1
 492 155 l 2,29,30
 492 81 492 81 440.5 36.5 c 128,-1,31
 389 -8 389 -8 300 -8 c 0,32,33
 99 -8 99 -8 99 155 c 2,34,-1
 99 443 l 1,35,-1
 45 457 l 1,36,37
 45 489 45 489 62 489 c 0,38,39
 67 489 67 489 137 486 c 1,40,-1
 220 489 l 2,9,10
EndSplineSet
EndChar

StartChar: udieresis
Encoding: 252 252 203
Width: 579
Flags: HMW
HStem: -8 49<254.5 347.5 254.5 360> 469 20G<53.5 62 220 229.5 377 385 519 529> 544 21G<207 228.5 355 376.5> 639 20G<236 255.5 384 403.5>
VStem: 99 71<155 443> 188 87<593.5 609.5> 336 87<593.5 609.5> 436 56<153 155 155 443>
LayerCount: 2
Fore
SplineSet
244 659 m 0,0,1
 275 659 275 659 275 606 c 0,2,3
 275 571 275 571 269 553 c 1,4,5
 237 544 237 544 220 544 c 0,6,7
 188 544 188 544 188 596 c 0,8,9
 188 631 188 631 195 652 c 1,10,11
 228 659 228 659 244 659 c 0,0,1
392 659 m 0,12,13
 423 659 423 659 423 606 c 0,14,15
 423 571 423 571 417 553 c 1,16,17
 385 544 385 544 368 544 c 0,18,19
 336 544 336 544 336 596 c 0,20,21
 336 631 336 631 343 652 c 1,22,23
 376 659 376 659 392 659 c 0,12,13
220 489 m 2,24,25
 239 489 239 489 239 458 c 1,26,-1
 170 443 l 1,27,-1
 170 152 l 2,28,29
 170 101 170 101 202 71 c 128,-1,30
 234 41 234 41 300.5 41 c 0,31,32
 367 41 367 41 401.5 73.5 c 128,-1,33
 436 106 436 106 436 153 c 2,34,-1
 436 443 l 1,35,-1
 366 458 l 1,36,37
 366 489 366 489 385 489 c 2,38,-1
 465 486 l 1,39,-1
 519 489 l 1,40,41
 539 489 539 489 539 458 c 1,42,-1
 492 443 l 1,43,-1
 492 155 l 2,44,45
 492 81 492 81 440.5 36.5 c 128,-1,46
 389 -8 389 -8 300 -8 c 0,47,48
 99 -8 99 -8 99 155 c 2,49,-1
 99 443 l 1,50,-1
 45 457 l 1,51,52
 45 489 45 489 62 489 c 0,53,54
 67 489 67 489 137 486 c 1,55,-1
 220 489 l 2,24,25
EndSplineSet
EndChar

StartChar: thorn
Encoding: 254 254 204
Width: 454
Flags: HMW
HStem: 0 21G<64 73 237 245.5> 88 21G<119 186 119 119> 382 20G<156 266 266 315> 469 20G<64 73 237 245.5>
VStem: 119 71<45 444 88 357 357 357 45 444> 357 67<223.5 279.5>
LayerCount: 2
Fore
SplineSet
190 355 m 1,0,-1
 190 133 l 1,1,-1
 239 133 l 2,2,3
 295 133 295 133 326 169 c 128,-1,4
 357 205 357 205 357 251 c 0,5,6
 357 297 357 297 330.5 329 c 128,-1,7
 304 361 304 361 253 362 c 1,8,-1
 190 355 l 1,0,-1
156 402 m 1,9,-1
 266 402 l 2,10,11
 338 402 338 402 381 359 c 128,-1,12
 424 316 424 316 424 253 c 0,13,14
 424 190 424 190 375 145 c 128,-1,15
 326 100 326 100 234 92 c 2,16,-1
 186 88 l 1,17,-1
 119 88 l 1,18,-1
 119 357 l 1,19,-1
 156 402 l 1,9,-1
119 444 m 1,20,-1
 55 458 l 1,21,22
 55 489 55 489 73 489 c 0,23,24
 88 489 88 489 156 486 c 1,25,-1
 237 489 l 2,26,27
 254 489 254 489 254 459 c 1,28,-1
 190 444 l 1,29,-1
 190 45 l 1,30,-1
 254 31 l 1,31,32
 254 0 254 0 237 0 c 1,33,-1
 156 6 l 1,34,-1
 73 0 l 1,35,36
 55 0 55 0 55 31 c 1,37,-1
 119 45 l 1,38,-1
 119 444 l 1,20,-1
EndSplineSet
EndChar

StartChar: ydieresis
Encoding: 255 255 205
Width: 468
Flags: HMW
HStem: 0 21G<143.5 153 329 337.5> 469 20G<24.5 34 181 188.5 294.5 302 436 436> 544 21G<148 169.5 296 317.5> 639 20G<177 196.5 325 344.5>
VStem: 129 87<593.5 609.5> 205 70<46 194 194 194> 277 87<593.5 609.5>
LayerCount: 2
Fore
SplineSet
185 659 m 0,0,1
 216 659 216 659 216 606 c 0,2,3
 216 571 216 571 210 553 c 1,4,5
 178 544 178 544 161 544 c 0,6,7
 129 544 129 544 129 596 c 0,8,9
 129 631 129 631 136 652 c 1,10,11
 169 659 169 659 185 659 c 0,0,1
333 659 m 0,12,13
 364 659 364 659 364 606 c 0,14,15
 364 571 364 571 358 553 c 1,16,17
 326 544 326 544 309 544 c 0,18,19
 277 544 277 544 277 596 c 0,20,21
 277 631 277 631 284 652 c 1,22,23
 317 659 317 659 333 659 c 0,12,13
344 444 m 1,24,25
 290 456 290 456 284 458 c 1,26,27
 284 489 284 489 302 489 c 2,28,-1
 378 486 l 1,29,-1
 436 489 l 1,30,31
 453 487 453 487 453 459 c 1,32,-1
 404 443 l 1,33,-1
 275 195 l 1,34,-1
 275 46 l 1,35,-1
 346 31 l 1,36,37
 346 0 346 0 329 0 c 1,38,-1
 242 6 l 1,39,-1
 153 0 l 1,40,41
 134 0 134 0 134 31 c 1,42,-1
 205 46 l 1,43,-1
 205 194 l 1,44,-1
 65 443 l 1,45,-1
 15 459 l 1,46,47
 15 489 15 489 34 489 c 0,48,49
 40 489 40 489 104 486 c 1,50,-1
 181 489 l 2,51,52
 198 489 198 489 198 458 c 1,53,-1
 140 444 l 1,54,55
 209.333333333 309.666666667 209.333333333 309.666666667 246 240 c 1,56,-1
 344 444 l 1,24,25
EndSplineSet
EndChar

StartChar: AE
Encoding: 198 198 206
Width: 865
Flags: HMW
HStem: 0 21G<-5.5 2 204 211.5 398.5 406 820 828> 4 51 223 50 332 50 647 51 680 20G<338 338 760 769>
LayerCount: 2
Fore
SplineSet
725 555 m 2,0,-1
 725 649 l 1,1,-1
 432 646 l 1,2,-1
 490 382 l 1,3,-1
 772 382 l 1,4,-1
 772 339 l 1,5,-1
 502 325 l 1,6,-1
 561 55 l 1,7,-1
 782 55 l 1,8,-1
 808 149 l 1,9,10
 808 163 808 163 850 163 c 1,11,-1
 842 12 l 2,12,13
 841 0 841 0 821 0 c 0,14,15
 816 0 816 0 525 8 c 1,16,-1
 406 0 l 1,17,18
 391 0 391 0 391 30 c 1,19,-1
 481 52 l 1,20,-1
 443 229 l 1,21,-1
 192 217 l 1,22,-1
 124 52 l 1,23,-1
 219 30 l 1,24,25
 219 0 219 0 204 0 c 0,26,27
 201 0 201 0 93 4 c 1,28,-1
 2 0 l 2,29,30
 -13 0 -13 0 -13 30 c 1,31,-1
 62 52 l 1,32,-1
 338 700 l 1,33,-1
 421 696 l 1,34,-1
 760 700 l 2,35,36
 791 700 791 700 792 690 c 1,37,-1
 768 541 l 1,38,39
 725 541 725 541 725 555 c 2,0,-1
359 622 m 1,40,-1
 215 273 l 1,41,-1
 434 273 l 1,42,-1
 359 622 l 1,40,-1
EndSplineSet
Position2: "'cpsp' Capital Spacing in Latin lookup 0 subtable" dx=7 dy=0 dh=35 dv=0
EndChar

StartChar: ae
Encoding: 230 230 207
Width: 672
Flags: HMW
HStem: 0 21G<-1.5 7 157 165.5 294.5 303 608 615.5> 6 43<391 576> 151 47 228 46 441 46 469 20G<250 250 562 571>
LayerCount: 2
Fore
SplineSet
391 6 m 1,0,-1
 303 0 l 1,1,2
 286 0 286 0 286 31 c 1,3,-1
 351 46 l 1,4,-1
 325 156 l 1,5,-1
 151 147 l 1,6,-1
 106 45 l 1,7,-1
 174 31 l 1,8,9
 174 0 174 0 157 0 c 0,10,11
 156 0 156 0 75 3 c 1,12,-1
 7 0 l 2,13,14
 -10 0 -10 0 -10 31 c 1,15,-1
 47 46 l 1,16,-1
 250 489 l 1,17,-1
 320 486 l 1,18,-1
 562 489 l 2,19,20
 581.5 489 581.5 489 586.75 485.5 c 128,-1,21
 592 482 592 482 592 475 c 1,22,-1
 574 369 l 1,23,24
 533 369 533 369 533 384 c 2,25,-1
 533 442 l 1,26,-1
 331 440 l 1,27,-1
 370 274 l 1,28,-1
 544 274 l 1,29,-1
 544 233 l 1,30,-1
 382 223 l 1,31,-1
 423 49 l 1,32,-1
 576 49 l 1,33,-1
 593 106 l 2,34,35
 596 117 596 117 604.5 120 c 128,-1,36
 613 123 613 123 635 123 c 1,37,-1
 629 12 l 1,38,39
 626 0 626 0 609 0 c 0,40,41
 604 0 604 0 391 6 c 1,0,-1
266 410 m 1,42,-1
 174 198 l 1,43,-1
 316 198 l 1,44,-1
 266 410 l 1,42,-1
EndSplineSet
EndChar

StartChar: oe
Encoding: 339 339 208
Width: 724
Flags: HMW
HStem: -8 44<237 295.5> -8 57 0 21G<645 654.5> 227 47 441 56 469 20G<640 649>
VStem: 35 78<177 290.5 177 327> 363 69
LayerCount: 2
Fore
SplineSet
395 486 m 1,0,-1
 640 489 l 2,1,2
 659.5 489 659.5 489 664.75 485.5 c 128,-1,3
 670 482 670 482 670 475 c 1,4,-1
 652 369 l 1,5,6
 611 369 611 369 611 384 c 2,7,-1
 611 442 l 1,8,-1
 428 440 l 1,9,-1
 437 274 l 1,10,-1
 622 274 l 1,11,-1
 622 233 l 1,12,-1
 436 222 l 1,13,-1
 428 49 l 1,14,-1
 620 49 l 1,15,-1
 637 106 l 2,16,17
 640 117 640 117 648.5 120 c 128,-1,18
 657 123 657 123 679 123 c 1,19,-1
 673 12 l 1,20,21
 671 0 671 0 645 0 c 2,22,-1
 398 6 l 1,23,24
 343 -8 343 -8 277 -8 c 0,25,26
 168 -8 168 -8 101.5 54.5 c 128,-1,27
 35 117 35 117 35 241.5 c 128,-1,28
 35 366 35 366 100.5 431.5 c 128,-1,29
 166 497 166 497 272 497 c 0,30,31
 324 497 324 497 395 486 c 1,0,-1
286 36 m 0,32,33
 321 36 321 36 363 49 c 1,34,-1
 363 440 l 1,35,36
 316 451 316 451 277 451 c 128,-1,37
 238 451 238 451 183 436 c 1,38,39
 151 411 151 411 132 361 c 128,-1,40
 113 311 113 311 113 248 c 0,41,42
 113 145 113 145 161 90.5 c 128,-1,43
 209 36 209 36 286 36 c 0,32,33
EndSplineSet
EndChar

StartChar: scaron
Encoding: 353 353 209
Width: 432
Flags: HMW
HStem: -8 46<195.5 247.5 195.5 259> 450 47<205.5 238.5> 509 21G<183 228 183 183> 665 20G<121 121 314 314>
VStem: 312 75<92 123>
LayerCount: 2
Fore
SplineSet
211 583 m 1,0,-1
 314 685 l 1,1,-1
 339 668 l 1,2,3
 267 573.5 267 573.5 228 509 c 1,4,-1
 183 509 l 1,5,6
 156 571 156 571 94 668 c 1,7,-1
 121 685 l 1,8,-1
 211 583 l 1,0,-1
387 122 m 0,9,10
 387 60 387 60 337 26 c 128,-1,11
 287 -8 287 -8 209 -8 c 128,-1,12
 131 -8 131 -8 45 26 c 1,13,14
 47.1282051282 57.9230769231 47.1282051282 57.9230769231 57.5641025641 103.461538462 c 128,-1,15
 68 149 68 149 69 149 c 0,16,17
 107 149 107 149 107 134 c 2,18,-1
 107 62 l 1,19,20
 152 38 152 38 207 38 c 128,-1,21
 262 38 262 38 287 59 c 128,-1,22
 312 80 312 80 312 113 c 0,23,24
 312 156 312 156 263 183 c 2,25,-1
 135 252 l 2,26,27
 97 273 97 273 76.5 303.5 c 128,-1,28
 56 334 56 334 56 366 c 0,29,30
 56 420 56 420 102.5 458.5 c 128,-1,31
 149 497 149 497 230 497 c 0,32,33
 288 497 288 497 364 471 c 1,34,-1
 343 356 l 1,35,36
 300 356 300 356 300 371 c 2,37,-1
 300 437 l 1,38,39
 263 450 263 450 225 450 c 0,40,41
 155 450 155 450 124 404 c 1,42,43
 120 392 120 392 120 378 c 0,44,45
 120 335 120 335 172 307 c 2,46,-1
 297 241 l 2,47,48
 341 218 341 218 364 186 c 128,-1,49
 387 154 387 154 387 122 c 0,9,10
EndSplineSet
EndChar

StartChar: zcaron
Encoding: 382 382 210
Width: 479
Flags: HMW
HStem: -9 21G<30 49> 0 21G<404 413.5> 4 45 437 46 469 20G<83.5 91> 478 20G 509 21G<227 272 227 227> 665 20G<165 165 358 358>
LayerCount: 2
Fore
SplineSet
255 583 m 1,0,-1
 358 685 l 1,1,-1
 383 668 l 1,2,3
 311 573.5 311 573.5 272 509 c 1,4,-1
 227 509 l 1,5,6
 200 571 200 571 138 668 c 1,7,-1
 165 685 l 1,8,-1
 255 583 l 1,0,-1
372 49 m 1,9,-1
 372 109 l 2,10,11
 372 124 372 124 413 124 c 1,12,-1
 431 15 l 1,13,14
 431 6 431 6 425 3 c 128,-1,15
 419 0 419 0 404 0 c 2,16,-1
 81 9 l 1,17,-1
 49 -9 l 1,18,-1
 30 12 l 1,19,-1
 339 437 l 1,20,-1
 129 437 l 1,21,-1
 129 382 l 2,22,23
 129 366 129 366 88 366 c 1,24,-1
 70 475 l 1,25,26
 70 489 70 489 91 489 c 2,27,-1
 393 478 l 1,28,-1
 425 498 l 1,29,-1
 449 480 l 1,30,-1
 137 49 l 1,31,-1
 372 49 l 1,9,-1
EndSplineSet
EndChar

StartChar: lslash
Encoding: 322 322 211
Width: 430
Flags: HMW
HStem: 0 21G<64 73 376 385.5> 3 46 168 21G<53 53> 319 20G<272 272> 469 20G<65.5 73 237 244>
VStem: 119 71<49 444 49 444 49 444>
LayerCount: 2
Fore
SplineSet
53 168 m 1,0,-1
 29 215 l 1,1,-1
 272 339 l 1,2,-1
 290 304 l 1,3,-1
 53 168 l 1,0,-1
376 0 m 2,4,-1
 156 6 l 1,5,-1
 73 0 l 1,6,7
 55 0 55 0 55 31 c 1,8,-1
 119 45 l 1,9,-1
 119 444 l 1,10,-1
 55 458 l 1,11,12
 55 489 55 489 73 489 c 2,13,-1
 156 486 l 1,14,-1
 237 489 l 2,15,16
 254 489 254 489 254 459 c 1,17,-1
 190 444 l 1,18,-1
 190 49 l 1,19,-1
 351 49 l 1,20,-1
 368 106 l 2,21,22
 371 117 371 117 379.5 120 c 128,-1,23
 388 123 388 123 410 123 c 1,24,-1
 404 12 l 1,25,26
 402 0 402 0 376 0 c 2,4,-1
EndSplineSet
EndChar

StartChar: paragraph
Encoding: 182 182 212
Width: 591
Flags: HMW
HStem: 0 21G<153.5 161 161 328 395 395 395 466> 642 70<328 328 328 395 273.5 466 273.5 537>
VStem: 257 71<48 302 302 302> 395 71<0 642 0 642>
LayerCount: 2
Fore
SplineSet
328 642 m 1,0,-1
 328 0 l 1,1,-1
 161 0 l 2,2,3
 146 0 146 0 146 30 c 1,4,-1
 257 48 l 1,5,-1
 257 302 l 1,6,7
 165 304 165 304 107.5 353.5 c 128,-1,8
 50 403 50 403 50 501 c 0,9,10
 50 549 50 549 67.5 586.5 c 128,-1,11
 85 624 85 624 113 647 c 128,-1,12
 141 670 141 670 180 685 c 0,13,14
 250.2 712 250.2 712 342 712 c 0,15,16
 439 712 439 712 523 689.5 c 0,17,18
 551 682 551 682 551 679 c 0,19,20
 551 642 551 642 537 642 c 2,21,-1
 466 642 l 1,22,-1
 466 0 l 1,23,-1
 395 0 l 1,24,-1
 395 642 l 1,25,-1
 328 642 l 1,0,-1
EndSplineSet
EndChar

StartChar: yacute
Encoding: 253 253 213
Width: 468
Flags: HMW
HStem: 0 21G<143.5 153 329 337.5> 469 20G<24.5 34 181 188.5 294.5 302 436 436> 518 21G<167 167> 660 20G
VStem: 205 70<46 194 194 194>
LayerCount: 2
Fore
SplineSet
167 518 m 1,0,-1
 156 537 l 1,1,2
 253 603 253 603 348 680 c 1,3,4
 353 674 353 674 363 650 c 128,-1,5
 373 626 373 626 373 615 c 128,-1,6
 373 604 373 604 368 601 c 0,7,8
 293 553 293 553 167 518 c 1,0,-1
344 444 m 1,9,10
 290 456 290 456 284 458 c 1,11,12
 284 489 284 489 302 489 c 2,13,-1
 378 486 l 1,14,-1
 436 489 l 1,15,16
 453 487 453 487 453 459 c 1,17,-1
 404 443 l 1,18,-1
 275 195 l 1,19,-1
 275 46 l 1,20,-1
 346 31 l 1,21,22
 346 0 346 0 329 0 c 1,23,-1
 242 6 l 1,24,-1
 153 0 l 1,25,26
 134 0 134 0 134 31 c 1,27,-1
 205 46 l 1,28,-1
 205 194 l 1,29,-1
 65 443 l 1,30,-1
 15 459 l 1,31,32
 15 489 15 489 34 489 c 0,33,34
 40 489 40 489 104 486 c 1,35,-1
 181 489 l 2,36,37
 198 489 198 489 198 458 c 1,38,-1
 140 444 l 1,39,40
 209.333333333 309.666666667 209.333333333 309.666666667 246 240 c 1,41,-1
 344 444 l 1,9,10
EndSplineSet
EndChar

StartChar: numbersign
Encoding: 35 35 214
Width: 510
Flags: HMW
HStem: 0 21G<47 104 47 47 209 266 209 209> 168 57<22 106 2 126 183 268 22 163 345 442> 330 57<48 182 68 162 239 324 68 219 401 488> 534 20G<241 298 298 298 403 460 460 460>
LayerCount: 2
Fore
SplineSet
48 330 m 1,0,-1
 68 387 l 1,1,-1
 182 387 l 1,2,-1
 241 554 l 1,3,-1
 298 554 l 1,4,-1
 239 387 l 1,5,-1
 344 387 l 1,6,-1
 403 554 l 1,7,-1
 460 554 l 1,8,-1
 401 387 l 1,9,-1
 508 387 l 1,10,-1
 488 330 l 1,11,-1
 381 330 l 1,12,-1
 345 225 l 1,13,-1
 462 225 l 1,14,-1
 442 168 l 1,15,-1
 325 168 l 1,16,-1
 266 0 l 1,17,-1
 209 0 l 1,18,-1
 268 168 l 1,19,-1
 163 168 l 1,20,-1
 104 0 l 1,21,-1
 47 0 l 1,22,-1
 106 168 l 1,23,-1
 2 168 l 1,24,-1
 22 225 l 1,25,-1
 126 225 l 1,26,-1
 162 330 l 1,27,-1
 48 330 l 1,0,-1
219 330 m 1,28,-1
 183 225 l 1,29,-1
 288 225 l 1,30,-1
 324 330 l 1,31,-1
 219 330 l 1,28,-1
EndSplineSet
EndChar

StartChar: asciicircum
Encoding: 94 94 215
Width: 510
Flags: HMW
HStem: 448 20G
LayerCount: 2
Fore
SplineSet
135 225 m 1,0,-1
 75 225 l 1,1,-1
 227 512 l 1,2,-1
 284 512 l 1,3,-1
 436 225 l 1,4,-1
 376 225 l 1,5,-1
 255 457 l 1,6,-1
 135 225 l 1,0,-1
EndSplineSet
EndChar

StartChar: underscore
Encoding: 95 95 216
Width: 504
Flags: HMW
HStem: -69 57<40 464 40 464>
LayerCount: 2
Fore
SplineSet
40 -69 m 1,0,-1
 40 -12 l 1,1,-1
 464 -12 l 1,2,-1
 464 -69 l 1,3,-1
 40 -69 l 1,0,-1
EndSplineSet
EndChar

StartChar: logicalnot
Encoding: 172 172 217
Width: 510
Flags: HMW
HStem: 137 21G<383 437 383 383> 249 57<73 437 73 437> 286 20G<73 437 383 437 437 437 437 437>
VStem: 383 54<137 306>
LayerCount: 2
Fore
SplineSet
437 137 m 1,0,-1
 383 137 l 1,1,-1
 383 306 l 1,2,-1
 437 306 l 1,3,-1
 437 137 l 1,0,-1
73 249 m 1,4,-1
 73 306 l 1,5,-1
 437 306 l 1,6,-1
 437 249 l 1,7,-1
 73 249 l 1,4,-1
EndSplineSet
EndChar

StartChar: asciitilde
Encoding: 126 126 218
Width: 510
Flags: HMW
HStem: 238 56<317 359> 263 56<149.5 191.5> 301 20G<423 423>
LayerCount: 2
Fore
SplineSet
423 321 m 1,0,-1
 445 284 l 1,1,2
 404 238 404 238 341 238 c 0,3,4
 310 238 310 238 250.5 250.5 c 128,-1,5
 191 263 191 263 155.5 263 c 0,6,7
 120 263 120 263 88 238 c 1,8,-1
 65 275 l 1,9,10
 105 319 105 319 168 319 c 0,11,12
 198 319 198 319 258 306.5 c 128,-1,13
 318 294 318 294 353 294 c 0,14,15
 388 294 388 294 423 321 c 1,0,-1
EndSplineSet
EndChar

StartChar: section
Encoding: 167 167 219
Width: 427
Flags: HMW
HStem: -85 50<126.5 168.5 126.5 195> 662 50<258.5 300.5>
VStem: 84 65 97 52 278 52 278 65
LayerCount: 2
Fore
SplineSet
97 267 m 0,0,1
 97 350 97 350 195 417 c 1,2,3
 84 507 84 507 84 571 c 128,-1,4
 84 635 84 635 142 673.5 c 128,-1,5
 200 712 200 712 291 712 c 0,6,7
 347 712 347 712 407 697 c 1,8,-1
 381 543 l 1,9,10
 339 543 339 543 339 557 c 2,11,-1
 339 658 l 1,12,13
 320 662 320 662 292 662 c 0,14,15
 235 662 235 662 192.5 637.5 c 128,-1,16
 150 613 150 613 149 563 c 1,17,18
 155 540 155 540 184.5 509 c 128,-1,19
 214 478 214 478 246 454 c 0,20,21
 330 391 330 391 330 360 c 0,22,23
 330 319 330 319 308.5 282.5 c 128,-1,24
 287 246 287 246 232 210 c 1,25,26
 266 182 266 182 286.5 162 c 128,-1,27
 307 142 307 142 325 113.5 c 128,-1,28
 343 85 343 85 343 59 c 0,29,30
 343 -8 343 -8 285 -46.5 c 128,-1,31
 227 -85 227 -85 136 -85 c 0,32,33
 80 -85 80 -85 20 -70 c 1,34,-1
 46 84 l 1,35,36
 88 84 88 84 88 70 c 2,37,-1
 88 -31 l 1,38,39
 107 -35 107 -35 135 -35 c 0,40,41
 192 -35 192 -35 234.5 -10.5 c 128,-1,42
 277 14 277 14 278 64 c 1,43,44
 272 87 272 87 242.5 118 c 128,-1,45
 213 149 213 149 181 173 c 0,46,47
 97 236 97 236 97 267 c 0,0,1
253 267 m 1,48,49
 273 300 273 300 273 328 c 0,50,51
 273 377 273 377 230 377 c 0,52,53
 214.375 377 214.375 377 183.5 364 c 2,54,-1
 174 360 l 1,55,56
 154 327 154 327 154 299 c 0,57,58
 154 250 154 250 197 250 c 0,59,60
 217.111111111 250 217.111111111 250 243.5 262.5 c 2,61,-1
 253 267 l 1,48,49
EndSplineSet
EndChar

StartChar: Euro
Encoding: 8364 8364 220
Width: 510
Flags: HMW
HStem: -12 21G<248.5 330> 513 50<271.5 324>
VStem: 93 83<251 298 251 298>
LayerCount: 2
Fore
SplineSet
325 251 m 1,0,-1
 325 214 l 1,1,-1
 178 214 l 1,2,3
 194 37 194 37 309 37 c 0,4,5
 354 37 354 37 398 64 c 1,6,-1
 394 137 l 2,7,8
 394 145 394 145 409 149 c 128,-1,9
 424 153 424 153 434 153 c 1,10,-1
 441 124.5 l 2,11,12
 460.292682927 45.9512195122 460.292682927 45.9512195122 463 27 c 1,13,14
 390 -12 390 -12 304.5 -12 c 128,-1,15
 219 -12 219 -12 164 45.5 c 128,-1,16
 109 103 109 103 96 214 c 1,17,-1
 39 214 l 1,18,-1
 39 251 l 1,19,-1
 93 251 l 1,20,-1
 93 298 l 1,21,-1
 39 298 l 1,22,-1
 39 335 l 1,23,-1
 96 335 l 1,24,25
 110 443 110 443 169.5 503 c 128,-1,26
 229 563 229 563 313 563 c 128,-1,27
 397 563 397 563 465 524 c 1,28,29
 462.292682927 505.048780488 462.292682927 505.048780488 443 426.5 c 2,30,-1
 436 398 l 1,31,32
 426 398 426 398 411 402 c 128,-1,33
 396 406 396 406 396 414 c 2,34,-1
 400 487 l 1,35,36
 363 513 363 513 309 513 c 0,37,38
 194 513 194 513 178 335 c 1,39,-1
 325 335 l 1,40,-1
 325 298 l 1,41,-1
 176 298 l 1,42,-1
 176 251 l 1,43,-1
 325 251 l 1,0,-1
EndSplineSet
EndChar

StartChar: florin
Encoding: 402 402 221
Width: 510
Flags: HMW
HStem: -231 21G<114.5 170.5> -206 20G<114.5 153.5> 563 50<313.5 358>
VStem: 192 71<-73 263 300 464 464 465>
LayerCount: 2
Fore
SplineSet
97 263 m 1,0,-1
 97 300 l 1,1,-1
 192 300 l 1,2,-1
 192 464 l 2,3,4
 192 540 192 540 232.5 576.5 c 128,-1,5
 273 613 273 613 345 613 c 128,-1,6
 417 613 417 613 475 574 c 1,7,8
 472.292682927 555.048780488 472.292682927 555.048780488 453 476.5 c 2,9,-1
 446 448 l 1,10,11
 436 448 436 448 421 452 c 128,-1,12
 406 456 406 456 406 464 c 2,13,-1
 410 537 l 1,14,15
 382 563 382 563 347 563 c 0,16,17
 263 563 263 563 263 465 c 2,18,-1
 263 300 l 1,19,-1
 403 300 l 1,20,-1
 403 263 l 1,21,-1
 263 263 l 1,22,-1
 263 -82 l 2,23,24
 263 -158 263 -158 228 -194.5 c 128,-1,25
 193 -231 193 -231 133 -231 c 128,-1,26
 73 -231 73 -231 30 -202 c 1,27,-1
 48 -163 l 1,28,29
 84 -186 84 -186 128 -186 c 0,30,31
 192 -186 192 -186 192 -73 c 2,32,-1
 192 263 l 1,33,-1
 97 263 l 1,0,-1
EndSplineSet
EndChar

StartChar: fi
Encoding: 64257 64257 222
Width: 753
Flags: HMW
HStem: 0 21G<64 73 255 263.5 502 511 675 683.5> 217 47 441 46 469 20G<64 73 376 385 502 511 675 683.5>
VStem: 119 71 557 71<45 444 45 444>
LayerCount: 2
Fore
SplineSet
373 223 m 1,0,-1
 194 212 l 1,1,-1
 187 45 l 1,2,-1
 272 31 l 1,3,4
 272 0 272 0 255 0 c 1,5,-1
 156 6 l 1,6,-1
 73 0 l 1,7,8
 55 0 55 0 55 31 c 1,9,-1
 119 45 l 1,10,-1
 119 444 l 1,11,-1
 55 458 l 1,12,13
 55 489 55 489 73 489 c 0,14,15
 88 489 88 489 156 486 c 1,16,-1
 376 489 l 2,17,18
 395.5 489 395.5 489 400.75 485.5 c 128,-1,19
 406 482 406 482 406 475 c 1,20,-1
 388 369 l 1,21,22
 347 369 347 369 347 384 c 2,23,-1
 347 442 l 1,24,-1
 186 440 l 1,25,-1
 195 264 l 1,26,-1
 373 264 l 1,27,-1
 373 223 l 1,0,-1
557 444 m 1,28,-1
 493 458 l 1,29,30
 493 489 493 489 511 489 c 0,31,32
 526 489 526 489 594 486 c 1,33,-1
 675 489 l 2,34,35
 692 489 692 489 692 459 c 1,36,-1
 628 444 l 1,37,-1
 628 45 l 1,38,-1
 692 31 l 1,39,40
 692 0 692 0 675 0 c 1,41,-1
 594 6 l 1,42,-1
 511 0 l 1,43,44
 493 0 493 0 493 31 c 1,45,-1
 557 45 l 1,46,-1
 557 444 l 1,28,-1
EndSplineSet
EndChar

StartChar: fl
Encoding: 64258 64258 223
Width: 883
Flags: HMW
HStem: 0 21G<64 73 255 263.5 502 511 814 823.5> 3 46 217 47 441 46 469 20G<64 73 376 385 503.5 511 675 682>
VStem: 119 71 557 71<49 444 49 444 49 444>
LayerCount: 2
Fore
SplineSet
373 223 m 1,0,-1
 194 212 l 1,1,-1
 187 45 l 1,2,-1
 272 31 l 1,3,4
 272 0 272 0 255 0 c 1,5,-1
 156 6 l 1,6,-1
 73 0 l 1,7,8
 55 0 55 0 55 31 c 1,9,-1
 119 45 l 1,10,-1
 119 444 l 1,11,-1
 55 458 l 1,12,13
 55 489 55 489 73 489 c 0,14,15
 88 489 88 489 156 486 c 1,16,-1
 376 489 l 2,17,18
 395.5 489 395.5 489 400.75 485.5 c 128,-1,19
 406 482 406 482 406 475 c 1,20,-1
 388 369 l 1,21,22
 347 369 347 369 347 384 c 2,23,-1
 347 442 l 1,24,-1
 186 440 l 1,25,-1
 195 264 l 1,26,-1
 373 264 l 1,27,-1
 373 223 l 1,0,-1
814 0 m 2,28,-1
 594 6 l 1,29,-1
 511 0 l 1,30,31
 493 0 493 0 493 31 c 1,32,-1
 557 45 l 1,33,-1
 557 444 l 1,34,-1
 493 458 l 1,35,36
 493 489 493 489 511 489 c 2,37,-1
 594 486 l 1,38,-1
 675 489 l 2,39,40
 692 489 692 489 692 459 c 1,41,-1
 628 444 l 1,42,-1
 628 49 l 1,43,-1
 789 49 l 1,44,-1
 806 106 l 2,45,46
 809 117 809 117 817.5 120 c 128,-1,47
 826 123 826 123 848 123 c 1,48,-1
 842 12 l 1,49,50
 840 0 840 0 814 0 c 2,28,-1
EndSplineSet
EndChar

